M48
;Layer_Color=9474304
;FILE_FORMAT=4:4
METRIC,LZ
;TYPE=PLATED
T1F00S00C0.5000
T3F00S00C0.7000
T4F00S00C0.8000
;TYPE=NON_PLATED
T5F00S00C0.6500
%
T01
X00041Y00138
X0011Y00134
X00155461Y00101531
X00187441Y0010139
X00259Y0012211
X00276Y00088
X00334Y0010489
X00345Y00133
X00389Y00128
X0038486Y00037718
X00372Y00011
X00402Y00012
X00348Y00069
X0034Y0015711
X00322Y00159
X00305956Y00148066
X00279651Y00148011
X00235Y00148
X00207Y00149
X00178293Y00148844
X0015164Y0015
X00199Y00192
X0021036Y00216
X0018364
X0019Y00267
X00192Y00281
X0019Y00300804
X00221877Y0030981
X00272539Y00312539
X00286039Y00310039
X00268Y00294
X00278344Y00277535
X00278Y00265
X00262Y00251
X0026479Y00222803
X00266Y00197
X00239Y00207
X00292Y0021
X00312776Y00177547
X00337Y00199
X00354Y0019646
X00345Y00234
X00361Y00278
X0040089Y00277
X00398Y00354
X00345Y00389
X0033821Y00298676
X00262Y00348
X0018436Y00354
X00158Y00375
X00209255Y00254534
X00226Y00252322
X00389Y00152
X0011Y00148
X0009071Y00204
X00073Y00205
X00107Y0022764
X00102977Y00254
X00103Y00303
X00140378Y00275
X00134191Y0036446
X000299Y00275168
Y00262
T03
X000375Y003446
Y003573
Y0037
Y003827
Y003954
X000502
Y003827
Y0037
Y003573
Y003446
T04
X000132Y00038
X000386
X00064
X000894
Y00165
X00064
X000386
X000132
T05
X00065596Y00240479
Y00298279
M30
