G04*
G04 #@! TF.GenerationSoftware,Altium Limited,Altium Designer,22.5.1 (42)*
G04*
G04 Layer_Color=32896*
%FSLAX44Y44*%
%MOMM*%
G71*
G04*
G04 #@! TF.SameCoordinates,71178AE7-794B-4274-92FD-453C924C4812*
G04*
G04*
G04 #@! TF.FilePolarity,Positive*
G04*
G01*
G75*
%ADD10C,0.2500*%
%ADD11C,0.2000*%
%ADD13C,0.1270*%
%ADD16C,0.2540*%
D10*
X122250Y316000D02*
G03*
X122250Y316000I-1250J0D01*
G01*
X317988Y55324D02*
G03*
X317988Y55324I-1250J0D01*
G01*
X172988D02*
G03*
X172988Y55324I-1250J0D01*
G01*
X245488D02*
G03*
X245488Y55324I-1250J0D01*
G01*
D11*
X97500Y171500D02*
Y298500D01*
X144500Y171500D02*
Y298500D01*
X97500Y171500D02*
X106500D01*
X135500D02*
X144500D01*
X135500Y298500D02*
X144500D01*
X97500D02*
X106500D01*
X193500Y184500D02*
X204500D01*
X193500Y201500D02*
X204500D01*
X166000Y88500D02*
X177000D01*
X166000Y114500D02*
X177000D01*
X238500Y88500D02*
X249500D01*
X238500Y114500D02*
X249500D01*
X237000Y44500D02*
X248000D01*
X237000Y18500D02*
X248000D01*
X312500Y89000D02*
X323500D01*
X312500Y115000D02*
X323500D01*
X312500Y51000D02*
X322500D01*
X312500Y82000D02*
X322500D01*
X312500Y51000D02*
Y82000D01*
X322500Y51000D02*
Y82000D01*
X310500Y44000D02*
X321500D01*
X310500Y18000D02*
X321500D01*
X167500Y51000D02*
X177500D01*
X167500Y82000D02*
X177500D01*
X167500Y51000D02*
Y82000D01*
X177500Y51000D02*
Y82000D01*
X166000Y44500D02*
X177000D01*
X166000Y18500D02*
X177000D01*
X240000Y51000D02*
X250000D01*
X240000Y82000D02*
X250000D01*
X240000Y51000D02*
Y82000D01*
X250000Y51000D02*
Y82000D01*
D13*
X149000Y304100D02*
Y309900D01*
X167000Y304100D02*
Y309900D01*
X166000Y238100D02*
Y243900D01*
X148000Y238100D02*
Y243900D01*
X55100Y292000D02*
X60900D01*
X55100Y274000D02*
X60900D01*
X55100Y248000D02*
X60900D01*
X55100Y266000D02*
X60900D01*
X252000Y223100D02*
Y228900D01*
X234000Y223100D02*
Y228900D01*
X194100Y207000D02*
X199900D01*
X194100Y225000D02*
X199900D01*
D16*
X174000Y260070D02*
X182890D01*
Y260046D02*
Y284938D01*
X165110Y260070D02*
X174000D01*
X165110Y260300D02*
Y284938D01*
X182890D01*
X18750Y92350D02*
X23830D01*
X18750D02*
Y112416D01*
X33990D01*
X58501Y92604D02*
X63200D01*
Y112416D01*
X48341D02*
X63200D01*
X32531Y128118D02*
Y117882D01*
X27412D01*
X25706Y119588D01*
Y126412D01*
X27412Y128118D01*
X32531D01*
X15469D02*
X22294D01*
Y123000D01*
X18882Y124706D01*
X17176D01*
X15469Y123000D01*
Y119588D01*
X17176Y117882D01*
X20588D01*
X22294Y119588D01*
X186531Y299118D02*
X179706Y288882D01*
Y299118D02*
X186531Y288882D01*
X169469D02*
X176294D01*
X169469Y295706D01*
Y297412D01*
X171175Y299118D01*
X174588D01*
X176294Y297412D01*
X112538Y336389D02*
X105714Y326152D01*
Y336389D02*
X112538Y326152D01*
X102301D02*
X98889D01*
X100595D01*
Y336389D01*
X102301Y334683D01*
X148531Y81618D02*
Y73088D01*
X146825Y71382D01*
X143412D01*
X141706Y73088D01*
Y81618D01*
X133175Y71382D02*
Y81618D01*
X138294Y76500D01*
X131469D01*
X221031Y81618D02*
Y73088D01*
X219324Y71382D01*
X215912D01*
X214206Y73088D01*
Y81618D01*
X210794Y79912D02*
X209088Y81618D01*
X205676D01*
X203969Y79912D01*
Y78206D01*
X205676Y76500D01*
X207382D01*
X205676D01*
X203969Y74794D01*
Y73088D01*
X205676Y71382D01*
X209088D01*
X210794Y73088D01*
X293281Y81118D02*
Y72588D01*
X291574Y70882D01*
X288162D01*
X286456Y72588D01*
Y81118D01*
X276219Y70882D02*
X283044D01*
X276219Y77706D01*
Y79412D01*
X277926Y81118D01*
X281338D01*
X283044Y79412D01*
X218118Y281118D02*
X224943D01*
Y276000D01*
X221531D01*
X224943D01*
Y270882D01*
X214706Y281118D02*
Y270882D01*
X209588D01*
X207882Y272588D01*
Y274294D01*
X209588Y276000D01*
X214706D01*
X209588D01*
X207882Y277706D01*
Y279412D01*
X209588Y281118D01*
X214706D01*
X204469Y270882D02*
X201057D01*
X202763D01*
Y281118D01*
X204469Y279412D01*
X157824Y128412D02*
X159531Y130118D01*
X162943D01*
X164649Y128412D01*
Y121588D01*
X162943Y119882D01*
X159531D01*
X157824Y121588D01*
X147588Y119882D02*
X154412D01*
X147588Y126706D01*
Y128412D01*
X149294Y130118D01*
X152706D01*
X154412Y128412D01*
X144176D02*
X142469Y130118D01*
X139057D01*
X137351Y128412D01*
Y126706D01*
X139057Y125000D01*
X140763D01*
X139057D01*
X137351Y123294D01*
Y121588D01*
X139057Y119882D01*
X142469D01*
X144176Y121588D01*
X232824Y127412D02*
X234531Y129118D01*
X237943D01*
X239649Y127412D01*
Y120588D01*
X237943Y118882D01*
X234531D01*
X232824Y120588D01*
X222588Y118882D02*
X229412D01*
X222588Y125706D01*
Y127412D01*
X224294Y129118D01*
X227706D01*
X229412Y127412D01*
X212351Y118882D02*
X219175D01*
X212351Y125706D01*
Y127412D01*
X214057Y129118D01*
X217469D01*
X219175Y127412D01*
X306118D02*
X307824Y129118D01*
X311237D01*
X312943Y127412D01*
Y120588D01*
X311237Y118882D01*
X307824D01*
X306118Y120588D01*
X295882Y118882D02*
X302706D01*
X295882Y125706D01*
Y127412D01*
X297588Y129118D01*
X301000D01*
X302706Y127412D01*
X292469Y118882D02*
X289057D01*
X290763D01*
Y129118D01*
X292469Y127412D01*
X136588Y38324D02*
X134882Y40031D01*
Y43443D01*
X136588Y45149D01*
X143412D01*
X145118Y43443D01*
Y40031D01*
X143412Y38324D01*
X145118Y28088D02*
Y34912D01*
X138294Y28088D01*
X136588D01*
X134882Y29794D01*
Y33206D01*
X136588Y34912D01*
Y24676D02*
X134882Y22969D01*
Y19557D01*
X136588Y17851D01*
X143412D01*
X145118Y19557D01*
Y22969D01*
X143412Y24676D01*
X136588D01*
X206588Y37471D02*
X204882Y39177D01*
Y42590D01*
X206588Y44296D01*
X213412D01*
X215118Y42590D01*
Y39177D01*
X213412Y37471D01*
X215118Y34059D02*
Y30647D01*
Y32353D01*
X204882D01*
X206588Y34059D01*
X213412Y25529D02*
X215118Y23823D01*
Y20410D01*
X213412Y18704D01*
X206588D01*
X204882Y20410D01*
Y23823D01*
X206588Y25529D01*
X208294D01*
X210000Y23823D01*
Y18704D01*
X363471Y26912D02*
X365177Y28618D01*
X368590D01*
X370296Y26912D01*
Y20088D01*
X368590Y18382D01*
X365177D01*
X363471Y20088D01*
X360059Y18382D02*
X356647D01*
X358353D01*
Y28618D01*
X360059Y26912D01*
X351529D02*
X349823Y28618D01*
X346410D01*
X344704Y26912D01*
Y25206D01*
X346410Y23500D01*
X344704Y21794D01*
Y20088D01*
X346410Y18382D01*
X349823D01*
X351529Y20088D01*
Y21794D01*
X349823Y23500D01*
X351529Y25206D01*
Y26912D01*
X349823Y23500D02*
X346410D01*
X217971Y178412D02*
X219678Y180118D01*
X223090D01*
X224796Y178412D01*
Y171588D01*
X223090Y169882D01*
X219678D01*
X217971Y171588D01*
X214559Y169882D02*
X211147D01*
X212853D01*
Y180118D01*
X214559Y178412D01*
X199204Y180118D02*
X202616Y178412D01*
X206029Y175000D01*
Y171588D01*
X204322Y169882D01*
X200910D01*
X199204Y171588D01*
Y173294D01*
X200910Y175000D01*
X206029D01*
X221971Y236412D02*
X223678Y238118D01*
X227090D01*
X228796Y236412D01*
Y229588D01*
X227090Y227882D01*
X223678D01*
X221971Y229588D01*
X218559Y227882D02*
X215147D01*
X216853D01*
Y238118D01*
X218559Y236412D01*
X203204Y238118D02*
X210029D01*
Y233000D01*
X206616Y234706D01*
X204910D01*
X203204Y233000D01*
Y229588D01*
X204910Y227882D01*
X208323D01*
X210029Y229588D01*
X159706Y215412D02*
X161412Y217118D01*
X164825D01*
X166531Y215412D01*
Y208588D01*
X164825Y206882D01*
X161412D01*
X159706Y208588D01*
X149469Y217118D02*
X156294D01*
Y212000D01*
X152882Y213706D01*
X151175D01*
X149469Y212000D01*
Y208588D01*
X151175Y206882D01*
X154588D01*
X156294Y208588D01*
X243890Y265595D02*
X245596Y267301D01*
X249008D01*
X250714Y265595D01*
Y258770D01*
X249008Y257064D01*
X245596D01*
X243890Y258770D01*
X235359Y257064D02*
Y267301D01*
X240477Y262182D01*
X233653D01*
X159706Y341412D02*
X161412Y343118D01*
X164825D01*
X166531Y341412D01*
Y334588D01*
X164825Y332882D01*
X161412D01*
X159706Y334588D01*
X156294Y341412D02*
X154588Y343118D01*
X151175D01*
X149469Y341412D01*
Y339706D01*
X151175Y338000D01*
X152882D01*
X151175D01*
X149469Y336294D01*
Y334588D01*
X151175Y332882D01*
X154588D01*
X156294Y334588D01*
X47547Y284899D02*
X49254Y286605D01*
X52666D01*
X54372Y284899D01*
Y278074D01*
X52666Y276368D01*
X49254D01*
X47547Y278074D01*
X37311Y276368D02*
X44135D01*
X37311Y283193D01*
Y284899D01*
X39017Y286605D01*
X42429D01*
X44135Y284899D01*
X43991Y311061D02*
X45698Y312767D01*
X49110D01*
X50816Y311061D01*
Y304236D01*
X49110Y302530D01*
X45698D01*
X43991Y304236D01*
X40579Y302530D02*
X37167D01*
X38873D01*
Y312767D01*
X40579Y311061D01*
M02*
