G04*
G04 #@! TF.GenerationSoftware,Altium Limited,Altium Designer,22.5.1 (42)*
G04*
G04 Layer_Physical_Order=3*
G04 Layer_Color=16440176*
%FSLAX44Y44*%
%MOMM*%
G71*
G04*
G04 #@! TF.SameCoordinates,71178AE7-794B-4274-92FD-453C924C4812*
G04*
G04*
G04 #@! TF.FilePolarity,Positive*
G04*
G01*
G75*
G04:AMPARAMS|DCode=50|XSize=1mm|YSize=2.1mm|CornerRadius=0.5mm|HoleSize=0mm|Usage=FLASHONLY|Rotation=270.000|XOffset=0mm|YOffset=0mm|HoleType=Round|Shape=RoundedRectangle|*
%AMROUNDEDRECTD50*
21,1,1.0000,1.1000,0,0,270.0*
21,1,0.0000,2.1000,0,0,270.0*
1,1,1.0000,-0.5500,0.0000*
1,1,1.0000,-0.5500,0.0000*
1,1,1.0000,0.5500,0.0000*
1,1,1.0000,0.5500,0.0000*
%
%ADD50ROUNDEDRECTD50*%
G04:AMPARAMS|DCode=51|XSize=1mm|YSize=1.8mm|CornerRadius=0.5mm|HoleSize=0mm|Usage=FLASHONLY|Rotation=270.000|XOffset=0mm|YOffset=0mm|HoleType=Round|Shape=RoundedRectangle|*
%AMROUNDEDRECTD51*
21,1,1.0000,0.8000,0,0,270.0*
21,1,0.0000,1.8000,0,0,270.0*
1,1,1.0000,-0.4000,0.0000*
1,1,1.0000,-0.4000,0.0000*
1,1,1.0000,0.4000,0.0000*
1,1,1.0000,0.4000,0.0000*
%
%ADD51ROUNDEDRECTD51*%
%ADD62R,1.2000X2.5000*%
%ADD65C,1.1000*%
%ADD66C,1.0000*%
G36*
X416000Y4000D02*
X405764D01*
X405423Y5270D01*
X406630Y5967D01*
X408033Y7370D01*
X409026Y9090D01*
X409466Y10730D01*
X394534D01*
X394974Y9090D01*
X395966Y7370D01*
X397370Y5967D01*
X398577Y5270D01*
X398236Y4000D01*
X377362D01*
X376933Y5270D01*
X378033Y6370D01*
X379026Y8090D01*
X379540Y10007D01*
Y11993D01*
X379026Y13910D01*
X378033Y15630D01*
X376630Y17033D01*
X374910Y18026D01*
X372993Y18540D01*
X371007D01*
X369090Y18026D01*
X367370Y17033D01*
X365966Y15630D01*
X364974Y13910D01*
X364460Y11993D01*
Y10007D01*
X364974Y8090D01*
X365966Y6370D01*
X367067Y5270D01*
X366638Y4000D01*
X2000D01*
Y416000D01*
X416000D01*
Y4000D01*
D02*
G37*
%LPC*%
G36*
X51259Y403440D02*
X49142D01*
X47097Y402892D01*
X45263Y401834D01*
X43850Y400420D01*
X42437Y401834D01*
X40603Y402892D01*
X38558Y403440D01*
X36442D01*
X34397Y402892D01*
X32563Y401834D01*
X31066Y400337D01*
X30008Y398503D01*
X29460Y396459D01*
Y394342D01*
X30008Y392297D01*
X31066Y390463D01*
X32480Y389050D01*
X31066Y387637D01*
X30008Y385803D01*
X29460Y383759D01*
Y381642D01*
X30008Y379597D01*
X31066Y377763D01*
X32480Y376350D01*
X31066Y374937D01*
X30008Y373103D01*
X29460Y371059D01*
Y368941D01*
X30008Y366897D01*
X31066Y365063D01*
X32480Y363650D01*
X31066Y362237D01*
X30008Y360403D01*
X29460Y358358D01*
Y356241D01*
X30008Y354197D01*
X31066Y352363D01*
X32480Y350950D01*
X31066Y349537D01*
X30008Y347703D01*
X29460Y345658D01*
Y343541D01*
X30008Y341497D01*
X31066Y339663D01*
X32563Y338166D01*
X34397Y337108D01*
X36442Y336560D01*
X38558D01*
X40603Y337108D01*
X42437Y338166D01*
X43850Y339580D01*
X45263Y338166D01*
X47097Y337108D01*
X49142Y336560D01*
X51259D01*
X53303Y337108D01*
X55137Y338166D01*
X56634Y339663D01*
X57692Y341497D01*
X58240Y343541D01*
Y345658D01*
X57692Y347703D01*
X56634Y349537D01*
X55220Y350950D01*
X56634Y352363D01*
X57692Y354197D01*
X58240Y356241D01*
Y358358D01*
X57692Y360403D01*
X56634Y362237D01*
X55220Y363650D01*
X56634Y365063D01*
X57692Y366897D01*
X58183Y368730D01*
X50200D01*
Y371270D01*
X58183D01*
X57692Y373103D01*
X56634Y374937D01*
X55220Y376350D01*
X56634Y377763D01*
X57692Y379597D01*
X58183Y381430D01*
X50200D01*
Y383970D01*
X58183D01*
X57692Y385803D01*
X56634Y387637D01*
X55220Y389050D01*
X56634Y390463D01*
X57692Y392297D01*
X58240Y394342D01*
Y396459D01*
X57692Y398503D01*
X56634Y400337D01*
X55137Y401834D01*
X53303Y402892D01*
X51259Y403440D01*
D02*
G37*
G36*
X345993Y396540D02*
X344007D01*
X342090Y396026D01*
X340370Y395033D01*
X338966Y393630D01*
X337974Y391910D01*
X337460Y389993D01*
Y388007D01*
X337974Y386090D01*
X338966Y384370D01*
X340370Y382966D01*
X342090Y381974D01*
X344007Y381460D01*
X345993D01*
X347910Y381974D01*
X349630Y382966D01*
X351034Y384370D01*
X352026Y386090D01*
X352540Y388007D01*
Y389993D01*
X352026Y391910D01*
X351034Y393630D01*
X349630Y395033D01*
X347910Y396026D01*
X345993Y396540D01*
D02*
G37*
G36*
X158993Y382540D02*
X157007D01*
X155090Y382026D01*
X153370Y381034D01*
X151966Y379630D01*
X150974Y377910D01*
X150460Y375993D01*
Y374007D01*
X150974Y372090D01*
X151966Y370370D01*
X153370Y368966D01*
X155090Y367974D01*
X157007Y367460D01*
X158993D01*
X160910Y367974D01*
X162630Y368966D01*
X164034Y370370D01*
X165026Y372090D01*
X165540Y374007D01*
Y375993D01*
X165026Y377910D01*
X164034Y379630D01*
X162630Y381034D01*
X160910Y382026D01*
X158993Y382540D01*
D02*
G37*
G36*
X135461Y371926D02*
Y365730D01*
X141657D01*
X141217Y367370D01*
X140225Y369090D01*
X138821Y370494D01*
X137101Y371486D01*
X135461Y371926D01*
D02*
G37*
G36*
X132921D02*
X131281Y371486D01*
X129561Y370494D01*
X128158Y369090D01*
X127165Y367370D01*
X126725Y365730D01*
X132921D01*
Y371926D01*
D02*
G37*
G36*
X141657Y363190D02*
X135461D01*
Y356994D01*
X137101Y357434D01*
X138821Y358427D01*
X140225Y359830D01*
X141217Y361550D01*
X141657Y363190D01*
D02*
G37*
G36*
X132921D02*
X126725D01*
X127165Y361550D01*
X128158Y359830D01*
X129561Y358427D01*
X131281Y357434D01*
X132921Y356994D01*
Y363190D01*
D02*
G37*
G36*
X399270Y361466D02*
Y355270D01*
X405466D01*
X405026Y356910D01*
X404034Y358630D01*
X402630Y360033D01*
X400910Y361026D01*
X399270Y361466D01*
D02*
G37*
G36*
X396730D02*
X395090Y361026D01*
X393370Y360033D01*
X391967Y358630D01*
X390974Y356910D01*
X390534Y355270D01*
X396730D01*
Y361466D01*
D02*
G37*
G36*
X185630D02*
Y355270D01*
X191826D01*
X191386Y356910D01*
X190394Y358630D01*
X188990Y360033D01*
X187270Y361026D01*
X185630Y361466D01*
D02*
G37*
G36*
X183090D02*
X181450Y361026D01*
X179730Y360033D01*
X178326Y358630D01*
X177334Y356910D01*
X176894Y355270D01*
X183090D01*
Y361466D01*
D02*
G37*
G36*
X405466Y352730D02*
X399270D01*
Y346534D01*
X400910Y346974D01*
X402630Y347966D01*
X404034Y349370D01*
X405026Y351090D01*
X405466Y352730D01*
D02*
G37*
G36*
X396730D02*
X390534D01*
X390974Y351090D01*
X391967Y349370D01*
X393370Y347966D01*
X395090Y346974D01*
X396730Y346534D01*
Y352730D01*
D02*
G37*
G36*
X191826D02*
X185630D01*
Y346534D01*
X187270Y346974D01*
X188990Y347966D01*
X190394Y349370D01*
X191386Y351090D01*
X191826Y352730D01*
D02*
G37*
G36*
X183090D02*
X176894D01*
X177334Y351090D01*
X178326Y349370D01*
X179730Y347966D01*
X181450Y346974D01*
X183090Y346534D01*
Y352730D01*
D02*
G37*
G36*
X262993Y355540D02*
X261007D01*
X259090Y355026D01*
X257370Y354034D01*
X255966Y352630D01*
X254974Y350910D01*
X254460Y348993D01*
Y347007D01*
X254974Y345090D01*
X255966Y343370D01*
X257370Y341967D01*
X259090Y340974D01*
X261007Y340460D01*
X262993D01*
X264910Y340974D01*
X266630Y341967D01*
X268034Y343370D01*
X269026Y345090D01*
X269540Y347007D01*
Y348993D01*
X269026Y350910D01*
X268034Y352630D01*
X266630Y354034D01*
X264910Y355026D01*
X262993Y355540D01*
D02*
G37*
G36*
X76096Y320184D02*
X71866D01*
Y313849D01*
X83534D01*
X83442Y314547D01*
X82682Y316381D01*
X81474Y317956D01*
X79898Y319165D01*
X78064Y319925D01*
X76096Y320184D01*
D02*
G37*
G36*
X32796D02*
X30066D01*
Y313849D01*
X40234D01*
X40142Y314547D01*
X39382Y316381D01*
X38173Y317956D01*
X36598Y319165D01*
X34764Y319925D01*
X32796Y320184D01*
D02*
G37*
G36*
X27526D02*
X24796D01*
X22828Y319925D01*
X20993Y319165D01*
X19418Y317956D01*
X18210Y316381D01*
X17450Y314547D01*
X17358Y313849D01*
X27526D01*
Y320184D01*
D02*
G37*
G36*
X69326D02*
X65096D01*
X63127Y319925D01*
X61293Y319165D01*
X59718Y317956D01*
X58510Y316381D01*
X57750Y314547D01*
X57658Y313849D01*
X69326D01*
Y320184D01*
D02*
G37*
G36*
X83534Y311309D02*
X71866D01*
Y304974D01*
X76096D01*
X78064Y305233D01*
X79898Y305992D01*
X81474Y307201D01*
X82682Y308776D01*
X83442Y310610D01*
X83534Y311309D01*
D02*
G37*
G36*
X40234D02*
X30066D01*
Y304974D01*
X32796D01*
X34764Y305233D01*
X36598Y305992D01*
X38173Y307201D01*
X39382Y308776D01*
X40142Y310610D01*
X40234Y311309D01*
D02*
G37*
G36*
X27526D02*
X17358D01*
X17450Y310610D01*
X18210Y308776D01*
X19418Y307201D01*
X20993Y305992D01*
X22828Y305233D01*
X24796Y304974D01*
X27526D01*
Y311309D01*
D02*
G37*
G36*
X273531Y320079D02*
X271546D01*
X269628Y319565D01*
X267909Y318572D01*
X266505Y317168D01*
X265513Y315449D01*
X264999Y313531D01*
Y311546D01*
X265513Y309628D01*
X266505Y307909D01*
X267909Y306505D01*
X269628Y305513D01*
X271546Y304999D01*
X273531D01*
X275449Y305513D01*
X277168Y306505D01*
X277717Y307054D01*
X278120Y307077D01*
X279223Y306764D01*
X280005Y305409D01*
X281409Y304005D01*
X283128Y303013D01*
X285046Y302499D01*
X287031D01*
X288949Y303013D01*
X290668Y304005D01*
X292072Y305409D01*
X293065Y307128D01*
X293579Y309046D01*
Y311031D01*
X293065Y312949D01*
X292072Y314668D01*
X290668Y316072D01*
X288949Y317065D01*
X287031Y317579D01*
X285046D01*
X283128Y317065D01*
X281409Y316072D01*
X280860Y315523D01*
X280457Y315500D01*
X279354Y315814D01*
X278572Y317168D01*
X277168Y318572D01*
X275449Y319565D01*
X273531Y320079D01*
D02*
G37*
G36*
X222870Y317350D02*
X220884D01*
X218967Y316836D01*
X217247Y315844D01*
X215844Y314440D01*
X214851Y312721D01*
X214337Y310803D01*
Y308818D01*
X214851Y306900D01*
X215844Y305180D01*
X217247Y303777D01*
X218967Y302784D01*
X220884Y302270D01*
X222870D01*
X224787Y302784D01*
X226507Y303777D01*
X227911Y305180D01*
X228903Y306900D01*
X229417Y308818D01*
Y310803D01*
X228903Y312721D01*
X227911Y314440D01*
X226507Y315844D01*
X224787Y316836D01*
X222870Y317350D01*
D02*
G37*
G36*
X339480Y306141D02*
Y299946D01*
X345676D01*
X345236Y301586D01*
X344244Y303305D01*
X342840Y304709D01*
X341121Y305702D01*
X339480Y306141D01*
D02*
G37*
G36*
X336940D02*
X335300Y305702D01*
X333581Y304709D01*
X332177Y303305D01*
X331184Y301586D01*
X330745Y299946D01*
X336940D01*
Y306141D01*
D02*
G37*
G36*
X103993Y310540D02*
X102007D01*
X100090Y310026D01*
X98370Y309034D01*
X96966Y307630D01*
X95974Y305910D01*
X95460Y303993D01*
Y302007D01*
X95974Y300090D01*
X96966Y298370D01*
X98370Y296966D01*
X100090Y295974D01*
X102007Y295460D01*
X103993D01*
X105910Y295974D01*
X107630Y296966D01*
X109033Y298370D01*
X110026Y300090D01*
X110540Y302007D01*
Y303993D01*
X110026Y305910D01*
X109033Y307630D01*
X107630Y309034D01*
X105910Y310026D01*
X103993Y310540D01*
D02*
G37*
G36*
X190993Y308344D02*
X189007D01*
X187090Y307830D01*
X185370Y306838D01*
X183967Y305434D01*
X182974Y303714D01*
X182460Y301797D01*
Y299811D01*
X182974Y297894D01*
X183967Y296174D01*
X185370Y294771D01*
X187090Y293778D01*
X189007Y293264D01*
X190993D01*
X192910Y293778D01*
X194630Y294771D01*
X196033Y296174D01*
X197026Y297894D01*
X197540Y299811D01*
Y301797D01*
X197026Y303714D01*
X196033Y305434D01*
X194630Y306838D01*
X192910Y307830D01*
X190993Y308344D01*
D02*
G37*
G36*
X69326Y311309D02*
X57658D01*
X57750Y310610D01*
X58510Y308776D01*
X59718Y307201D01*
X61293Y305992D01*
X63127Y305233D01*
X63741Y305152D01*
X63912Y303848D01*
X62316Y303187D01*
X60687Y301558D01*
X59806Y299430D01*
Y297127D01*
X60687Y294999D01*
X62316Y293370D01*
X64444Y292489D01*
X66748D01*
X68876Y293370D01*
X70504Y294999D01*
X71386Y297127D01*
Y299430D01*
X70504Y301558D01*
X68876Y303187D01*
X67629Y303703D01*
X67882Y304974D01*
X69326D01*
Y311309D01*
D02*
G37*
G36*
X345676Y297406D02*
X339480D01*
Y291210D01*
X341121Y291649D01*
X342840Y292642D01*
X344244Y294046D01*
X345236Y295765D01*
X345676Y297406D01*
D02*
G37*
G36*
X336940D02*
X330745D01*
X331184Y295765D01*
X332177Y294046D01*
X333581Y292642D01*
X335300Y291649D01*
X336940Y291210D01*
Y297406D01*
D02*
G37*
G36*
X268993Y301540D02*
X267007D01*
X265090Y301026D01*
X263370Y300033D01*
X261966Y298630D01*
X260974Y296910D01*
X260460Y294993D01*
Y293007D01*
X260974Y291090D01*
X261966Y289370D01*
X263370Y287966D01*
X265090Y286974D01*
X267007Y286460D01*
X268993D01*
X270910Y286974D01*
X272630Y287966D01*
X274034Y289370D01*
X275026Y291090D01*
X275540Y293007D01*
Y294993D01*
X275026Y296910D01*
X274034Y298630D01*
X272630Y300033D01*
X270910Y301026D01*
X268993Y301540D01*
D02*
G37*
G36*
X362270Y285466D02*
Y279270D01*
X368466D01*
X368026Y280910D01*
X367034Y282630D01*
X365630Y284034D01*
X363910Y285026D01*
X362270Y285466D01*
D02*
G37*
G36*
X359730D02*
X358090Y285026D01*
X356370Y284034D01*
X354967Y282630D01*
X353974Y280910D01*
X353534Y279270D01*
X359730D01*
Y285466D01*
D02*
G37*
G36*
X402160Y284466D02*
Y278270D01*
X408356D01*
X407916Y279910D01*
X406923Y281630D01*
X405520Y283034D01*
X403800Y284026D01*
X402160Y284466D01*
D02*
G37*
G36*
X399620D02*
X397980Y284026D01*
X396260Y283034D01*
X394856Y281630D01*
X393864Y279910D01*
X393424Y278270D01*
X399620D01*
Y284466D01*
D02*
G37*
G36*
X141648Y282466D02*
Y276270D01*
X147844D01*
X147404Y277910D01*
X146412Y279630D01*
X145008Y281033D01*
X143288Y282026D01*
X141648Y282466D01*
D02*
G37*
G36*
X139108D02*
X137468Y282026D01*
X135748Y281033D01*
X134345Y279630D01*
X133352Y277910D01*
X132912Y276270D01*
X139108D01*
Y282466D01*
D02*
G37*
G36*
X368466Y276730D02*
X362270D01*
Y270534D01*
X363910Y270974D01*
X365630Y271966D01*
X367034Y273370D01*
X368026Y275090D01*
X368466Y276730D01*
D02*
G37*
G36*
X359730D02*
X353534D01*
X353974Y275090D01*
X354967Y273370D01*
X356370Y271966D01*
X358090Y270974D01*
X359730Y270534D01*
Y276730D01*
D02*
G37*
G36*
X408356Y275730D02*
X402160D01*
Y269534D01*
X403800Y269974D01*
X405520Y270966D01*
X406923Y272370D01*
X407916Y274090D01*
X408356Y275730D01*
D02*
G37*
G36*
X399620D02*
X393424D01*
X393864Y274090D01*
X394856Y272370D01*
X396260Y270966D01*
X397980Y269974D01*
X399620Y269534D01*
Y275730D01*
D02*
G37*
G36*
X147844Y273730D02*
X141648D01*
Y267534D01*
X143288Y267974D01*
X145008Y268967D01*
X146412Y270370D01*
X147404Y272090D01*
X147844Y273730D01*
D02*
G37*
G36*
X139108D02*
X132912D01*
X133352Y272090D01*
X134345Y270370D01*
X135748Y268967D01*
X137468Y267974D01*
X139108Y267534D01*
Y273730D01*
D02*
G37*
G36*
X192993Y288540D02*
X191007D01*
X189090Y288026D01*
X187370Y287034D01*
X185966Y285630D01*
X184974Y283910D01*
X184460Y281993D01*
Y280007D01*
X184974Y278090D01*
X185966Y276370D01*
X187016Y275321D01*
X187045Y274804D01*
X186913Y274105D01*
X186774Y273844D01*
X185370Y273034D01*
X183967Y271630D01*
X182974Y269910D01*
X182460Y267993D01*
Y266007D01*
X182974Y264090D01*
X183967Y262370D01*
X185370Y260966D01*
X187090Y259974D01*
X189007Y259460D01*
X190993D01*
X192910Y259974D01*
X194630Y260966D01*
X196033Y262370D01*
X197026Y264090D01*
X197540Y266007D01*
Y267993D01*
X197026Y269910D01*
X196033Y271630D01*
X194984Y272679D01*
X194955Y273196D01*
X195087Y273895D01*
X195226Y274156D01*
X196630Y274967D01*
X198034Y276370D01*
X199026Y278090D01*
X199540Y280007D01*
Y281993D01*
X199026Y283910D01*
X198034Y285630D01*
X196630Y287034D01*
X194910Y288026D01*
X192993Y288540D01*
D02*
G37*
G36*
X279336Y285075D02*
X277351D01*
X275433Y284562D01*
X273714Y283569D01*
X272310Y282165D01*
X271317Y280446D01*
X270804Y278528D01*
Y276543D01*
X271317Y274625D01*
X272310Y272906D01*
X272955Y272260D01*
X273353Y271084D01*
X272931Y270594D01*
X271966Y269630D01*
X270974Y267910D01*
X270460Y265993D01*
Y264007D01*
X270974Y262090D01*
X271966Y260370D01*
X273370Y258967D01*
X275090Y257974D01*
X277007Y257460D01*
X278993D01*
X280910Y257974D01*
X282630Y258967D01*
X284034Y260370D01*
X285026Y262090D01*
X285540Y264007D01*
Y265993D01*
X285026Y267910D01*
X284034Y269630D01*
X283388Y270275D01*
X282990Y271451D01*
X283412Y271941D01*
X284377Y272906D01*
X285370Y274625D01*
X285884Y276543D01*
Y278528D01*
X285370Y280446D01*
X284377Y282165D01*
X282973Y283569D01*
X281254Y284562D01*
X279336Y285075D01*
D02*
G37*
G36*
X30893Y282708D02*
X28907D01*
X26990Y282194D01*
X25270Y281202D01*
X23867Y279798D01*
X22874Y278078D01*
X22360Y276161D01*
Y274176D01*
X22874Y272258D01*
X23867Y270539D01*
X25039Y269366D01*
X25175Y268584D01*
X25039Y267802D01*
X23867Y266630D01*
X22874Y264910D01*
X22360Y262993D01*
Y261007D01*
X22874Y259090D01*
X23867Y257370D01*
X25270Y255966D01*
X26990Y254974D01*
X28907Y254460D01*
X30893D01*
X32810Y254974D01*
X34530Y255966D01*
X35933Y257370D01*
X36926Y259090D01*
X37440Y261007D01*
Y262993D01*
X36926Y264910D01*
X35933Y266630D01*
X34761Y267802D01*
X34625Y268584D01*
X34761Y269366D01*
X35933Y270539D01*
X36926Y272258D01*
X37440Y274176D01*
Y276161D01*
X36926Y278078D01*
X35933Y279798D01*
X34530Y281202D01*
X32810Y282194D01*
X30893Y282708D01*
D02*
G37*
G36*
X210247Y262074D02*
X208262D01*
X206344Y261560D01*
X204625Y260567D01*
X203221Y259164D01*
X202229Y257444D01*
X201715Y255527D01*
Y253541D01*
X202229Y251624D01*
X203221Y249904D01*
X204625Y248500D01*
X206344Y247508D01*
X208262Y246994D01*
X210247D01*
X212165Y247508D01*
X213884Y248500D01*
X215288Y249904D01*
X216281Y251624D01*
X216795Y253541D01*
Y255527D01*
X216281Y257444D01*
X215288Y259164D01*
X213884Y260567D01*
X212165Y261560D01*
X210247Y262074D01*
D02*
G37*
G36*
X103969Y261540D02*
X101984D01*
X100066Y261026D01*
X98347Y260033D01*
X96943Y258630D01*
X95950Y256910D01*
X95437Y254993D01*
Y253007D01*
X95950Y251090D01*
X96943Y249370D01*
X98347Y247966D01*
X100066Y246974D01*
X101984Y246460D01*
X103969D01*
X105887Y246974D01*
X107606Y247966D01*
X109010Y249370D01*
X110003Y251090D01*
X110517Y253007D01*
Y254993D01*
X110003Y256910D01*
X109010Y258630D01*
X107606Y260033D01*
X105887Y261026D01*
X103969Y261540D01*
D02*
G37*
G36*
X226993Y259862D02*
X225007D01*
X223090Y259348D01*
X221370Y258355D01*
X219967Y256951D01*
X218974Y255232D01*
X218460Y253314D01*
Y251329D01*
X218974Y249411D01*
X219967Y247692D01*
X221370Y246288D01*
X223090Y245296D01*
X225007Y244782D01*
X226993D01*
X228910Y245296D01*
X230630Y246288D01*
X232034Y247692D01*
X233026Y249411D01*
X233540Y251329D01*
Y253314D01*
X233026Y255232D01*
X232034Y256951D01*
X230630Y258355D01*
X228910Y259348D01*
X226993Y259862D01*
D02*
G37*
G36*
X262993Y258540D02*
X261007D01*
X259090Y258026D01*
X257370Y257034D01*
X255966Y255630D01*
X254974Y253910D01*
X254460Y251993D01*
Y250007D01*
X254974Y248090D01*
X255966Y246370D01*
X257370Y244967D01*
X259090Y243974D01*
X261007Y243460D01*
X262993D01*
X264910Y243974D01*
X266630Y244967D01*
X268034Y246370D01*
X269026Y248090D01*
X269540Y250007D01*
Y251993D01*
X269026Y253910D01*
X268034Y255630D01*
X266630Y257034D01*
X264910Y258026D01*
X262993Y258540D01*
D02*
G37*
G36*
X108270Y235106D02*
Y228910D01*
X114466D01*
X114026Y230550D01*
X113034Y232270D01*
X111630Y233673D01*
X109910Y234666D01*
X108270Y235106D01*
D02*
G37*
G36*
X105730D02*
X104090Y234666D01*
X102370Y233673D01*
X100967Y232270D01*
X99974Y230550D01*
X99534Y228910D01*
X105730D01*
Y235106D01*
D02*
G37*
G36*
X76096Y233784D02*
X71866D01*
Y227449D01*
X83534D01*
X83442Y228147D01*
X82682Y229981D01*
X81474Y231556D01*
X79898Y232765D01*
X78064Y233525D01*
X76096Y233784D01*
D02*
G37*
G36*
X32796D02*
X30066D01*
Y227449D01*
X40234D01*
X40142Y228147D01*
X39382Y229981D01*
X38173Y231556D01*
X36598Y232765D01*
X34764Y233525D01*
X32796Y233784D01*
D02*
G37*
G36*
X27526D02*
X24796D01*
X22828Y233525D01*
X20993Y232765D01*
X19418Y231556D01*
X18210Y229981D01*
X17450Y228147D01*
X17358Y227449D01*
X27526D01*
Y233784D01*
D02*
G37*
G36*
X66748Y246269D02*
X64444D01*
X62316Y245387D01*
X60687Y243758D01*
X59806Y241630D01*
Y239327D01*
X60687Y237199D01*
X62316Y235570D01*
X63912Y234909D01*
X63741Y233605D01*
X63127Y233525D01*
X61293Y232765D01*
X59718Y231556D01*
X58510Y229981D01*
X57750Y228147D01*
X57658Y227449D01*
X69326D01*
Y233784D01*
X67882D01*
X67629Y235054D01*
X68876Y235570D01*
X70504Y237199D01*
X71386Y239327D01*
Y241630D01*
X70504Y243758D01*
X68876Y245387D01*
X66748Y246269D01*
D02*
G37*
G36*
X345993Y241540D02*
X344007D01*
X342090Y241026D01*
X340370Y240033D01*
X338966Y238630D01*
X337974Y236910D01*
X337460Y234993D01*
Y233007D01*
X337974Y231090D01*
X338966Y229370D01*
X340370Y227966D01*
X342090Y226974D01*
X344007Y226460D01*
X345993D01*
X347910Y226974D01*
X349630Y227966D01*
X351034Y229370D01*
X352026Y231090D01*
X352540Y233007D01*
Y234993D01*
X352026Y236910D01*
X351034Y238630D01*
X349630Y240033D01*
X347910Y241026D01*
X345993Y241540D01*
D02*
G37*
G36*
X114466Y226370D02*
X108270D01*
Y220174D01*
X109910Y220614D01*
X111630Y221607D01*
X113034Y223010D01*
X114026Y224730D01*
X114466Y226370D01*
D02*
G37*
G36*
X105730D02*
X99534D01*
X99974Y224730D01*
X100967Y223010D01*
X102370Y221607D01*
X104090Y220614D01*
X105730Y220174D01*
Y226370D01*
D02*
G37*
G36*
X83534Y224909D02*
X71866D01*
Y218574D01*
X76096D01*
X78064Y218833D01*
X79898Y219592D01*
X81474Y220801D01*
X82682Y222376D01*
X83442Y224210D01*
X83534Y224909D01*
D02*
G37*
G36*
X69326D02*
X57658D01*
X57750Y224210D01*
X58510Y222376D01*
X59718Y220801D01*
X61293Y219592D01*
X63127Y218833D01*
X65096Y218574D01*
X69326D01*
Y224909D01*
D02*
G37*
G36*
X40234D02*
X30066D01*
Y218574D01*
X32796D01*
X34764Y218833D01*
X36598Y219592D01*
X38173Y220801D01*
X39382Y222376D01*
X40142Y224210D01*
X40234Y224909D01*
D02*
G37*
G36*
X27526D02*
X17358D01*
X17450Y224210D01*
X18210Y222376D01*
X19418Y220801D01*
X20993Y219592D01*
X22828Y218833D01*
X24796Y218574D01*
X27526D01*
Y224909D01*
D02*
G37*
G36*
X211630Y223466D02*
Y217270D01*
X217826D01*
X217386Y218910D01*
X216394Y220630D01*
X214990Y222034D01*
X213270Y223026D01*
X211630Y223466D01*
D02*
G37*
G36*
X209090D02*
X207450Y223026D01*
X205730Y222034D01*
X204326Y220630D01*
X203334Y218910D01*
X202894Y217270D01*
X209090D01*
Y223466D01*
D02*
G37*
G36*
X265783Y230343D02*
X263797D01*
X261880Y229830D01*
X260160Y228837D01*
X258757Y227433D01*
X257764Y225714D01*
X257250Y223796D01*
Y221811D01*
X257764Y219893D01*
X258757Y218174D01*
X260160Y216770D01*
X261880Y215777D01*
X263797Y215264D01*
X265783D01*
X267700Y215777D01*
X269420Y216770D01*
X270823Y218174D01*
X271816Y219893D01*
X272330Y221811D01*
Y223796D01*
X271816Y225714D01*
X270823Y227433D01*
X269420Y228837D01*
X267700Y229830D01*
X265783Y230343D01*
D02*
G37*
G36*
X217826Y214730D02*
X211630D01*
Y208534D01*
X213270Y208974D01*
X214990Y209967D01*
X216394Y211370D01*
X217386Y213090D01*
X217826Y214730D01*
D02*
G37*
G36*
X209090D02*
X202894D01*
X203334Y213090D01*
X204326Y211370D01*
X205730Y209967D01*
X207450Y208974D01*
X209090Y208534D01*
Y214730D01*
D02*
G37*
G36*
X184633Y223540D02*
X182647D01*
X180730Y223026D01*
X179010Y222034D01*
X177607Y220630D01*
X176614Y218910D01*
X176100Y216993D01*
Y215007D01*
X176614Y213090D01*
X177607Y211370D01*
X179010Y209967D01*
X180730Y208974D01*
X182647Y208460D01*
X184633D01*
X186550Y208974D01*
X188270Y209967D01*
X189674Y211370D01*
X190666Y213090D01*
X191180Y215007D01*
Y216993D01*
X190666Y218910D01*
X189674Y220630D01*
X188270Y222034D01*
X186550Y223026D01*
X184633Y223540D01*
D02*
G37*
G36*
X240270Y214465D02*
Y208270D01*
X246465D01*
X246026Y209910D01*
X245033Y211629D01*
X243629Y213033D01*
X241910Y214026D01*
X240270Y214465D01*
D02*
G37*
G36*
X237729D02*
X236089Y214026D01*
X234370Y213033D01*
X232966Y211629D01*
X231973Y209910D01*
X231534Y208270D01*
X237729D01*
Y214465D01*
D02*
G37*
G36*
X292993Y217540D02*
X291007D01*
X289090Y217026D01*
X287370Y216033D01*
X285966Y214630D01*
X284974Y212910D01*
X284460Y210993D01*
Y209007D01*
X284974Y207090D01*
X285966Y205370D01*
X287370Y203967D01*
X289090Y202974D01*
X291007Y202460D01*
X292993D01*
X294910Y202974D01*
X296630Y203967D01*
X298034Y205370D01*
X299026Y207090D01*
X299540Y209007D01*
Y210993D01*
X299026Y212910D01*
X298034Y214630D01*
X296630Y216033D01*
X294910Y217026D01*
X292993Y217540D01*
D02*
G37*
G36*
X246465Y205730D02*
X240270D01*
Y199534D01*
X241910Y199973D01*
X243629Y200966D01*
X245033Y202370D01*
X246026Y204089D01*
X246465Y205730D01*
D02*
G37*
G36*
X237729D02*
X231534D01*
X231973Y204089D01*
X232966Y202370D01*
X234370Y200966D01*
X236089Y199973D01*
X237729Y199534D01*
Y205730D01*
D02*
G37*
G36*
X73993Y212540D02*
X72007D01*
X70090Y212026D01*
X68370Y211033D01*
X66967Y209630D01*
X65974Y207910D01*
X65460Y205993D01*
Y204007D01*
X65974Y202090D01*
X66967Y200370D01*
X68370Y198967D01*
X70090Y197974D01*
X72007Y197460D01*
X73993D01*
X75910Y197974D01*
X77630Y198967D01*
X79033Y200370D01*
X80026Y202090D01*
X80540Y204007D01*
Y205993D01*
X80026Y207910D01*
X79033Y209630D01*
X77630Y211033D01*
X75910Y212026D01*
X73993Y212540D01*
D02*
G37*
G36*
X91703Y211540D02*
X89717D01*
X87800Y211026D01*
X86080Y210033D01*
X84677Y208630D01*
X83684Y206910D01*
X83170Y204993D01*
Y203007D01*
X83684Y201090D01*
X84677Y199370D01*
X86080Y197966D01*
X87800Y196974D01*
X89717Y196460D01*
X91703D01*
X93620Y196974D01*
X95340Y197966D01*
X96743Y199370D01*
X97736Y201090D01*
X98250Y203007D01*
Y204993D01*
X97736Y206910D01*
X96743Y208630D01*
X95340Y210033D01*
X93620Y211026D01*
X91703Y211540D01*
D02*
G37*
G36*
X337993Y206540D02*
X336007D01*
X334090Y206026D01*
X332370Y205033D01*
X330966Y203630D01*
X329974Y201910D01*
X329460Y199993D01*
Y198007D01*
X329974Y196090D01*
X330966Y194370D01*
X332370Y192966D01*
X334090Y191974D01*
X336007Y191460D01*
X337993D01*
X339910Y191974D01*
X341630Y192966D01*
X343033Y194370D01*
X344026Y196090D01*
X344540Y198007D01*
Y199993D01*
X344026Y201910D01*
X343033Y203630D01*
X341630Y205033D01*
X339910Y206026D01*
X337993Y206540D01*
D02*
G37*
G36*
X266993Y204540D02*
X265007D01*
X263090Y204026D01*
X261370Y203034D01*
X259967Y201630D01*
X258974Y199910D01*
X258460Y197993D01*
Y196007D01*
X258974Y194090D01*
X259967Y192370D01*
X261370Y190966D01*
X263090Y189974D01*
X265007Y189460D01*
X266993D01*
X268910Y189974D01*
X270630Y190966D01*
X272034Y192370D01*
X273026Y194090D01*
X273540Y196007D01*
Y197993D01*
X273026Y199910D01*
X272034Y201630D01*
X270630Y203034D01*
X268910Y204026D01*
X266993Y204540D01*
D02*
G37*
G36*
X354993Y204000D02*
X353007D01*
X351090Y203486D01*
X349370Y202493D01*
X347966Y201090D01*
X346974Y199370D01*
X346460Y197453D01*
Y195467D01*
X346974Y193550D01*
X347966Y191830D01*
X349370Y190427D01*
X351090Y189434D01*
X353007Y188920D01*
X354993D01*
X356910Y189434D01*
X358630Y190427D01*
X360033Y191830D01*
X361026Y193550D01*
X361540Y195467D01*
Y197453D01*
X361026Y199370D01*
X360033Y201090D01*
X358630Y202493D01*
X356910Y203486D01*
X354993Y204000D01*
D02*
G37*
G36*
X199993Y199540D02*
X198007D01*
X196090Y199026D01*
X194370Y198034D01*
X192966Y196630D01*
X191974Y194910D01*
X191460Y192993D01*
Y191007D01*
X191974Y189090D01*
X192966Y187370D01*
X194370Y185966D01*
X196090Y184974D01*
X198007Y184460D01*
X199993D01*
X201910Y184974D01*
X203630Y185966D01*
X205033Y187370D01*
X206026Y189090D01*
X206540Y191007D01*
Y192993D01*
X206026Y194910D01*
X205033Y196630D01*
X203630Y198034D01*
X201910Y199026D01*
X199993Y199540D01*
D02*
G37*
G36*
X313768Y185087D02*
X311783D01*
X309865Y184573D01*
X308146Y183580D01*
X306742Y182177D01*
X305749Y180457D01*
X305236Y178540D01*
Y176554D01*
X305749Y174637D01*
X306742Y172917D01*
X308146Y171513D01*
X309865Y170521D01*
X311783Y170007D01*
X313768D01*
X315686Y170521D01*
X317405Y171513D01*
X318809Y172917D01*
X319802Y174637D01*
X320316Y176554D01*
Y178540D01*
X319802Y180457D01*
X318809Y182177D01*
X317405Y183580D01*
X315686Y184573D01*
X313768Y185087D01*
D02*
G37*
G36*
X322993Y166540D02*
X321007D01*
X319090Y166026D01*
X317370Y165033D01*
X315966Y163630D01*
X314974Y161910D01*
X314460Y159993D01*
Y158007D01*
X314974Y156090D01*
X315966Y154370D01*
X317370Y152966D01*
X319090Y151974D01*
X321007Y151460D01*
X322993D01*
X324910Y151974D01*
X326630Y152966D01*
X328033Y154370D01*
X329026Y156090D01*
X329540Y158007D01*
Y159993D01*
X329026Y161910D01*
X328033Y163630D01*
X326630Y165033D01*
X324910Y166026D01*
X322993Y166540D01*
D02*
G37*
G36*
X152910Y157466D02*
Y151270D01*
X159106D01*
X158666Y152910D01*
X157674Y154630D01*
X156270Y156033D01*
X154550Y157026D01*
X152910Y157466D01*
D02*
G37*
G36*
X150370D02*
X148730Y157026D01*
X147010Y156033D01*
X145606Y154630D01*
X144614Y152910D01*
X144174Y151270D01*
X150370D01*
Y157466D01*
D02*
G37*
G36*
X89400Y180114D02*
X87171Y179820D01*
X85093Y178960D01*
X83309Y177591D01*
X81940Y175807D01*
X81080Y173729D01*
X80786Y171500D01*
Y158500D01*
X81080Y156271D01*
X81940Y154193D01*
X83309Y152409D01*
X85093Y151040D01*
X87171Y150180D01*
X89400Y149886D01*
X91629Y150180D01*
X93707Y151040D01*
X95491Y152409D01*
X96860Y154193D01*
X97720Y156271D01*
X98014Y158500D01*
Y171500D01*
X97720Y173729D01*
X96860Y175807D01*
X95491Y177591D01*
X93707Y178960D01*
X91629Y179820D01*
X89400Y180114D01*
D02*
G37*
G36*
X64000D02*
X61771Y179820D01*
X59693Y178960D01*
X57909Y177591D01*
X56540Y175807D01*
X55680Y173729D01*
X55386Y171500D01*
Y158500D01*
X55680Y156271D01*
X56540Y154193D01*
X57909Y152409D01*
X59693Y151040D01*
X61771Y150180D01*
X64000Y149886D01*
X66229Y150180D01*
X68307Y151040D01*
X70091Y152409D01*
X71460Y154193D01*
X72320Y156271D01*
X72614Y158500D01*
Y171500D01*
X72320Y173729D01*
X71460Y175807D01*
X70091Y177591D01*
X68307Y178960D01*
X66229Y179820D01*
X64000Y180114D01*
D02*
G37*
G36*
X38600D02*
X36371Y179820D01*
X34293Y178960D01*
X32509Y177591D01*
X31140Y175807D01*
X30280Y173729D01*
X29986Y171500D01*
Y158500D01*
X30280Y156271D01*
X31140Y154193D01*
X32509Y152409D01*
X34293Y151040D01*
X36371Y150180D01*
X38600Y149886D01*
X40829Y150180D01*
X42907Y151040D01*
X44691Y152409D01*
X46060Y154193D01*
X46920Y156271D01*
X47214Y158500D01*
Y171500D01*
X46920Y173729D01*
X46060Y175807D01*
X44691Y177591D01*
X42907Y178960D01*
X40829Y179820D01*
X38600Y180114D01*
D02*
G37*
G36*
X13200D02*
X10971Y179820D01*
X8893Y178960D01*
X7109Y177591D01*
X5740Y175807D01*
X4880Y173729D01*
X4586Y171500D01*
Y158500D01*
X4880Y156271D01*
X5740Y154193D01*
X7109Y152409D01*
X8893Y151040D01*
X10971Y150180D01*
X13200Y149886D01*
X15429Y150180D01*
X17507Y151040D01*
X19291Y152409D01*
X20660Y154193D01*
X21520Y156271D01*
X21814Y158500D01*
Y171500D01*
X21520Y173729D01*
X20660Y175807D01*
X19291Y177591D01*
X17507Y178960D01*
X15429Y179820D01*
X13200Y180114D01*
D02*
G37*
G36*
X340993Y164650D02*
X339007D01*
X337090Y164136D01*
X335370Y163144D01*
X333966Y161740D01*
X332974Y160020D01*
X332460Y158103D01*
Y156117D01*
X332974Y154200D01*
X333966Y152480D01*
X335370Y151076D01*
X337090Y150084D01*
X339007Y149570D01*
X340993D01*
X342910Y150084D01*
X344630Y151076D01*
X346034Y152480D01*
X347026Y154200D01*
X347540Y156117D01*
Y158103D01*
X347026Y160020D01*
X346034Y161740D01*
X344630Y163144D01*
X342910Y164136D01*
X340993Y164650D01*
D02*
G37*
G36*
X280921Y155477D02*
Y149281D01*
X287117D01*
X286677Y150921D01*
X285685Y152641D01*
X284281Y154045D01*
X282561Y155037D01*
X280921Y155477D01*
D02*
G37*
G36*
X278381D02*
X276741Y155037D01*
X275021Y154045D01*
X273618Y152641D01*
X272625Y150921D01*
X272185Y149281D01*
X278381D01*
Y155477D01*
D02*
G37*
G36*
X236270Y155466D02*
Y149270D01*
X242466D01*
X242026Y150910D01*
X241033Y152630D01*
X239630Y154033D01*
X237910Y155026D01*
X236270Y155466D01*
D02*
G37*
G36*
X233730D02*
X232090Y155026D01*
X230370Y154033D01*
X228967Y152630D01*
X227974Y150910D01*
X227534Y149270D01*
X233730D01*
Y155466D01*
D02*
G37*
G36*
X389993Y159540D02*
X388007D01*
X386090Y159026D01*
X384370Y158034D01*
X382966Y156630D01*
X381974Y154910D01*
X381460Y152993D01*
Y151007D01*
X381974Y149090D01*
X382966Y147370D01*
X384370Y145967D01*
X386090Y144974D01*
X388007Y144460D01*
X389993D01*
X391910Y144974D01*
X393630Y145967D01*
X395033Y147370D01*
X396026Y149090D01*
X396540Y151007D01*
Y152993D01*
X396026Y154910D01*
X395033Y156630D01*
X393630Y158034D01*
X391910Y159026D01*
X389993Y159540D01*
D02*
G37*
G36*
X159106Y148730D02*
X152910D01*
Y142534D01*
X154550Y142974D01*
X156270Y143967D01*
X157674Y145370D01*
X158666Y147090D01*
X159106Y148730D01*
D02*
G37*
G36*
X150370D02*
X144174D01*
X144614Y147090D01*
X145606Y145370D01*
X147010Y143967D01*
X148730Y142974D01*
X150370Y142534D01*
Y148730D01*
D02*
G37*
G36*
X207993Y156540D02*
X206007D01*
X204090Y156026D01*
X202370Y155034D01*
X200966Y153630D01*
X199974Y151910D01*
X199460Y149993D01*
Y148007D01*
X199974Y146090D01*
X200966Y144370D01*
X202370Y142966D01*
X204090Y141974D01*
X206007Y141460D01*
X207993D01*
X209910Y141974D01*
X211630Y142966D01*
X213034Y144370D01*
X214026Y146090D01*
X214540Y148007D01*
Y149993D01*
X214026Y151910D01*
X213034Y153630D01*
X211630Y155034D01*
X209910Y156026D01*
X207993Y156540D01*
D02*
G37*
G36*
X179286Y156384D02*
X177301D01*
X175383Y155870D01*
X173664Y154878D01*
X172260Y153474D01*
X171267Y151754D01*
X170753Y149837D01*
Y147851D01*
X171267Y145934D01*
X172260Y144214D01*
X173664Y142810D01*
X175383Y141818D01*
X177301Y141304D01*
X179286D01*
X181204Y141818D01*
X182923Y142810D01*
X184327Y144214D01*
X185319Y145934D01*
X185833Y147851D01*
Y149837D01*
X185319Y151754D01*
X184327Y153474D01*
X182923Y154878D01*
X181204Y155870D01*
X179286Y156384D01*
D02*
G37*
G36*
X287117Y146741D02*
X280921D01*
Y140545D01*
X282561Y140985D01*
X284281Y141978D01*
X285685Y143381D01*
X286677Y145101D01*
X287117Y146741D01*
D02*
G37*
G36*
X278381D02*
X272185D01*
X272625Y145101D01*
X273618Y143381D01*
X275021Y141978D01*
X276741Y140985D01*
X278381Y140545D01*
Y146741D01*
D02*
G37*
G36*
X242466Y146730D02*
X236270D01*
Y140534D01*
X237910Y140974D01*
X239630Y141966D01*
X241033Y143370D01*
X242026Y145090D01*
X242466Y146730D01*
D02*
G37*
G36*
X233730D02*
X227534D01*
X227974Y145090D01*
X228967Y143370D01*
X230370Y141966D01*
X232090Y140974D01*
X233730Y140534D01*
Y146730D01*
D02*
G37*
G36*
X306949Y155606D02*
X304963D01*
X303046Y155092D01*
X301326Y154100D01*
X299923Y152696D01*
X298930Y150976D01*
X298416Y149059D01*
Y147073D01*
X298930Y145156D01*
X299923Y143436D01*
X301326Y142033D01*
X303046Y141040D01*
X304963Y140526D01*
X306949D01*
X308866Y141040D01*
X310586Y142033D01*
X311990Y143436D01*
X312982Y145156D01*
X313496Y147073D01*
Y149059D01*
X312982Y150976D01*
X311990Y152696D01*
X310586Y154100D01*
X308866Y155092D01*
X306949Y155606D01*
D02*
G37*
G36*
X41993Y145540D02*
X40007D01*
X38090Y145026D01*
X36370Y144033D01*
X34966Y142630D01*
X33974Y140910D01*
X33460Y138993D01*
Y137007D01*
X33974Y135090D01*
X34966Y133370D01*
X36370Y131966D01*
X38090Y130974D01*
X40007Y130460D01*
X41993D01*
X43910Y130974D01*
X45630Y131966D01*
X47034Y133370D01*
X48026Y135090D01*
X48540Y137007D01*
Y138993D01*
X48026Y140910D01*
X47034Y142630D01*
X45630Y144033D01*
X43910Y145026D01*
X41993Y145540D01*
D02*
G37*
G36*
X390270Y135466D02*
Y129270D01*
X396466D01*
X396026Y130910D01*
X395033Y132630D01*
X393630Y134033D01*
X391910Y135026D01*
X390270Y135466D01*
D02*
G37*
G36*
X387730D02*
X386090Y135026D01*
X384370Y134033D01*
X382966Y132630D01*
X381974Y130910D01*
X381534Y129270D01*
X387730D01*
Y135466D01*
D02*
G37*
G36*
X110993Y155540D02*
X109007D01*
X107090Y155026D01*
X105370Y154033D01*
X103967Y152630D01*
X102974Y150910D01*
X102460Y148993D01*
Y147007D01*
X102974Y145090D01*
X103967Y143370D01*
X105370Y141966D01*
X105944Y141635D01*
Y140365D01*
X105370Y140034D01*
X103967Y138630D01*
X102974Y136910D01*
X102460Y134993D01*
Y133007D01*
X102974Y131090D01*
X103967Y129370D01*
X105370Y127966D01*
X107090Y126974D01*
X109007Y126460D01*
X110993D01*
X112910Y126974D01*
X114630Y127966D01*
X116033Y129370D01*
X117026Y131090D01*
X117540Y133007D01*
Y134993D01*
X117026Y136910D01*
X116033Y138630D01*
X114630Y140034D01*
X114056Y140365D01*
Y141635D01*
X114630Y141966D01*
X116033Y143370D01*
X117026Y145090D01*
X117540Y147007D01*
Y148993D01*
X117026Y150910D01*
X116033Y152630D01*
X114630Y154033D01*
X112910Y155026D01*
X110993Y155540D01*
D02*
G37*
G36*
X345993Y140540D02*
X344007D01*
X342090Y140026D01*
X340370Y139033D01*
X338966Y137630D01*
X337974Y135910D01*
X337460Y133993D01*
Y132007D01*
X337974Y130090D01*
X338966Y128370D01*
X340370Y126966D01*
X342090Y125974D01*
X344007Y125460D01*
X345993D01*
X347910Y125974D01*
X349630Y126966D01*
X351034Y128370D01*
X352026Y130090D01*
X352540Y132007D01*
Y133993D01*
X352026Y135910D01*
X351034Y137630D01*
X349630Y139033D01*
X347910Y140026D01*
X345993Y140540D01*
D02*
G37*
G36*
X260270Y129576D02*
Y123380D01*
X266466D01*
X266026Y125020D01*
X265033Y126740D01*
X263630Y128144D01*
X261910Y129136D01*
X260270Y129576D01*
D02*
G37*
G36*
X257730D02*
X256090Y129136D01*
X254370Y128144D01*
X252966Y126740D01*
X251974Y125020D01*
X251534Y123380D01*
X257730D01*
Y129576D01*
D02*
G37*
G36*
X396466Y126730D02*
X390270D01*
Y120534D01*
X391910Y120974D01*
X393630Y121966D01*
X395033Y123370D01*
X396026Y125090D01*
X396466Y126730D01*
D02*
G37*
G36*
X387730D02*
X381534D01*
X381974Y125090D01*
X382966Y123370D01*
X384370Y121966D01*
X386090Y120974D01*
X387730Y120534D01*
Y126730D01*
D02*
G37*
G36*
X266466Y120840D02*
X260270D01*
Y114644D01*
X261910Y115084D01*
X263630Y116076D01*
X265033Y117480D01*
X266026Y119200D01*
X266466Y120840D01*
D02*
G37*
G36*
X257730D02*
X251534D01*
X251974Y119200D01*
X252966Y117480D01*
X254370Y116076D01*
X256090Y115084D01*
X257730Y114644D01*
Y120840D01*
D02*
G37*
G36*
X335270Y112356D02*
Y106160D01*
X341466D01*
X341026Y107800D01*
X340033Y109520D01*
X338630Y110924D01*
X336910Y111916D01*
X335270Y112356D01*
D02*
G37*
G36*
X332730D02*
X331090Y111916D01*
X329370Y110924D01*
X327966Y109520D01*
X326974Y107800D01*
X326534Y106160D01*
X332730D01*
Y112356D01*
D02*
G37*
G36*
X188711Y108856D02*
Y102660D01*
X194907D01*
X194467Y104301D01*
X193475Y106020D01*
X192071Y107424D01*
X190351Y108417D01*
X188711Y108856D01*
D02*
G37*
G36*
X186171D02*
X184531Y108417D01*
X182811Y107424D01*
X181408Y106020D01*
X180415Y104301D01*
X179975Y102660D01*
X186171D01*
Y108856D01*
D02*
G37*
G36*
X341466Y103620D02*
X335270D01*
Y97424D01*
X336910Y97864D01*
X338630Y98856D01*
X340033Y100260D01*
X341026Y101980D01*
X341466Y103620D01*
D02*
G37*
G36*
X332730D02*
X326534D01*
X326974Y101980D01*
X327966Y100260D01*
X329370Y98856D01*
X331090Y97864D01*
X332730Y97424D01*
Y103620D01*
D02*
G37*
G36*
X156453Y109071D02*
X154468D01*
X152550Y108557D01*
X150831Y107564D01*
X149427Y106160D01*
X148434Y104441D01*
X147921Y102523D01*
Y100538D01*
X148434Y98620D01*
X149427Y96901D01*
X150831Y95497D01*
X152550Y94504D01*
X154468Y93990D01*
X156453D01*
X158371Y94504D01*
X160090Y95497D01*
X161494Y96901D01*
X162487Y98620D01*
X163001Y100538D01*
Y102523D01*
X162487Y104441D01*
X161494Y106160D01*
X160090Y107564D01*
X158371Y108557D01*
X156453Y109071D01*
D02*
G37*
G36*
X194907Y100120D02*
X188711D01*
Y93925D01*
X190351Y94364D01*
X192071Y95357D01*
X193475Y96761D01*
X194467Y98480D01*
X194907Y100120D01*
D02*
G37*
G36*
X186171D02*
X179975D01*
X180415Y98480D01*
X181408Y96761D01*
X182811Y95357D01*
X184531Y94364D01*
X186171Y93925D01*
Y100120D01*
D02*
G37*
G36*
X277270Y95466D02*
Y89270D01*
X283466D01*
X283026Y90910D01*
X282034Y92630D01*
X280630Y94033D01*
X278910Y95026D01*
X277270Y95466D01*
D02*
G37*
G36*
X274730D02*
X273090Y95026D01*
X271370Y94033D01*
X269967Y92630D01*
X268974Y90910D01*
X268534Y89270D01*
X274730D01*
Y95466D01*
D02*
G37*
G36*
X283466Y86730D02*
X277270D01*
Y80534D01*
X278910Y80974D01*
X280630Y81966D01*
X282034Y83370D01*
X283026Y85090D01*
X283466Y86730D01*
D02*
G37*
G36*
X274730D02*
X268534D01*
X268974Y85090D01*
X269967Y83370D01*
X271370Y81966D01*
X273090Y80974D01*
X274730Y80534D01*
Y86730D01*
D02*
G37*
G36*
X348993Y76540D02*
X347007D01*
X345090Y76026D01*
X343370Y75033D01*
X341967Y73630D01*
X340974Y71910D01*
X340460Y69993D01*
Y68007D01*
X340974Y66090D01*
X341967Y64370D01*
X343370Y62966D01*
X345090Y61974D01*
X347007Y61460D01*
X348993D01*
X350910Y61974D01*
X352630Y62966D01*
X354034Y64370D01*
X355026Y66090D01*
X355540Y68007D01*
Y69993D01*
X355026Y71910D01*
X354034Y73630D01*
X352630Y75033D01*
X350910Y76026D01*
X348993Y76540D01*
D02*
G37*
G36*
X21740Y53040D02*
X14470D01*
Y39270D01*
X21740D01*
Y53040D01*
D02*
G37*
G36*
X11930D02*
X4660D01*
Y39270D01*
X11930D01*
Y53040D01*
D02*
G37*
G36*
X385853Y45258D02*
X383867D01*
X381950Y44744D01*
X380230Y43751D01*
X378826Y42347D01*
X377834Y40628D01*
X377320Y38710D01*
Y36725D01*
X377834Y34807D01*
X378826Y33088D01*
X380230Y31684D01*
X381950Y30691D01*
X383867Y30178D01*
X385853D01*
X387770Y30691D01*
X389490Y31684D01*
X390894Y33088D01*
X391886Y34807D01*
X392400Y36725D01*
Y38710D01*
X391886Y40628D01*
X390894Y42347D01*
X389490Y43751D01*
X387770Y44744D01*
X385853Y45258D01*
D02*
G37*
G36*
X21740Y36730D02*
X14470D01*
Y22960D01*
X21740D01*
Y36730D01*
D02*
G37*
G36*
X11930D02*
X4660D01*
Y22960D01*
X11930D01*
Y36730D01*
D02*
G37*
G36*
X89400Y53114D02*
X87171Y52820D01*
X85093Y51960D01*
X83309Y50591D01*
X81940Y48807D01*
X81080Y46729D01*
X80786Y44500D01*
Y31500D01*
X81080Y29271D01*
X81940Y27193D01*
X83309Y25409D01*
X85093Y24040D01*
X87171Y23180D01*
X89400Y22886D01*
X91629Y23180D01*
X93707Y24040D01*
X95491Y25409D01*
X96860Y27193D01*
X97720Y29271D01*
X98014Y31500D01*
Y44500D01*
X97720Y46729D01*
X96860Y48807D01*
X95491Y50591D01*
X93707Y51960D01*
X91629Y52820D01*
X89400Y53114D01*
D02*
G37*
G36*
X64000D02*
X61771Y52820D01*
X59693Y51960D01*
X57909Y50591D01*
X56540Y48807D01*
X55680Y46729D01*
X55386Y44500D01*
Y31500D01*
X55680Y29271D01*
X56540Y27193D01*
X57909Y25409D01*
X59693Y24040D01*
X61771Y23180D01*
X64000Y22886D01*
X66229Y23180D01*
X68307Y24040D01*
X70091Y25409D01*
X71460Y27193D01*
X72320Y29271D01*
X72614Y31500D01*
Y44500D01*
X72320Y46729D01*
X71460Y48807D01*
X70091Y50591D01*
X68307Y51960D01*
X66229Y52820D01*
X64000Y53114D01*
D02*
G37*
G36*
X38600D02*
X36371Y52820D01*
X34293Y51960D01*
X32509Y50591D01*
X31140Y48807D01*
X30280Y46729D01*
X29986Y44500D01*
Y31500D01*
X30280Y29271D01*
X31140Y27193D01*
X32509Y25409D01*
X34293Y24040D01*
X36371Y23180D01*
X38600Y22886D01*
X40829Y23180D01*
X42907Y24040D01*
X44691Y25409D01*
X46060Y27193D01*
X46920Y29271D01*
X47214Y31500D01*
Y44500D01*
X46920Y46729D01*
X46060Y48807D01*
X44691Y50591D01*
X42907Y51960D01*
X40829Y52820D01*
X38600Y53114D01*
D02*
G37*
G36*
X403270Y19466D02*
Y13270D01*
X409466D01*
X409026Y14910D01*
X408033Y16630D01*
X406630Y18033D01*
X404910Y19026D01*
X403270Y19466D01*
D02*
G37*
G36*
X400730D02*
X399090Y19026D01*
X397370Y18033D01*
X395966Y16630D01*
X394974Y14910D01*
X394534Y13270D01*
X400730D01*
Y19466D01*
D02*
G37*
%LPD*%
D50*
X70596Y226179D02*
D03*
Y312579D02*
D03*
D51*
X28796Y226179D02*
D03*
Y312579D02*
D03*
D62*
X13200Y38000D02*
D03*
D65*
X50200Y382700D02*
D03*
Y370000D02*
D03*
D66*
X134191Y364460D02*
D03*
X140378Y275000D02*
D03*
X107000Y227640D02*
D03*
X389000Y128000D02*
D03*
X279651Y148011D02*
D03*
X184360Y354000D02*
D03*
X187441Y101390D02*
D03*
X361000Y278000D02*
D03*
X276000Y88000D02*
D03*
X402000Y12000D02*
D03*
X151640Y150000D02*
D03*
X235000Y148000D02*
D03*
X334000Y104890D02*
D03*
X239000Y207000D02*
D03*
X210360Y216000D02*
D03*
X338210Y298676D02*
D03*
X398000Y354000D02*
D03*
X400890Y277000D02*
D03*
X259000Y122110D02*
D03*
M02*
