M48
;Layer_Color=9474304
;FILE_FORMAT=2:5
INCH,TZ
;TYPE=PLATED
T1F00S00C0.01968
T3F00S00C0.02756
T4F00S00C0.03150
;TYPE=NON_PLATED
T5F00S00C0.02559
%
T01
X16142Y54331
X43307Y52756
X61205Y39973
X73796Y39917
X101969Y48075
X108661Y34646
X131496Y41295
X135827Y52362
X153150Y50394
X151520Y14850
X146457Y4331
X158268Y4724
X137008Y27165
X133858Y61854
X126772Y62598
X120455Y58294
X110099Y58272
X92520Y58268
X81496Y58661
X70194Y58600
X59701Y59055
X78347Y75590
X82819Y85039
X72299
X74803Y105118
X75590Y110630
X74803Y118427
X87353Y121973
X107299Y123047
X112614Y122063
X105512Y115748
X109584Y109266
X109449Y104331
X103150Y98819
X104248Y87718
X104724Y77559
X95669Y83716
X114961Y82677
X123140Y69900
X132677Y78347
X139370Y77346
X135827Y92126
X142126Y109449
X157831Y109055
X156693Y139370
X135827Y153150
X133154Y117589
X103150Y137008
X72583Y139370
X62205Y147638
X82384Y100210
X88976Y99339
X153150Y59842
X43307Y58268
X35713Y80315
X28740Y80709
X42126Y89622
X40542Y100000
X40551Y119291
X55267Y108268
X52831Y143488
X11772Y108334
Y103150
T03
X14764Y135669
Y140669
Y145669
Y150669
Y155669
X19764
Y150669
Y145669
Y140669
Y135669
T04
X5197Y14961
X15197
X25197
X35197
Y64961
X25197
X15197
X5197
T05
X25825Y94677
Y117432
M30
