G04*
G04 #@! TF.GenerationSoftware,Altium Limited,Altium Designer,22.5.1 (42)*
G04*
G04 Layer_Color=8388736*
%FSLAX44Y44*%
%MOMM*%
G71*
G04*
G04 #@! TF.SameCoordinates,0A4DFAF1-6218-4570-9C88-57A128791E20*
G04*
G04*
G04 #@! TF.FilePolarity,Negative*
G04*
G01*
G75*
%ADD22R,1.1500X0.6000*%
%ADD23R,1.1500X0.3000*%
%ADD34O,0.8532X1.4532*%
%ADD35R,0.8532X1.4532*%
%ADD36R,1.8532X1.1032*%
%ADD37R,1.7272X0.5334*%
%ADD38R,0.5334X1.7272*%
%ADD39R,2.0232X1.6432*%
%ADD40R,1.1032X1.8532*%
%ADD41R,1.6032X1.2032*%
%ADD42R,1.3032X0.5032*%
%ADD43R,3.3032X2.5032*%
G04:AMPARAMS|DCode=44|XSize=3.4532mm|YSize=2.2532mm|CornerRadius=0.1529mm|HoleSize=0mm|Usage=FLASHONLY|Rotation=270.000|XOffset=0mm|YOffset=0mm|HoleType=Round|Shape=RoundedRectangle|*
%AMROUNDEDRECTD44*
21,1,3.4532,1.9475,0,0,270.0*
21,1,3.1475,2.2532,0,0,270.0*
1,1,0.3057,-0.9738,-1.5738*
1,1,0.3057,-0.9738,1.5738*
1,1,0.3057,0.9738,1.5738*
1,1,0.3057,0.9738,-1.5738*
%
%ADD44ROUNDEDRECTD44*%
G04:AMPARAMS|DCode=45|XSize=1.2032mm|YSize=2.2532mm|CornerRadius=0.1516mm|HoleSize=0mm|Usage=FLASHONLY|Rotation=270.000|XOffset=0mm|YOffset=0mm|HoleType=Round|Shape=RoundedRectangle|*
%AMROUNDEDRECTD45*
21,1,1.2032,1.9500,0,0,270.0*
21,1,0.9000,2.2532,0,0,270.0*
1,1,0.3032,-0.9750,-0.4500*
1,1,0.3032,-0.9750,0.4500*
1,1,0.3032,0.9750,0.4500*
1,1,0.3032,0.9750,-0.4500*
%
%ADD45ROUNDEDRECTD45*%
%ADD46R,1.5532X2.1032*%
%ADD47R,1.6432X2.0232*%
%ADD48R,1.2032X1.1732*%
%ADD49C,0.6500*%
G04:AMPARAMS|DCode=50|XSize=1mm|YSize=2.1mm|CornerRadius=0.5mm|HoleSize=0mm|Usage=FLASHONLY|Rotation=270.000|XOffset=0mm|YOffset=0mm|HoleType=Round|Shape=RoundedRectangle|*
%AMROUNDEDRECTD50*
21,1,1.0000,1.1000,0,0,270.0*
21,1,0.0000,2.1000,0,0,270.0*
1,1,1.0000,-0.5500,0.0000*
1,1,1.0000,-0.5500,0.0000*
1,1,1.0000,0.5500,0.0000*
1,1,1.0000,0.5500,0.0000*
%
%ADD50ROUNDEDRECTD50*%
G04:AMPARAMS|DCode=51|XSize=1mm|YSize=1.8mm|CornerRadius=0.5mm|HoleSize=0mm|Usage=FLASHONLY|Rotation=270.000|XOffset=0mm|YOffset=0mm|HoleType=Round|Shape=RoundedRectangle|*
%AMROUNDEDRECTD51*
21,1,1.0000,0.8000,0,0,270.0*
21,1,0.0000,1.8000,0,0,270.0*
1,1,1.0000,-0.4000,0.0000*
1,1,1.0000,-0.4000,0.0000*
1,1,1.0000,0.4000,0.0000*
1,1,1.0000,0.4000,0.0000*
%
%ADD51ROUNDEDRECTD51*%
%ADD52R,1.4032X2.7032*%
%ADD53O,1.4032X2.7032*%
%ADD54R,1.3032X1.3032*%
%ADD55C,1.3032*%
%ADD56C,1.2032*%
D22*
X76346Y237379D02*
D03*
Y301379D02*
D03*
Y245379D02*
D03*
Y293379D02*
D03*
D23*
Y251879D02*
D03*
Y256879D02*
D03*
Y261879D02*
D03*
Y266879D02*
D03*
Y271879D02*
D03*
Y276879D02*
D03*
Y281879D02*
D03*
Y286879D02*
D03*
D34*
X228340Y58172D02*
D03*
X206840Y99672D02*
D03*
X228340D02*
D03*
D35*
X206840Y58172D02*
D03*
D36*
X253254Y63404D02*
D03*
Y31104D02*
D03*
X170746Y121896D02*
D03*
Y89596D02*
D03*
X402000Y30700D02*
D03*
Y63000D02*
D03*
X323000Y120000D02*
D03*
Y87700D02*
D03*
D37*
X155284Y310284D02*
D03*
Y305284D02*
D03*
Y300284D02*
D03*
Y295284D02*
D03*
Y290284D02*
D03*
Y285284D02*
D03*
Y280284D02*
D03*
Y275284D02*
D03*
Y270284D02*
D03*
Y265284D02*
D03*
Y260284D02*
D03*
Y255284D02*
D03*
Y250284D02*
D03*
Y245284D02*
D03*
Y240284D02*
D03*
Y235284D02*
D03*
Y230284D02*
D03*
Y225284D02*
D03*
Y220284D02*
D03*
Y215284D02*
D03*
Y210284D02*
D03*
Y205284D02*
D03*
Y200284D02*
D03*
Y195284D02*
D03*
Y190284D02*
D03*
X309716D02*
D03*
Y195284D02*
D03*
Y200284D02*
D03*
Y205284D02*
D03*
Y210284D02*
D03*
Y215284D02*
D03*
Y220284D02*
D03*
Y225284D02*
D03*
Y230284D02*
D03*
Y235284D02*
D03*
Y240284D02*
D03*
Y245284D02*
D03*
Y250284D02*
D03*
Y255284D02*
D03*
Y260284D02*
D03*
Y265284D02*
D03*
Y270284D02*
D03*
Y275284D02*
D03*
Y280284D02*
D03*
Y285284D02*
D03*
Y290284D02*
D03*
Y295284D02*
D03*
Y300284D02*
D03*
Y305284D02*
D03*
Y310284D02*
D03*
D38*
X172500Y173068D02*
D03*
X177500D02*
D03*
X182500D02*
D03*
X187500D02*
D03*
X192500D02*
D03*
X197500D02*
D03*
X202500D02*
D03*
X207500D02*
D03*
X212500D02*
D03*
X217500D02*
D03*
X222500D02*
D03*
X227500D02*
D03*
X232500D02*
D03*
X237500D02*
D03*
X242500D02*
D03*
X247500D02*
D03*
X252500D02*
D03*
X257500D02*
D03*
X262500D02*
D03*
X267500D02*
D03*
X272500D02*
D03*
X277500D02*
D03*
X282500D02*
D03*
X287500D02*
D03*
X292500D02*
D03*
Y327500D02*
D03*
X287500D02*
D03*
X282500D02*
D03*
X277500D02*
D03*
X272500D02*
D03*
X267500D02*
D03*
X262500D02*
D03*
X257500D02*
D03*
X252500D02*
D03*
X247500D02*
D03*
X242500D02*
D03*
X237500D02*
D03*
X232500D02*
D03*
X227500D02*
D03*
X222500D02*
D03*
X217500D02*
D03*
X212500D02*
D03*
X207500D02*
D03*
X202500D02*
D03*
X197500D02*
D03*
X192500D02*
D03*
X187500D02*
D03*
X182500D02*
D03*
X177500D02*
D03*
X172500D02*
D03*
D39*
X107000Y227640D02*
D03*
Y254360D02*
D03*
X338000Y298640D02*
D03*
Y325360D02*
D03*
X134000Y391360D02*
D03*
Y364640D02*
D03*
X129000Y271640D02*
D03*
Y298360D02*
D03*
X405000Y402360D02*
D03*
Y375640D02*
D03*
X129000Y254360D02*
D03*
Y227640D02*
D03*
D40*
X381896Y90254D02*
D03*
X349596D02*
D03*
X209104Y354746D02*
D03*
X241404D02*
D03*
D41*
X342000Y49430D02*
D03*
Y26570D02*
D03*
X282000Y37570D02*
D03*
Y60430D02*
D03*
X372000Y49430D02*
D03*
Y26570D02*
D03*
X312000Y49430D02*
D03*
Y26570D02*
D03*
D42*
X373721Y260000D02*
D03*
Y255000D02*
D03*
Y250000D02*
D03*
Y245000D02*
D03*
Y240000D02*
D03*
Y235000D02*
D03*
Y230000D02*
D03*
Y225000D02*
D03*
Y220000D02*
D03*
Y215000D02*
D03*
Y210000D02*
D03*
Y205000D02*
D03*
Y200000D02*
D03*
Y195000D02*
D03*
Y190000D02*
D03*
Y185000D02*
D03*
Y180000D02*
D03*
Y175000D02*
D03*
Y170000D02*
D03*
Y165000D02*
D03*
Y160000D02*
D03*
Y155000D02*
D03*
Y150000D02*
D03*
Y145000D02*
D03*
D43*
X390721Y128300D02*
D03*
Y276700D02*
D03*
D44*
X315250Y377000D02*
D03*
D45*
X378750Y400000D02*
D03*
Y377000D02*
D03*
Y354000D02*
D03*
D46*
X137000Y196000D02*
D03*
X105000D02*
D03*
X104000Y352000D02*
D03*
X72000D02*
D03*
D47*
X360360Y278000D02*
D03*
X333640D02*
D03*
X102360Y398000D02*
D03*
X75640D02*
D03*
X188360Y354000D02*
D03*
X161640D02*
D03*
X379640Y326000D02*
D03*
X406360D02*
D03*
X261720Y148000D02*
D03*
X235000D02*
D03*
X306011Y148011D02*
D03*
X279291D02*
D03*
X178360Y150000D02*
D03*
X151640D02*
D03*
D48*
X87650Y373000D02*
D03*
X102350D02*
D03*
D49*
X65596Y240479D02*
D03*
Y298279D02*
D03*
D50*
X70596Y226179D02*
D03*
Y312579D02*
D03*
D51*
X28796Y226179D02*
D03*
Y312579D02*
D03*
D52*
X13200Y38000D02*
D03*
D53*
X38600D02*
D03*
X64000D02*
D03*
X89400D02*
D03*
X13200Y165000D02*
D03*
X38600D02*
D03*
X64000D02*
D03*
X89400D02*
D03*
D54*
X37500Y395400D02*
D03*
D55*
X50200D02*
D03*
X37500Y382700D02*
D03*
X50200D02*
D03*
X37500Y370000D02*
D03*
X50200D02*
D03*
X37500Y357300D02*
D03*
X50200D02*
D03*
X37500Y344600D02*
D03*
X50200D02*
D03*
D56*
X243000Y212640D02*
D03*
X29900Y275168D02*
D03*
Y262000D02*
D03*
X103000Y303000D02*
D03*
X158000Y375000D02*
D03*
X134191Y364460D02*
D03*
X292000Y210000D02*
D03*
X322000Y159000D02*
D03*
X312776Y177547D02*
D03*
X110000Y148000D02*
D03*
Y134000D02*
D03*
X73000Y205000D02*
D03*
X90710Y204000D02*
D03*
X102977Y254000D02*
D03*
X140378Y275000D02*
D03*
X107000Y227640D02*
D03*
X272539Y312539D02*
D03*
X278344Y277535D02*
D03*
X268000Y294000D02*
D03*
X286039Y310039D02*
D03*
X278000Y265000D02*
D03*
X192000Y281000D02*
D03*
X190000Y300804D02*
D03*
X221877Y309810D02*
D03*
X178293Y148844D02*
D03*
X345000Y234000D02*
D03*
X389000Y128000D02*
D03*
X279651Y148011D02*
D03*
X41000Y138000D02*
D03*
X184360Y354000D02*
D03*
X187441Y101390D02*
D03*
X361000Y278000D02*
D03*
X155461Y101531D02*
D03*
X276000Y88000D02*
D03*
X348000Y69000D02*
D03*
X345000Y133000D02*
D03*
X372000Y11000D02*
D03*
X384860Y37718D02*
D03*
X402000Y12000D02*
D03*
X151640Y150000D02*
D03*
X235000Y148000D02*
D03*
X207000Y149000D02*
D03*
X334000Y104890D02*
D03*
X210360Y216000D02*
D03*
X183640D02*
D03*
X338210Y298676D02*
D03*
X345000Y389000D02*
D03*
X398000Y354000D02*
D03*
X262000Y251000D02*
D03*
X400890Y277000D02*
D03*
X389000Y152000D02*
D03*
X262000Y348000D02*
D03*
X264790Y222803D02*
D03*
X199000Y192000D02*
D03*
X266000Y197000D02*
D03*
X226000Y252322D02*
D03*
X190000Y267000D02*
D03*
X259000Y122110D02*
D03*
X209255Y254534D02*
D03*
X305956Y148066D02*
D03*
X354000Y196460D02*
D03*
X340000Y157110D02*
D03*
X337000Y199000D02*
D03*
M02*
