G04*
G04 #@! TF.GenerationSoftware,Altium Limited,Altium Designer,22.5.1 (42)*
G04*
G04 Layer_Color=65535*
%FSLAX44Y44*%
%MOMM*%
G71*
G04*
G04 #@! TF.SameCoordinates,0A4DFAF1-6218-4570-9C88-57A128791E20*
G04*
G04*
G04 #@! TF.FilePolarity,Positive*
G04*
G01*
G75*
%ADD10C,0.2500*%
%ADD11C,0.2000*%
%ADD12C,0.1524*%
%ADD13C,0.1270*%
%ADD14C,0.1540*%
%ADD15C,0.0762*%
%ADD16C,0.2540*%
%ADD17C,0.1500*%
%ADD18R,2.7432X1.3208*%
G36*
X274405Y337406D02*
X270595D01*
Y339946D01*
X274405D01*
Y337406D01*
D02*
G37*
G36*
X224405D02*
X220595D01*
Y339946D01*
X224405D01*
Y337406D01*
D02*
G37*
G36*
X174405D02*
X170595D01*
Y339946D01*
X174405D01*
Y337406D01*
D02*
G37*
G36*
X322162Y283379D02*
X319622D01*
Y287189D01*
X322162D01*
Y283379D01*
D02*
G37*
G36*
X145378Y263379D02*
X142838D01*
Y267189D01*
X145378D01*
Y263379D01*
D02*
G37*
G36*
X322162Y233379D02*
X319622D01*
Y237189D01*
X322162D01*
Y233379D01*
D02*
G37*
G36*
X145378Y213379D02*
X142838D01*
Y217189D01*
X145378D01*
Y213379D01*
D02*
G37*
G36*
X294405Y160622D02*
X290595D01*
Y163162D01*
X294405D01*
Y160622D01*
D02*
G37*
G36*
X244405D02*
X240595D01*
Y163162D01*
X244405D01*
Y160622D01*
D02*
G37*
G36*
X194405D02*
X190595D01*
Y163162D01*
X194405D01*
Y160622D01*
D02*
G37*
G36*
X174360Y69982D02*
X175016D01*
Y69851D01*
X175410D01*
Y69719D01*
X175673D01*
Y69588D01*
X175936D01*
Y69457D01*
X176199D01*
Y69325D01*
X176330D01*
Y69194D01*
X176461D01*
Y69062D01*
X176724D01*
Y68931D01*
X176856D01*
Y68668D01*
X176987D01*
Y68537D01*
X177118D01*
Y68406D01*
X177250D01*
Y68274D01*
X177381D01*
Y68011D01*
X177512D01*
Y67749D01*
X177644D01*
Y67617D01*
X177775D01*
Y67355D01*
X177906D01*
Y66961D01*
X178038D01*
Y66567D01*
X178169D01*
Y66041D01*
X178300D01*
Y65778D01*
Y65647D01*
Y64596D01*
X178432D01*
Y63808D01*
X178300D01*
Y63677D01*
X175410D01*
Y64202D01*
X175016D01*
Y66041D01*
X174885D01*
Y66435D01*
X174754D01*
Y66567D01*
X174491D01*
Y66698D01*
X173177D01*
Y66567D01*
X172915D01*
Y66435D01*
X172783D01*
Y66304D01*
X172652D01*
Y66172D01*
X172521D01*
Y66041D01*
X172389D01*
Y65647D01*
X172258D01*
Y63939D01*
X172389D01*
Y63545D01*
X172521D01*
Y63151D01*
X172652D01*
Y63020D01*
X172783D01*
Y62757D01*
X172915D01*
Y62626D01*
X173046D01*
Y62494D01*
X173177D01*
Y62231D01*
X173309D01*
Y62100D01*
X173440D01*
Y61969D01*
X173571D01*
Y61837D01*
X173703D01*
Y61706D01*
X173834D01*
Y61575D01*
X173965D01*
Y61443D01*
X174228D01*
Y61312D01*
X174360D01*
Y61181D01*
X174491D01*
Y61049D01*
X174622D01*
Y60918D01*
X174754D01*
Y60786D01*
X174885D01*
Y60655D01*
X175016D01*
Y60524D01*
X175148D01*
Y60392D01*
X175279D01*
Y60261D01*
X175410D01*
Y60130D01*
X175542D01*
Y59998D01*
X175673D01*
Y59867D01*
X175805D01*
Y59736D01*
X175936D01*
Y59604D01*
X176067D01*
Y59473D01*
X176199D01*
Y59342D01*
X176330D01*
Y59210D01*
X176461D01*
Y59079D01*
X176593D01*
Y58816D01*
X176724D01*
Y58685D01*
X176856D01*
Y58553D01*
X176987D01*
Y58291D01*
X177118D01*
Y58159D01*
X177250D01*
Y57897D01*
X177381D01*
Y57765D01*
X177512D01*
Y57502D01*
X177644D01*
Y57240D01*
X177775D01*
Y56977D01*
X177906D01*
Y56714D01*
X178038D01*
Y56320D01*
X178169D01*
Y55795D01*
X178300D01*
Y54875D01*
X178432D01*
Y53299D01*
X178300D01*
Y52379D01*
X178169D01*
Y51854D01*
X178038D01*
Y51591D01*
X177906D01*
Y51197D01*
X177775D01*
Y50934D01*
X177644D01*
Y50803D01*
X177512D01*
Y50540D01*
X177381D01*
Y50409D01*
X177250D01*
Y50278D01*
X177118D01*
Y50146D01*
X176987D01*
Y50015D01*
X176856D01*
Y49883D01*
X176593D01*
Y49752D01*
X176461D01*
Y49621D01*
X176199D01*
Y49489D01*
X175936D01*
Y49358D01*
X175673D01*
Y49227D01*
X175148D01*
Y49095D01*
X174360D01*
Y48964D01*
X173046D01*
Y49095D01*
X172258D01*
Y49227D01*
X171864D01*
Y49358D01*
X171470D01*
Y49489D01*
X171207D01*
Y49621D01*
X170944D01*
Y49752D01*
X170813D01*
Y49883D01*
X170681D01*
Y50015D01*
X170550D01*
Y50146D01*
X170419D01*
Y50278D01*
X170287D01*
Y50409D01*
X170156D01*
Y50540D01*
X170025D01*
Y50672D01*
X169893D01*
Y50803D01*
X169762D01*
Y51066D01*
X169631D01*
Y51197D01*
X169499D01*
Y51460D01*
X169368D01*
Y51591D01*
X169237D01*
Y51985D01*
X169105D01*
Y52248D01*
X168974D01*
Y52773D01*
X168842D01*
Y53430D01*
X168711D01*
Y55663D01*
X171732D01*
Y55138D01*
X172127D01*
Y52773D01*
X172258D01*
Y52642D01*
X172389D01*
Y52511D01*
X172652D01*
Y52379D01*
X173965D01*
Y52511D01*
X174228D01*
Y52642D01*
X174360D01*
Y52773D01*
X174491D01*
Y52905D01*
X174622D01*
Y53168D01*
X174754D01*
Y53562D01*
X174885D01*
Y55138D01*
X174754D01*
Y55795D01*
X174622D01*
Y56058D01*
X174491D01*
Y56320D01*
X174360D01*
Y56583D01*
X174228D01*
Y56714D01*
X174097D01*
Y56977D01*
X173965D01*
Y57108D01*
X173834D01*
Y57240D01*
X173703D01*
Y57371D01*
X173571D01*
Y57502D01*
X173440D01*
Y57634D01*
X173309D01*
Y57765D01*
X173177D01*
Y57897D01*
X173046D01*
Y58028D01*
X172915D01*
Y58159D01*
X172783D01*
Y58291D01*
X172652D01*
Y58422D01*
X172521D01*
Y58553D01*
X172389D01*
Y58685D01*
X172127D01*
Y58816D01*
X171995D01*
Y58948D01*
X171864D01*
Y59079D01*
X171732D01*
Y59210D01*
X171601D01*
Y59342D01*
X171470D01*
Y59473D01*
X171338D01*
Y59604D01*
X171207D01*
Y59736D01*
X171076D01*
Y59867D01*
X170944D01*
Y60130D01*
X170813D01*
Y60261D01*
X170681D01*
Y60392D01*
X170550D01*
Y60524D01*
X170419D01*
Y60655D01*
X170287D01*
Y60918D01*
X170156D01*
Y61049D01*
X170025D01*
Y61181D01*
X169893D01*
Y61443D01*
X169762D01*
Y61575D01*
X169631D01*
Y61837D01*
X169499D01*
Y62100D01*
X169368D01*
Y62363D01*
X169237D01*
Y62626D01*
X169105D01*
Y63020D01*
X168974D01*
Y63414D01*
X168842D01*
Y64071D01*
X168711D01*
Y66172D01*
X168842D01*
Y66829D01*
X168974D01*
Y67355D01*
X169105D01*
Y67617D01*
X169237D01*
Y67880D01*
X169368D01*
Y68143D01*
X169499D01*
Y68406D01*
X169631D01*
Y68537D01*
X169762D01*
Y68668D01*
X169893D01*
Y68800D01*
X170025D01*
Y68931D01*
X170156D01*
Y69062D01*
X170287D01*
Y69194D01*
X170419D01*
Y69325D01*
X170550D01*
Y69457D01*
X170813D01*
Y69588D01*
X171076D01*
Y69719D01*
X171338D01*
Y69851D01*
X171864D01*
Y69982D01*
X172521D01*
Y70113D01*
X174360D01*
Y69982D01*
D02*
G37*
G36*
X163456D02*
X164245D01*
Y69851D01*
X164639D01*
Y69719D01*
X164902D01*
Y69588D01*
X165164D01*
Y69457D01*
X165427D01*
Y69325D01*
X165558D01*
Y69194D01*
X165690D01*
Y69062D01*
X165952D01*
Y68931D01*
X166084D01*
Y68800D01*
X166215D01*
Y68537D01*
X166346D01*
Y68406D01*
X166478D01*
Y68274D01*
X166609D01*
Y68011D01*
X166741D01*
Y67880D01*
X166872D01*
Y67617D01*
X167003D01*
Y67355D01*
X167135D01*
Y67092D01*
X167266D01*
Y66698D01*
X167397D01*
Y66304D01*
X167529D01*
Y65384D01*
X167660D01*
Y62626D01*
X164639D01*
Y63020D01*
X164376D01*
Y63151D01*
X164245D01*
Y66172D01*
X164113D01*
Y66435D01*
X163982D01*
Y66567D01*
X163719D01*
Y66698D01*
X162406D01*
Y66567D01*
X162143D01*
Y66435D01*
X162012D01*
Y66304D01*
X161880D01*
Y66172D01*
X161749D01*
Y65910D01*
X161617D01*
Y65647D01*
X161486D01*
Y52905D01*
X161617D01*
Y52642D01*
X161749D01*
Y52511D01*
X162012D01*
Y52379D01*
X163325D01*
Y52511D01*
X163588D01*
Y52642D01*
X163719D01*
Y52773D01*
X163851D01*
Y52905D01*
X163982D01*
Y53036D01*
X164113D01*
Y53430D01*
X164245D01*
Y57240D01*
X167266D01*
Y56714D01*
X167660D01*
Y53168D01*
X167529D01*
Y52248D01*
X167397D01*
Y51854D01*
X167266D01*
Y51460D01*
X167135D01*
Y51197D01*
X167003D01*
Y50934D01*
X166872D01*
Y50672D01*
X166741D01*
Y50540D01*
X166609D01*
Y50409D01*
X166478D01*
Y50278D01*
X166346D01*
Y50146D01*
X166215D01*
Y50015D01*
X166084D01*
Y49883D01*
X165952D01*
Y49752D01*
X165690D01*
Y49621D01*
X165558D01*
Y49489D01*
X165296D01*
Y49358D01*
X164902D01*
Y49227D01*
X164507D01*
Y49095D01*
X163719D01*
Y48964D01*
X162274D01*
Y49095D01*
X161486D01*
Y49227D01*
X161092D01*
Y49358D01*
X160698D01*
Y49489D01*
X160435D01*
Y49621D01*
X160304D01*
Y49752D01*
X160041D01*
Y49883D01*
X159910D01*
Y50015D01*
X159778D01*
Y50146D01*
X159647D01*
Y50278D01*
X159516D01*
Y50409D01*
X159384D01*
Y50540D01*
X159253D01*
Y50672D01*
X159122D01*
Y50803D01*
X158990D01*
Y51066D01*
X158859D01*
Y51197D01*
X158727D01*
Y51460D01*
X158596D01*
Y51591D01*
X158465D01*
Y51854D01*
X158333D01*
Y52248D01*
X158202D01*
Y52642D01*
X158071D01*
Y53430D01*
X157939D01*
Y66172D01*
X158071D01*
Y66961D01*
X158202D01*
Y67355D01*
X158333D01*
Y67749D01*
X158465D01*
Y68011D01*
X158596D01*
Y68143D01*
X158727D01*
Y68406D01*
X158859D01*
Y68537D01*
X158990D01*
Y68800D01*
X159122D01*
Y68931D01*
X159253D01*
Y69062D01*
X159516D01*
Y69194D01*
X159647D01*
Y69325D01*
X159778D01*
Y69457D01*
X160041D01*
Y69588D01*
X160304D01*
Y69719D01*
X160567D01*
Y69851D01*
X160961D01*
Y69982D01*
X161749D01*
Y70113D01*
X163456D01*
Y69982D01*
D02*
G37*
G36*
X155837Y69325D02*
X156231D01*
Y49227D01*
X153079D01*
Y49752D01*
X152685D01*
Y68931D01*
Y69062D01*
Y69851D01*
X155837D01*
Y69325D01*
D02*
G37*
G36*
X147299Y69719D02*
X147956D01*
Y69588D01*
X148350D01*
Y69457D01*
X148612D01*
Y69325D01*
X148875D01*
Y69194D01*
X149138D01*
Y69062D01*
X149401D01*
Y68931D01*
X149532D01*
Y68800D01*
X149663D01*
Y68668D01*
X149795D01*
Y68537D01*
X149926D01*
Y68406D01*
X150057D01*
Y68143D01*
X150189D01*
Y68011D01*
X150320D01*
Y67880D01*
X150452D01*
Y67617D01*
X150583D01*
Y67355D01*
X150714D01*
Y67223D01*
X150846D01*
Y66829D01*
X150977D01*
Y66567D01*
X151108D01*
Y66041D01*
X151240D01*
Y65121D01*
X151371D01*
Y61575D01*
X151240D01*
Y60655D01*
X151108D01*
Y60130D01*
X150977D01*
Y59867D01*
X150846D01*
Y59604D01*
X150714D01*
Y59342D01*
X150583D01*
Y59079D01*
X150452D01*
Y58948D01*
X150320D01*
Y58816D01*
X150189D01*
Y58553D01*
X149926D01*
Y58422D01*
X149795D01*
Y58291D01*
X149663D01*
Y58159D01*
X149401D01*
Y58028D01*
X149269D01*
Y57897D01*
X149007D01*
Y57765D01*
X148612D01*
Y57634D01*
X148087D01*
Y57502D01*
X147036D01*
Y57371D01*
X145197D01*
Y49227D01*
X142044D01*
Y49752D01*
X141650D01*
Y69851D01*
X147299D01*
Y69719D01*
D02*
G37*
G36*
X124310D02*
X125098D01*
Y69588D01*
X125493D01*
Y69457D01*
X125887D01*
Y69325D01*
X126149D01*
Y69194D01*
X126281D01*
Y69062D01*
X126544D01*
Y68931D01*
X126675D01*
Y68800D01*
X126806D01*
Y68668D01*
X126938D01*
Y68537D01*
X127069D01*
Y68406D01*
X127200D01*
Y68143D01*
X127332D01*
Y68011D01*
X127463D01*
Y67880D01*
X127594D01*
Y67617D01*
X127726D01*
Y67355D01*
X127857D01*
Y67092D01*
X127989D01*
Y66698D01*
X128120D01*
Y66172D01*
X128251D01*
Y64990D01*
X128383D01*
Y63020D01*
X128251D01*
Y61969D01*
X128120D01*
Y61443D01*
X127989D01*
Y61049D01*
X127857D01*
Y60786D01*
X127726D01*
Y60655D01*
X127594D01*
Y60392D01*
X127463D01*
Y60261D01*
X127332D01*
Y60130D01*
X127200D01*
Y59998D01*
X127069D01*
Y59867D01*
X126938D01*
Y59736D01*
X126675D01*
Y59473D01*
X126806D01*
Y59342D01*
X126938D01*
Y59210D01*
X127069D01*
Y59079D01*
X127200D01*
Y58948D01*
X127332D01*
Y58816D01*
X127463D01*
Y58553D01*
X127594D01*
Y58422D01*
X127726D01*
Y58159D01*
X127857D01*
Y57897D01*
X127989D01*
Y57502D01*
X128120D01*
Y57108D01*
X128251D01*
Y56189D01*
X128383D01*
Y50146D01*
X128514D01*
Y49621D01*
X128645D01*
Y49227D01*
X125493D01*
Y49621D01*
X125361D01*
Y49752D01*
X125098D01*
Y50015D01*
X124967D01*
Y50672D01*
X124836D01*
Y56846D01*
X124704D01*
Y57371D01*
X124573D01*
Y57502D01*
X124442D01*
Y57634D01*
X124179D01*
Y57765D01*
X122208D01*
Y57634D01*
Y49227D01*
X119056D01*
Y49752D01*
X118662D01*
Y69851D01*
X124310D01*
Y69719D01*
D02*
G37*
G36*
X117217Y69325D02*
X117611D01*
Y66435D01*
X114327D01*
Y49227D01*
X111174D01*
Y49752D01*
X110780D01*
Y64465D01*
Y64596D01*
Y66435D01*
X107890D01*
Y66961D01*
X107496D01*
Y69851D01*
X117217D01*
Y69325D01*
D02*
G37*
G36*
X135739Y69982D02*
X136396D01*
Y69851D01*
X136790D01*
Y69719D01*
X137053D01*
Y69588D01*
X137315D01*
Y69457D01*
X137578D01*
Y69325D01*
X137841D01*
Y69194D01*
X137972D01*
Y69062D01*
X138104D01*
Y68931D01*
X138235D01*
Y68800D01*
X138366D01*
Y68668D01*
X138497D01*
Y68537D01*
X138629D01*
Y68406D01*
X138760D01*
Y68143D01*
X138892D01*
Y68011D01*
X139023D01*
Y67749D01*
X139154D01*
Y67486D01*
X139286D01*
Y67355D01*
X139417D01*
Y66961D01*
X139548D01*
Y66698D01*
X139680D01*
Y66172D01*
X139811D01*
Y65384D01*
X139943D01*
Y53168D01*
X139811D01*
Y52379D01*
X139680D01*
Y51854D01*
X139548D01*
Y51591D01*
X139417D01*
Y51197D01*
X139286D01*
Y51066D01*
X139154D01*
Y50803D01*
X139023D01*
Y50672D01*
X138892D01*
Y50409D01*
X138760D01*
Y50278D01*
X138629D01*
Y50146D01*
X138497D01*
Y50015D01*
X138366D01*
Y49883D01*
X138104D01*
Y49752D01*
X137972D01*
Y49621D01*
X137709D01*
Y49489D01*
X137447D01*
Y49358D01*
X137053D01*
Y49227D01*
X136658D01*
Y49095D01*
X135870D01*
Y48964D01*
X134425D01*
Y49095D01*
X133637D01*
Y49227D01*
X133243D01*
Y49358D01*
X132849D01*
Y49489D01*
X132586D01*
Y49621D01*
X132324D01*
Y49752D01*
X132192D01*
Y49883D01*
X131929D01*
Y50015D01*
X131798D01*
Y50146D01*
X131667D01*
Y50278D01*
X131535D01*
Y50409D01*
X131404D01*
Y50540D01*
X131273D01*
Y50803D01*
X131141D01*
Y50934D01*
X131010D01*
Y51066D01*
X130878D01*
Y51328D01*
X130747D01*
Y51460D01*
X130616D01*
Y51722D01*
X130484D01*
Y51985D01*
X130353D01*
Y52379D01*
X130222D01*
Y52773D01*
X130090D01*
Y53430D01*
X129959D01*
Y66172D01*
X130090D01*
Y66829D01*
X130222D01*
Y67223D01*
X130353D01*
Y67617D01*
X130484D01*
Y67880D01*
X130616D01*
Y68143D01*
X130747D01*
Y68274D01*
X130878D01*
Y68537D01*
X131010D01*
Y68668D01*
X131141D01*
Y68800D01*
X131273D01*
Y68931D01*
X131404D01*
Y69062D01*
X131535D01*
Y69194D01*
X131667D01*
Y69325D01*
X131929D01*
Y69457D01*
X132192D01*
Y69588D01*
X132455D01*
Y69719D01*
X132718D01*
Y69851D01*
X133112D01*
Y69982D01*
X133769D01*
Y70113D01*
X135739D01*
Y69982D01*
D02*
G37*
G36*
X175673Y46862D02*
X176199D01*
Y46731D01*
X176593D01*
Y46599D01*
X176724D01*
Y46468D01*
X176987D01*
Y46337D01*
X177118D01*
Y46205D01*
X177250D01*
Y45943D01*
X177381D01*
Y45811D01*
X177512D01*
Y45548D01*
X177644D01*
Y45286D01*
X177775D01*
Y45023D01*
X177906D01*
Y44366D01*
X178038D01*
Y42659D01*
X177906D01*
Y42002D01*
X177775D01*
Y41739D01*
X177644D01*
Y41476D01*
X177512D01*
Y41345D01*
X177381D01*
Y41213D01*
X177250D01*
Y41082D01*
X177118D01*
Y40951D01*
X176987D01*
Y40819D01*
X177118D01*
Y40688D01*
X177250D01*
Y40557D01*
X177381D01*
Y40425D01*
X177512D01*
Y40294D01*
X177644D01*
Y40031D01*
X177775D01*
Y39769D01*
X177906D01*
Y39374D01*
X178038D01*
Y38849D01*
X178169D01*
Y36484D01*
X178038D01*
Y35828D01*
X177906D01*
Y35565D01*
X177775D01*
Y35302D01*
X177644D01*
Y35039D01*
X177512D01*
Y34908D01*
X177381D01*
Y34777D01*
X177250D01*
Y34645D01*
X176987D01*
Y34514D01*
X176724D01*
Y34383D01*
X176330D01*
Y34251D01*
X175805D01*
Y34120D01*
X172127D01*
Y34514D01*
X171864D01*
Y46993D01*
X175673D01*
Y46862D01*
D02*
G37*
G36*
X168711D02*
X168842D01*
Y46599D01*
X168974D01*
Y46337D01*
X169105D01*
Y45548D01*
X169237D01*
Y44760D01*
X169368D01*
Y43972D01*
X169499D01*
Y43184D01*
X169631D01*
Y42396D01*
X169762D01*
Y41476D01*
X169893D01*
Y40688D01*
X170025D01*
Y39900D01*
X170156D01*
Y39112D01*
X170287D01*
Y38324D01*
X170419D01*
Y37535D01*
X170550D01*
Y36747D01*
X170681D01*
Y35959D01*
X170813D01*
Y35171D01*
X170944D01*
Y34383D01*
X171076D01*
Y34120D01*
X169105D01*
Y34514D01*
X168842D01*
Y34777D01*
X168711D01*
Y35696D01*
X168580D01*
Y36616D01*
X166478D01*
Y36353D01*
X166346D01*
Y35433D01*
X166215D01*
Y34514D01*
X166084D01*
Y34120D01*
X164376D01*
Y34514D01*
X163982D01*
Y34777D01*
X164113D01*
Y35565D01*
X164245D01*
Y36353D01*
X164376D01*
Y37141D01*
X164507D01*
Y37929D01*
X164639D01*
Y38718D01*
X164770D01*
Y39506D01*
X164902D01*
Y40294D01*
X165033D01*
Y41082D01*
X165164D01*
Y41870D01*
X165296D01*
Y42659D01*
X165427D01*
Y43447D01*
X165558D01*
Y44235D01*
X165690D01*
Y45154D01*
X165821D01*
Y45943D01*
X165952D01*
Y46599D01*
Y46731D01*
X166084D01*
Y46993D01*
X168711D01*
Y46862D01*
D02*
G37*
G36*
X160304Y46599D02*
X160567D01*
Y36353D01*
X163456D01*
Y36222D01*
X163588D01*
Y35828D01*
X163851D01*
Y34120D01*
X158596D01*
Y34514D01*
X158333D01*
Y46993D01*
X160304D01*
Y46599D01*
D02*
G37*
G36*
X162274Y31098D02*
X162143D01*
Y30836D01*
X162012D01*
Y30573D01*
X161880D01*
Y30442D01*
X161749D01*
Y30179D01*
X161617D01*
Y29916D01*
X161486D01*
Y29653D01*
X161355D01*
Y29391D01*
X161223D01*
Y29128D01*
X161092D01*
Y28997D01*
X160961D01*
Y28734D01*
X160829D01*
Y28471D01*
X160698D01*
Y28209D01*
X160567D01*
Y27946D01*
X160435D01*
Y27814D01*
X160304D01*
Y27552D01*
X160172D01*
Y27289D01*
X160041D01*
Y27026D01*
X159910D01*
Y26764D01*
X159778D01*
Y26501D01*
X159647D01*
Y26370D01*
X159516D01*
Y26501D01*
X159384D01*
Y26632D01*
X159253D01*
Y26764D01*
X159122D01*
Y26895D01*
X158990D01*
Y27026D01*
X158859D01*
Y27158D01*
X158727D01*
Y27289D01*
X158465D01*
Y27420D01*
X158333D01*
Y27552D01*
X157939D01*
Y27683D01*
X157545D01*
Y27814D01*
X146642D01*
Y27552D01*
X146511D01*
Y27289D01*
X146379D01*
Y27026D01*
X146248D01*
Y26895D01*
X146117D01*
Y26632D01*
X145985D01*
Y26370D01*
X145854D01*
Y26107D01*
X145723D01*
Y25844D01*
X145591D01*
Y25713D01*
X156363D01*
Y25581D01*
X156757D01*
Y25450D01*
X157020D01*
Y25319D01*
X157151D01*
Y25187D01*
X157414D01*
Y24924D01*
X157545D01*
Y24793D01*
X157676D01*
Y24399D01*
X157808D01*
Y23217D01*
X157676D01*
Y22823D01*
X157545D01*
Y22560D01*
X157414D01*
Y22297D01*
X157282D01*
Y22034D01*
X157151D01*
Y21772D01*
X157020D01*
Y21509D01*
X156888D01*
Y21246D01*
X156757D01*
Y21115D01*
X156626D01*
Y20852D01*
X156494D01*
Y20589D01*
X156363D01*
Y20327D01*
X156231D01*
Y20064D01*
X156100D01*
Y19801D01*
X155969D01*
Y19670D01*
X155837D01*
Y19407D01*
X155706D01*
Y19145D01*
X155575D01*
Y18882D01*
X155443D01*
Y18750D01*
X155312D01*
Y18488D01*
X155181D01*
Y18356D01*
X155049D01*
Y18094D01*
X154918D01*
Y17962D01*
X154787D01*
Y17831D01*
X154655D01*
Y17700D01*
X154524D01*
Y17568D01*
X154392D01*
Y17437D01*
X154261D01*
Y17305D01*
X154130D01*
Y17174D01*
X153998D01*
Y17043D01*
X153736D01*
Y16911D01*
X153604D01*
Y16780D01*
X153473D01*
Y16649D01*
X153210D01*
Y16517D01*
X152947D01*
Y16386D01*
X152816D01*
Y16255D01*
X152553D01*
Y16123D01*
X152291D01*
Y15992D01*
X151896D01*
Y15860D01*
X151634D01*
Y15729D01*
X151108D01*
Y15598D01*
X134425D01*
Y15729D01*
X134557D01*
Y15992D01*
X134688D01*
Y16255D01*
X134819D01*
Y16386D01*
X134951D01*
Y16649D01*
X135082D01*
Y16911D01*
X135213D01*
Y17174D01*
X135345D01*
Y17437D01*
X135476D01*
Y17568D01*
X135608D01*
Y17831D01*
X135739D01*
Y18094D01*
X135870D01*
Y18356D01*
X136002D01*
Y18619D01*
X136133D01*
Y18882D01*
X136264D01*
Y19013D01*
X136396D01*
Y19276D01*
X136527D01*
Y19539D01*
X136658D01*
Y19801D01*
X136790D01*
Y20064D01*
X136921D01*
Y20195D01*
X137053D01*
Y20458D01*
X137184D01*
Y20721D01*
X137315D01*
Y20984D01*
X137447D01*
Y20721D01*
X137578D01*
Y20195D01*
X137709D01*
Y19933D01*
X137841D01*
Y19801D01*
X137972D01*
Y19539D01*
X138104D01*
Y19407D01*
X138366D01*
Y19276D01*
X138497D01*
Y19145D01*
X138892D01*
Y19013D01*
X150452D01*
Y19276D01*
X150583D01*
Y19539D01*
X150714D01*
Y19670D01*
X150846D01*
Y19933D01*
X150977D01*
Y20195D01*
X151108D01*
Y20458D01*
X151240D01*
Y20721D01*
X151371D01*
Y20984D01*
X151503D01*
Y21115D01*
X151634D01*
Y21378D01*
X140862D01*
Y21509D01*
X140468D01*
Y21640D01*
X140205D01*
Y21772D01*
X140074D01*
Y21903D01*
X139943D01*
Y22034D01*
X139811D01*
Y22166D01*
X139680D01*
Y22429D01*
X139548D01*
Y24005D01*
X139680D01*
Y24399D01*
X139811D01*
Y24662D01*
X139943D01*
Y24924D01*
X140074D01*
Y25187D01*
X140205D01*
Y25319D01*
X140337D01*
Y25581D01*
X140468D01*
Y25713D01*
X140599D01*
Y25975D01*
X140731D01*
Y26238D01*
X140862D01*
Y26370D01*
X140993D01*
Y26632D01*
X141125D01*
Y26764D01*
X141256D01*
Y27026D01*
X142044D01*
Y27158D01*
X143358D01*
Y27289D01*
X144146D01*
Y27420D01*
X144803D01*
Y27552D01*
X145460D01*
Y27683D01*
X145854D01*
Y27814D01*
X146379D01*
Y27946D01*
X146773D01*
Y28077D01*
X147168D01*
Y28209D01*
X147562D01*
Y28340D01*
X147824D01*
Y28471D01*
X148218D01*
Y28603D01*
X148481D01*
Y28734D01*
X148744D01*
Y28865D01*
X149007D01*
Y28997D01*
X149269D01*
Y29128D01*
X149401D01*
Y29260D01*
X149663D01*
Y29391D01*
X149926D01*
Y29522D01*
X150057D01*
Y29653D01*
X150320D01*
Y29785D01*
X150452D01*
Y29916D01*
X150583D01*
Y30048D01*
X150714D01*
Y30179D01*
X150977D01*
Y30310D01*
X151108D01*
Y30442D01*
X151240D01*
Y30573D01*
X151371D01*
Y30704D01*
X151503D01*
Y30836D01*
X151634D01*
Y30967D01*
X151765D01*
Y31098D01*
X151896D01*
Y31230D01*
X162274D01*
Y31098D01*
D02*
G37*
G36*
X181453D02*
X181322D01*
Y30967D01*
X181190D01*
Y30704D01*
X181059D01*
Y30442D01*
X180928D01*
Y30310D01*
X180796D01*
Y30048D01*
X180665D01*
Y29785D01*
X180534D01*
Y29653D01*
X180402D01*
Y29391D01*
X180271D01*
Y29128D01*
X180140D01*
Y28997D01*
X180008D01*
Y28734D01*
X179877D01*
Y28471D01*
X179746D01*
Y28340D01*
X179614D01*
Y28077D01*
X179483D01*
Y27814D01*
X179351D01*
Y27683D01*
X179220D01*
Y27420D01*
X179089D01*
Y27158D01*
X178957D01*
Y27026D01*
X178826D01*
Y26764D01*
X178695D01*
Y26501D01*
X178563D01*
Y26370D01*
X178432D01*
Y26107D01*
X178300D01*
Y26238D01*
X178169D01*
Y26370D01*
X178038D01*
Y26501D01*
X177906D01*
Y26632D01*
X177775D01*
Y26764D01*
X177512D01*
Y26895D01*
X177250D01*
Y27026D01*
X176856D01*
Y27158D01*
X176461D01*
Y27289D01*
X176067D01*
Y27420D01*
X175410D01*
Y27552D01*
X174622D01*
Y27683D01*
X173177D01*
Y27814D01*
X167003D01*
Y27552D01*
X166872D01*
Y27420D01*
X166741D01*
Y27158D01*
X166609D01*
Y26895D01*
X166478D01*
Y26632D01*
X166346D01*
Y26370D01*
X166215D01*
Y26238D01*
X166084D01*
Y25975D01*
X165952D01*
Y25713D01*
X165821D01*
Y25450D01*
X165690D01*
Y25187D01*
X165558D01*
Y24924D01*
X176856D01*
Y24793D01*
X176724D01*
Y24662D01*
X176593D01*
Y24530D01*
X176461D01*
Y24268D01*
X176330D01*
Y24136D01*
X176199D01*
Y24005D01*
X176067D01*
Y23742D01*
X175936D01*
Y23611D01*
X175805D01*
Y23479D01*
X175673D01*
Y23348D01*
X175542D01*
Y23085D01*
X175410D01*
Y22954D01*
X175279D01*
Y22823D01*
X175148D01*
Y22560D01*
X175016D01*
Y22429D01*
X174885D01*
Y22297D01*
X174754D01*
Y22166D01*
X174622D01*
Y21903D01*
X174491D01*
Y21772D01*
X174360D01*
Y21640D01*
X163588D01*
Y21378D01*
X163456D01*
Y21115D01*
X163325D01*
Y20984D01*
X163194D01*
Y20721D01*
X163062D01*
Y20458D01*
X162931D01*
Y20195D01*
X162800D01*
Y19933D01*
X162668D01*
Y19670D01*
X162537D01*
Y19539D01*
X162406D01*
Y19276D01*
X162274D01*
Y19013D01*
X162143D01*
Y18750D01*
X162012D01*
Y18488D01*
X161880D01*
Y18356D01*
X161749D01*
Y18094D01*
X161617D01*
Y17831D01*
X161486D01*
Y17568D01*
X161355D01*
Y17305D01*
X161223D01*
Y17043D01*
X161092D01*
Y16911D01*
X160961D01*
Y16649D01*
X160829D01*
Y16386D01*
X160698D01*
Y16123D01*
X160567D01*
Y15860D01*
X160435D01*
Y15598D01*
X155443D01*
Y15860D01*
X155575D01*
Y16123D01*
X155706D01*
Y16386D01*
X155837D01*
Y16649D01*
X155969D01*
Y16780D01*
X156100D01*
Y17043D01*
X156231D01*
Y17305D01*
X156363D01*
Y17568D01*
X156494D01*
Y17831D01*
X156626D01*
Y18094D01*
X156757D01*
Y18225D01*
X156888D01*
Y18488D01*
X157020D01*
Y18750D01*
X157151D01*
Y19013D01*
X157282D01*
Y19276D01*
X157414D01*
Y19407D01*
X157545D01*
Y19670D01*
X157676D01*
Y19933D01*
X157808D01*
Y20195D01*
X157939D01*
Y20458D01*
X158071D01*
Y20721D01*
X158202D01*
Y20852D01*
X158333D01*
Y21115D01*
X158465D01*
Y21378D01*
X158596D01*
Y21640D01*
X158727D01*
Y21903D01*
X158859D01*
Y22034D01*
X158990D01*
Y22297D01*
X159122D01*
Y22560D01*
X159253D01*
Y22823D01*
X159384D01*
Y23085D01*
X159516D01*
Y23348D01*
X159647D01*
Y23479D01*
X159778D01*
Y23742D01*
X159910D01*
Y24005D01*
X160041D01*
Y24268D01*
X160172D01*
Y24530D01*
X160304D01*
Y24662D01*
X160435D01*
Y24924D01*
X160567D01*
Y25187D01*
X160698D01*
Y25450D01*
X160829D01*
Y25713D01*
X160961D01*
Y25975D01*
X161092D01*
Y26107D01*
X161223D01*
Y26370D01*
X161355D01*
Y26632D01*
X161486D01*
Y26895D01*
X161617D01*
Y27158D01*
X161749D01*
Y27289D01*
X161880D01*
Y27552D01*
X162012D01*
Y27814D01*
X162143D01*
Y28077D01*
X162274D01*
Y28340D01*
X162406D01*
Y28603D01*
X162537D01*
Y28734D01*
X162668D01*
Y28997D01*
X162800D01*
Y29260D01*
X162931D01*
Y29522D01*
X163062D01*
Y29785D01*
X163194D01*
Y30048D01*
X163325D01*
Y30179D01*
X163456D01*
Y30442D01*
X163588D01*
Y30704D01*
X163719D01*
Y30967D01*
X163851D01*
Y31230D01*
X181453D01*
Y31098D01*
D02*
G37*
G36*
X123522Y42396D02*
X123653D01*
Y42133D01*
X123785D01*
Y41608D01*
X123916D01*
Y40951D01*
X123785D01*
Y40294D01*
X123653D01*
Y40031D01*
X123522D01*
Y39769D01*
X123391D01*
Y39506D01*
X123259D01*
Y39243D01*
X123128D01*
Y39112D01*
X122997D01*
Y38980D01*
X122865D01*
Y38849D01*
X122734D01*
Y38718D01*
X122603D01*
Y38586D01*
X122471D01*
Y38455D01*
X122340D01*
Y38324D01*
X122208D01*
Y38192D01*
X122077D01*
Y38061D01*
X121946D01*
Y37929D01*
X121814D01*
Y37798D01*
X121683D01*
Y37667D01*
X121552D01*
Y37535D01*
X121289D01*
Y37404D01*
X121158D01*
Y37273D01*
X121026D01*
Y37141D01*
X120895D01*
Y37010D01*
X120632D01*
Y36878D01*
X120501D01*
Y36747D01*
X120370D01*
Y36616D01*
X120238D01*
Y36484D01*
X120107D01*
Y36353D01*
X119975D01*
Y36090D01*
X119844D01*
Y35565D01*
X119975D01*
Y35302D01*
X120107D01*
Y35171D01*
X120238D01*
Y35039D01*
X120501D01*
Y34908D01*
X120632D01*
Y34777D01*
X121026D01*
Y34645D01*
X121289D01*
Y34514D01*
X121814D01*
Y34383D01*
X122340D01*
Y34251D01*
X123128D01*
Y34120D01*
X124048D01*
Y33988D01*
X125361D01*
Y33857D01*
X128251D01*
Y33726D01*
X129565D01*
Y33463D01*
X129433D01*
Y33332D01*
X129302D01*
Y33069D01*
X129171D01*
Y32938D01*
X129039D01*
Y32675D01*
X128908D01*
Y32543D01*
X128777D01*
Y32281D01*
X128645D01*
Y32149D01*
X128514D01*
Y31887D01*
X128383D01*
Y31755D01*
X128251D01*
Y31493D01*
X128120D01*
Y31361D01*
X127989D01*
Y31098D01*
X127857D01*
Y30967D01*
X127726D01*
Y30704D01*
X127594D01*
Y30573D01*
X127463D01*
Y30310D01*
X127332D01*
Y30179D01*
X127200D01*
Y29916D01*
X127069D01*
Y29785D01*
X126938D01*
Y29522D01*
X126806D01*
Y29391D01*
X126675D01*
Y29128D01*
X126544D01*
Y28997D01*
X126412D01*
Y28734D01*
X126281D01*
Y28603D01*
X126149D01*
Y28340D01*
X126018D01*
Y28209D01*
X125887D01*
Y27946D01*
X125755D01*
Y27814D01*
X125624D01*
Y27552D01*
X125493D01*
Y27420D01*
X125361D01*
Y27158D01*
X125230D01*
Y27026D01*
X125098D01*
Y26764D01*
X124967D01*
Y26632D01*
X124836D01*
Y26370D01*
X124704D01*
Y26238D01*
X124573D01*
Y25975D01*
X124442D01*
Y25844D01*
X124310D01*
Y25450D01*
X124442D01*
Y25187D01*
X124573D01*
Y24924D01*
X124704D01*
Y24662D01*
X124836D01*
Y24268D01*
X124704D01*
Y24005D01*
X124573D01*
Y23874D01*
X124442D01*
Y23611D01*
X124310D01*
Y23348D01*
X124179D01*
Y23217D01*
X124048D01*
Y22954D01*
X123916D01*
Y22691D01*
X123785D01*
Y22560D01*
X123653D01*
Y22297D01*
X123522D01*
Y22166D01*
X123391D01*
Y21903D01*
X123259D01*
Y21640D01*
X123128D01*
Y21509D01*
X122997D01*
Y21246D01*
X122865D01*
Y20984D01*
X122734D01*
Y20852D01*
X122603D01*
Y20589D01*
X122471D01*
Y20327D01*
X122340D01*
Y20195D01*
X122208D01*
Y19933D01*
X122077D01*
Y19801D01*
X121946D01*
Y19670D01*
X127726D01*
Y19801D01*
X127857D01*
Y20064D01*
X127989D01*
Y20327D01*
X128120D01*
Y20589D01*
X128251D01*
Y20852D01*
X128383D01*
Y21115D01*
X128514D01*
Y21246D01*
X128645D01*
Y21509D01*
X128777D01*
Y21772D01*
X128908D01*
Y22034D01*
X129039D01*
Y22297D01*
X129171D01*
Y22560D01*
X129302D01*
Y22823D01*
X129433D01*
Y23085D01*
X129565D01*
Y23348D01*
X129696D01*
Y23479D01*
X129828D01*
Y23742D01*
X129959D01*
Y24005D01*
X130222D01*
Y24136D01*
X130353D01*
Y24268D01*
X130616D01*
Y24399D01*
X130747D01*
Y24530D01*
X131010D01*
Y24662D01*
X131273D01*
Y24793D01*
X131404D01*
Y24924D01*
X131667D01*
Y25056D01*
X131798D01*
Y25319D01*
X131929D01*
Y25450D01*
X132061D01*
Y25713D01*
X132192D01*
Y25975D01*
X132324D01*
Y26107D01*
X132455D01*
Y26370D01*
X132586D01*
Y26632D01*
X132718D01*
Y26764D01*
X132849D01*
Y27026D01*
X132980D01*
Y27289D01*
X133112D01*
Y27420D01*
X133243D01*
Y27683D01*
X133374D01*
Y27946D01*
X133506D01*
Y28077D01*
X133637D01*
Y28340D01*
X133769D01*
Y28603D01*
X133900D01*
Y28734D01*
X134031D01*
Y28997D01*
X134163D01*
Y29260D01*
X134294D01*
Y29391D01*
X134425D01*
Y29653D01*
X134557D01*
Y29916D01*
X134688D01*
Y30048D01*
X134819D01*
Y30310D01*
X134951D01*
Y30573D01*
X135082D01*
Y30704D01*
X135213D01*
Y30967D01*
X135345D01*
Y31230D01*
X135476D01*
Y31361D01*
X135608D01*
Y31624D01*
X135739D01*
Y31887D01*
X135870D01*
Y32018D01*
X136002D01*
Y32281D01*
X136133D01*
Y32543D01*
X136264D01*
Y32675D01*
X136396D01*
Y32938D01*
X136527D01*
Y33200D01*
X136658D01*
Y33332D01*
X136790D01*
Y33463D01*
X137709D01*
Y33594D01*
X140599D01*
Y33726D01*
X141913D01*
Y33857D01*
X142832D01*
Y33988D01*
X143489D01*
Y34120D01*
X144146D01*
Y34251D01*
X144540D01*
Y34383D01*
X144934D01*
Y34514D01*
X145328D01*
Y34645D01*
X145591D01*
Y34777D01*
X145854D01*
Y34908D01*
X146117D01*
Y35039D01*
X146248D01*
Y35171D01*
X146379D01*
Y35302D01*
X146511D01*
Y35565D01*
X146642D01*
Y36353D01*
X146511D01*
Y36616D01*
X146379D01*
Y36878D01*
X146248D01*
Y37141D01*
X146117D01*
Y37273D01*
X145985D01*
Y37535D01*
X145854D01*
Y37798D01*
X145723D01*
Y38192D01*
X145591D01*
Y38849D01*
X145460D01*
Y39637D01*
X145591D01*
Y40163D01*
X145723D01*
Y40425D01*
X145854D01*
Y40688D01*
X145985D01*
Y40951D01*
X146117D01*
Y41082D01*
X146248D01*
Y41345D01*
X146379D01*
Y41476D01*
X146511D01*
Y41608D01*
X146642D01*
Y41739D01*
X146773D01*
Y41870D01*
X146905D01*
Y42002D01*
X147036D01*
Y42133D01*
X147168D01*
Y42264D01*
X147299D01*
Y42396D01*
X147430D01*
Y40688D01*
X147562D01*
Y40294D01*
X147693D01*
Y40031D01*
X147824D01*
Y39900D01*
X147956D01*
Y39637D01*
X148087D01*
Y39506D01*
X148218D01*
Y39374D01*
X148350D01*
Y39243D01*
X148481D01*
Y39112D01*
X148612D01*
Y38980D01*
X148744D01*
Y38849D01*
X149007D01*
Y38718D01*
X149138D01*
Y38586D01*
X149269D01*
Y38455D01*
X149401D01*
Y38324D01*
X149663D01*
Y38192D01*
X149795D01*
Y38061D01*
X149926D01*
Y37929D01*
X150057D01*
Y37798D01*
X150189D01*
Y37667D01*
X150320D01*
Y37535D01*
X150452D01*
Y37404D01*
X150583D01*
Y37273D01*
X150714D01*
Y37141D01*
X150846D01*
Y37010D01*
X150977D01*
Y36747D01*
X151108D01*
Y36484D01*
X151240D01*
Y36090D01*
X151371D01*
Y34645D01*
X151240D01*
Y34120D01*
X151108D01*
Y33726D01*
X150977D01*
Y33463D01*
X150846D01*
Y33200D01*
X150714D01*
Y33069D01*
X150583D01*
Y32806D01*
X150452D01*
Y32675D01*
X150320D01*
Y32543D01*
X150189D01*
Y32281D01*
X150057D01*
Y32149D01*
X149926D01*
Y32018D01*
X149795D01*
Y31887D01*
X149663D01*
Y31755D01*
X149401D01*
Y31624D01*
X149269D01*
Y31493D01*
X149138D01*
Y31361D01*
X148875D01*
Y31230D01*
X148744D01*
Y31098D01*
X148481D01*
Y30967D01*
X148350D01*
Y30836D01*
X148087D01*
Y30704D01*
X147824D01*
Y30573D01*
X147562D01*
Y30442D01*
X147168D01*
Y30310D01*
X146905D01*
Y30179D01*
X146511D01*
Y30048D01*
X146117D01*
Y29916D01*
X145723D01*
Y29785D01*
X145328D01*
Y29653D01*
X144803D01*
Y29522D01*
X144146D01*
Y29391D01*
X143358D01*
Y29260D01*
X142307D01*
Y29128D01*
X140337D01*
Y28997D01*
X140205D01*
Y28734D01*
X140074D01*
Y28603D01*
X139943D01*
Y28340D01*
X139811D01*
Y28209D01*
X139680D01*
Y27946D01*
X139548D01*
Y27683D01*
X139417D01*
Y27552D01*
X139286D01*
Y27289D01*
X139154D01*
Y27026D01*
X139023D01*
Y26895D01*
X138892D01*
Y26632D01*
X138760D01*
Y26370D01*
X138629D01*
Y26238D01*
X138497D01*
Y25975D01*
X138366D01*
Y25844D01*
X138235D01*
Y25581D01*
X138104D01*
Y25450D01*
X137972D01*
Y25187D01*
X137841D01*
Y25056D01*
X137578D01*
Y24924D01*
X137447D01*
Y24793D01*
X137315D01*
Y24662D01*
X137053D01*
Y24530D01*
X136921D01*
Y24399D01*
X136658D01*
Y24268D01*
X136396D01*
Y24136D01*
X136133D01*
Y24005D01*
X135870D01*
Y23874D01*
X135739D01*
Y23742D01*
X135608D01*
Y23479D01*
X135476D01*
Y23217D01*
X135345D01*
Y22954D01*
X135213D01*
Y22823D01*
X135082D01*
Y22560D01*
X134951D01*
Y22297D01*
X134819D01*
Y22034D01*
X134688D01*
Y21903D01*
X134557D01*
Y21640D01*
X134425D01*
Y21378D01*
X134294D01*
Y21115D01*
X134163D01*
Y20984D01*
X134031D01*
Y20721D01*
X133900D01*
Y20458D01*
X133769D01*
Y20195D01*
X133637D01*
Y20064D01*
X133506D01*
Y18488D01*
X133374D01*
Y18356D01*
X133243D01*
Y18225D01*
X133112D01*
Y18094D01*
X132849D01*
Y17962D01*
X132718D01*
Y17831D01*
X132455D01*
Y17700D01*
X132324D01*
Y17568D01*
X132061D01*
Y17437D01*
X131929D01*
Y17305D01*
X131667D01*
Y17174D01*
X131535D01*
Y17043D01*
X131273D01*
Y16911D01*
X131010D01*
Y16780D01*
X130747D01*
Y16649D01*
X130616D01*
Y16517D01*
X130353D01*
Y16386D01*
X130090D01*
Y16255D01*
X129959D01*
Y16123D01*
X129696D01*
Y15992D01*
X129433D01*
Y15860D01*
X129171D01*
Y15729D01*
X128908D01*
Y15598D01*
X118268D01*
Y15860D01*
X118136D01*
Y15992D01*
X118005D01*
Y16255D01*
X117874D01*
Y16386D01*
X117742D01*
Y16649D01*
X117611D01*
Y16911D01*
X117479D01*
Y17043D01*
X117348D01*
Y17305D01*
X117217D01*
Y17568D01*
X117085D01*
Y17700D01*
X116954D01*
Y17962D01*
X116823D01*
Y18225D01*
X116691D01*
Y18619D01*
X116560D01*
Y19145D01*
X116429D01*
Y19276D01*
X116560D01*
Y19539D01*
X116691D01*
Y19670D01*
X116823D01*
Y19801D01*
X116954D01*
Y19933D01*
X117217D01*
Y20064D01*
X117348D01*
Y20195D01*
X117479D01*
Y20327D01*
X117611D01*
Y20458D01*
X117742D01*
Y20589D01*
X117874D01*
Y20852D01*
X118005D01*
Y20984D01*
X118136D01*
Y21246D01*
X118268D01*
Y21378D01*
X118399D01*
Y21640D01*
X118530D01*
Y21903D01*
X118662D01*
Y22034D01*
X118793D01*
Y22297D01*
X118925D01*
Y22429D01*
X119056D01*
Y22691D01*
X119187D01*
Y22954D01*
X119319D01*
Y23085D01*
X119450D01*
Y23348D01*
X119581D01*
Y23611D01*
X119713D01*
Y23742D01*
X119844D01*
Y24005D01*
X119975D01*
Y24136D01*
X120107D01*
Y24399D01*
X120238D01*
Y24662D01*
X120107D01*
Y24924D01*
X119975D01*
Y25187D01*
X119844D01*
Y25450D01*
X119713D01*
Y25844D01*
X119581D01*
Y26238D01*
X119450D01*
Y26501D01*
X119581D01*
Y26764D01*
X119713D01*
Y26895D01*
X119844D01*
Y27158D01*
X119975D01*
Y27289D01*
X120107D01*
Y27552D01*
X120238D01*
Y27683D01*
X120370D01*
Y27946D01*
X120501D01*
Y28077D01*
X120632D01*
Y28340D01*
X120764D01*
Y28471D01*
X120895D01*
Y28734D01*
X121026D01*
Y28865D01*
X121158D01*
Y29128D01*
X121289D01*
Y29260D01*
X121420D01*
Y29391D01*
X120107D01*
Y29522D01*
X118925D01*
Y29653D01*
X118268D01*
Y29785D01*
X117611D01*
Y29916D01*
X117217D01*
Y30048D01*
X116691D01*
Y30179D01*
X116429D01*
Y30310D01*
X116034D01*
Y30442D01*
X115772D01*
Y30573D01*
X115640D01*
Y30704D01*
X115378D01*
Y30836D01*
X115246D01*
Y30967D01*
X114984D01*
Y31098D01*
X114852D01*
Y31230D01*
X114721D01*
Y31361D01*
X114590D01*
Y31624D01*
X114458D01*
Y31755D01*
X114327D01*
Y32018D01*
X114195D01*
Y32412D01*
X114064D01*
Y33857D01*
X114195D01*
Y34383D01*
X114327D01*
Y34777D01*
X114458D01*
Y35171D01*
X114590D01*
Y35302D01*
X114721D01*
Y35565D01*
X114852D01*
Y35828D01*
X114984D01*
Y35959D01*
X115115D01*
Y36090D01*
X115246D01*
Y36222D01*
X115378D01*
Y36353D01*
X115509D01*
Y36484D01*
X115640D01*
Y36616D01*
X115772D01*
Y36747D01*
X115903D01*
Y36878D01*
X116034D01*
Y37010D01*
X116166D01*
Y37141D01*
X116297D01*
Y37273D01*
X116560D01*
Y37404D01*
X116691D01*
Y37535D01*
X116954D01*
Y37667D01*
X117085D01*
Y37798D01*
X117348D01*
Y37929D01*
X117611D01*
Y38061D01*
X117742D01*
Y38192D01*
X118005D01*
Y38324D01*
X118268D01*
Y38455D01*
X118530D01*
Y38586D01*
X118793D01*
Y38718D01*
X119056D01*
Y38849D01*
X119187D01*
Y38980D01*
X119450D01*
Y39112D01*
X119713D01*
Y39243D01*
X119975D01*
Y39374D01*
X120238D01*
Y39506D01*
X120370D01*
Y39637D01*
X120632D01*
Y39769D01*
X120895D01*
Y39900D01*
X121026D01*
Y40031D01*
X121289D01*
Y40163D01*
X121420D01*
Y40294D01*
X121552D01*
Y40425D01*
X121814D01*
Y40557D01*
X121946D01*
Y40688D01*
X122077D01*
Y40819D01*
X122208D01*
Y40951D01*
X122340D01*
Y41082D01*
X122471D01*
Y41213D01*
X122603D01*
Y41345D01*
X122734D01*
Y41608D01*
X122865D01*
Y41739D01*
X122997D01*
Y42002D01*
X123128D01*
Y42264D01*
X123259D01*
Y42527D01*
X123391D01*
Y42659D01*
X123522D01*
Y42396D01*
D02*
G37*
%LPC*%
G36*
X147430Y66435D02*
X145197D01*
Y60786D01*
X146905D01*
Y60918D01*
X147168D01*
Y61049D01*
X147299D01*
Y61181D01*
X147430D01*
Y61312D01*
X147562D01*
Y61575D01*
X147693D01*
Y61969D01*
X147824D01*
Y65516D01*
Y65647D01*
Y65778D01*
X147693D01*
Y66172D01*
X147562D01*
Y66304D01*
X147430D01*
Y66435D01*
D02*
G37*
G36*
X124310D02*
X122208D01*
Y61181D01*
X123522D01*
Y61312D01*
X123916D01*
Y61443D01*
X124179D01*
Y61575D01*
X124310D01*
Y61706D01*
X124442D01*
Y61969D01*
X124573D01*
Y62231D01*
X124704D01*
Y62757D01*
X124836D01*
Y65516D01*
X124704D01*
Y66041D01*
X124573D01*
Y66304D01*
X124310D01*
Y66435D01*
D02*
G37*
G36*
X135870Y66698D02*
X134425D01*
Y66567D01*
X134163D01*
Y66435D01*
X134031D01*
Y66304D01*
X133900D01*
Y66172D01*
X133769D01*
Y65910D01*
X133637D01*
Y65516D01*
X133506D01*
Y53036D01*
X133637D01*
Y52642D01*
X133900D01*
Y52511D01*
X134163D01*
Y52379D01*
X135345D01*
Y52511D01*
X135608D01*
Y52642D01*
X135870D01*
Y52773D01*
X136002D01*
Y52905D01*
X136133D01*
Y53168D01*
X136264D01*
Y53693D01*
X136396D01*
Y65910D01*
X136264D01*
Y66435D01*
X136133D01*
Y66567D01*
X135870D01*
Y66698D01*
D02*
G37*
G36*
X175279Y44892D02*
X174097D01*
Y43053D01*
Y42921D01*
Y42002D01*
X175279D01*
Y42133D01*
X175410D01*
Y42264D01*
X175542D01*
Y42396D01*
X175673D01*
Y42659D01*
X175805D01*
Y44497D01*
X175673D01*
Y44760D01*
X175279D01*
Y44892D01*
D02*
G37*
G36*
X175542Y39769D02*
X174097D01*
Y36353D01*
X175542D01*
Y36484D01*
X175673D01*
Y36616D01*
X175805D01*
Y37010D01*
X175936D01*
Y39374D01*
X175805D01*
Y39637D01*
X175542D01*
Y39769D01*
D02*
G37*
G36*
X167529Y43709D02*
X167397D01*
Y42921D01*
X167266D01*
Y41870D01*
X167135D01*
Y40951D01*
X167003D01*
Y40031D01*
X166872D01*
Y39112D01*
X166741D01*
Y38718D01*
X168186D01*
Y38849D01*
Y39506D01*
X168054D01*
Y40425D01*
X167923D01*
Y41345D01*
X167792D01*
Y42133D01*
X167660D01*
Y43053D01*
X167529D01*
Y43709D01*
D02*
G37*
%LPD*%
D10*
X88846Y302029D02*
G03*
X88846Y302029I-1250J0D01*
G01*
X380000Y343500D02*
G03*
X380000Y343500I-1250J0D01*
G01*
D11*
X362721Y143500D02*
G03*
X362721Y143500I-1000J0D01*
G01*
X500Y95150D02*
G03*
X500Y107850I0J6350D01*
G01*
X38500Y410000D02*
G03*
X38500Y410000I-1000J0D01*
G01*
X235433Y48012D02*
X236050Y47915D01*
Y76532D02*
Y109226D01*
Y47915D02*
Y76532D01*
X208872Y48012D02*
X235433D01*
X198966Y51314D02*
Y81204D01*
Y109226D01*
X236050D01*
X198966Y51314D02*
X202014Y48266D01*
X202268Y48012D01*
X208872D01*
X240554Y20330D02*
X265700D01*
X240554D02*
Y73416D01*
X265700Y20330D02*
Y73416D01*
X240554D02*
X265700D01*
X158300Y79584D02*
X183446D01*
X158300D02*
Y132670D01*
X183446Y79584D02*
Y132670D01*
X158300D02*
X183446D01*
X41546Y318029D02*
X56346D01*
X2046D02*
X16046D01*
X2046Y220729D02*
Y318029D01*
X41546Y220729D02*
X56346D01*
X2046D02*
X16046D01*
X389554Y73774D02*
X414700D01*
Y20688D02*
Y73774D01*
X389554Y20688D02*
Y73774D01*
Y20688D02*
X414700D01*
X339584Y77554D02*
Y102700D01*
X392670D01*
X339584Y77554D02*
X392670D01*
Y102700D01*
X310300Y76926D02*
X335446D01*
X310300D02*
Y130012D01*
X335446Y76926D02*
Y130012D01*
X310300D02*
X335446D01*
X329300Y61622D02*
X349378D01*
X329300Y13350D02*
Y61622D01*
X349378D02*
X354700D01*
Y13350D02*
Y61622D01*
X329300Y13350D02*
X342000D01*
X354700D01*
X274622Y25378D02*
X294700D01*
Y73650D01*
X269300Y25378D02*
X274622D01*
X269300D02*
Y73650D01*
X282000D02*
X294700D01*
X269300D02*
X282000D01*
X328500Y410500D02*
X365500D01*
X328500Y343500D02*
X365500D01*
X328500D02*
Y410500D01*
X365500Y343500D02*
Y410500D01*
X251416Y342300D02*
Y367446D01*
X198330Y342300D02*
X251416D01*
X198330Y367446D02*
X251416D01*
X198330Y342300D02*
Y367446D01*
X500Y58850D02*
X79770D01*
X102100Y81180D01*
Y121820D01*
X500Y144150D02*
X79770D01*
X102100Y121820D01*
X500Y58850D02*
Y95150D01*
Y107850D02*
Y144150D01*
X115500Y187500D02*
X126500D01*
X115500Y204500D02*
X126500D01*
X82500Y343500D02*
X93500D01*
X82500Y360500D02*
X93500D01*
X359300Y61622D02*
X379378D01*
X359300Y13350D02*
Y61622D01*
X379378D02*
X384700D01*
Y13350D02*
Y61622D01*
X359300Y13350D02*
X372000D01*
X384700D01*
X299300Y61622D02*
X319378D01*
X299300Y13350D02*
Y61622D01*
X319378D02*
X324700D01*
Y13350D02*
Y61622D01*
X299300Y13350D02*
X312000D01*
X324700D01*
D12*
X165769Y312839D02*
X169945Y317015D01*
X161507Y179291D02*
X167776D01*
X303493D02*
Y185560D01*
X297224Y321277D02*
X303493D01*
X161507Y315008D02*
Y321277D01*
Y179291D02*
Y185560D01*
X297224Y179291D02*
X303493D01*
Y315008D02*
Y321277D01*
X161507D02*
X167776D01*
D13*
X98000Y238100D02*
Y243900D01*
X116000Y238100D02*
Y243900D01*
X409721Y115350D02*
X419221D01*
X409721Y289650D02*
X419221D01*
Y115350D02*
Y289650D01*
X329000Y309100D02*
Y314900D01*
X347000Y309100D02*
Y314900D01*
X344100Y269000D02*
X349900D01*
X344100Y287000D02*
X349900D01*
X143000Y375100D02*
Y380900D01*
X125000Y375100D02*
Y380900D01*
X86100Y389000D02*
X91900D01*
X86100Y407000D02*
X91900D01*
X172100Y345000D02*
X177900D01*
X172100Y363000D02*
X177900D01*
X120000Y282100D02*
Y287900D01*
X138000Y282100D02*
Y287900D01*
X390100Y335000D02*
X395900D01*
X390100Y317000D02*
X395900D01*
X414000Y386100D02*
Y391900D01*
X396000Y386100D02*
Y391900D01*
X138000Y238100D02*
Y243900D01*
X120000Y238100D02*
Y243900D01*
X245460Y139000D02*
X251260D01*
X245460Y157000D02*
X251260D01*
X289751Y139011D02*
X295551D01*
X289751Y157011D02*
X295551D01*
X162100Y141000D02*
X167900D01*
X162100Y159000D02*
X167900D01*
X500Y338250D02*
X25500D01*
X500D02*
Y401750D01*
X25500D01*
Y338250D02*
Y401750D01*
D14*
X193540Y36540D02*
Y46537D01*
X198538D01*
X200205Y44871D01*
Y41538D01*
X198538Y39872D01*
X193540D01*
X196872D02*
X200205Y36540D01*
X208535D02*
X205203D01*
X203537Y38206D01*
Y41538D01*
X205203Y43204D01*
X208535D01*
X210201Y41538D01*
Y39872D01*
X203537D01*
X213534Y36540D02*
X218532D01*
X220198Y38206D01*
X218532Y39872D01*
X215200D01*
X213534Y41538D01*
X215200Y43204D01*
X220198D01*
X228529Y36540D02*
X225196D01*
X223530Y38206D01*
Y41538D01*
X225196Y43204D01*
X228529D01*
X230195Y41538D01*
Y39872D01*
X223530D01*
X235193Y44871D02*
Y43204D01*
X233527D01*
X236859D01*
X235193D01*
Y38206D01*
X236859Y36540D01*
D15*
X138393Y320824D02*
X146857Y312360D01*
X138393D02*
X146857Y320824D01*
X138393Y316592D02*
X146857D01*
X142625Y312360D02*
Y320824D01*
D16*
X302469Y410118D02*
Y401588D01*
X304175Y399882D01*
X307588D01*
X309294Y401588D01*
Y410118D01*
X319531D02*
X312706D01*
Y405000D01*
X316118Y406706D01*
X317824D01*
X319531Y405000D01*
Y401588D01*
X317824Y399882D01*
X314412D01*
X312706Y401588D01*
X395723Y76986D02*
Y87222D01*
X400842D01*
X402548Y85516D01*
Y82104D01*
X400842Y80398D01*
X395723D01*
X399136D02*
X402548Y76986D01*
X412785Y87222D02*
X409372Y85516D01*
X405960Y82104D01*
Y78692D01*
X407666Y76986D01*
X411078D01*
X412785Y78692D01*
Y80398D01*
X411078Y82104D01*
X405960D01*
X342469Y105882D02*
Y116118D01*
X347588D01*
X349294Y114412D01*
Y111000D01*
X347588Y109294D01*
X342469D01*
X345882D02*
X349294Y105882D01*
X359531Y116118D02*
X352706D01*
Y111000D01*
X356118Y112706D01*
X357825D01*
X359531Y111000D01*
Y107588D01*
X357825Y105882D01*
X354412D01*
X352706Y107588D01*
X318469Y132882D02*
Y143118D01*
X323588D01*
X325294Y141412D01*
Y138000D01*
X323588Y136294D01*
X318469D01*
X321882D02*
X325294Y132882D01*
X333825D02*
Y143118D01*
X328706Y138000D01*
X335531D01*
X241469Y76882D02*
Y87118D01*
X246588D01*
X248294Y85412D01*
Y82000D01*
X246588Y80294D01*
X241469D01*
X244882D02*
X248294Y76882D01*
X251706Y85412D02*
X253412Y87118D01*
X256824D01*
X258531Y85412D01*
Y83706D01*
X256824Y82000D01*
X255118D01*
X256824D01*
X258531Y80294D01*
Y78588D01*
X256824Y76882D01*
X253412D01*
X251706Y78588D01*
X137469Y122882D02*
Y133118D01*
X142588D01*
X144294Y131412D01*
Y128000D01*
X142588Y126294D01*
X137469D01*
X140882D02*
X144294Y122882D01*
X154531D02*
X147706D01*
X154531Y129706D01*
Y131412D01*
X152824Y133118D01*
X149412D01*
X147706Y131412D01*
X199914Y376190D02*
Y386427D01*
X205032D01*
X206738Y384721D01*
Y381308D01*
X205032Y379602D01*
X199914D01*
X203326D02*
X206738Y376190D01*
X210151D02*
X213563D01*
X211857D01*
Y386427D01*
X210151Y384721D01*
X396000Y306118D02*
X392588D01*
X394294D01*
Y297588D01*
X392588Y295882D01*
X390882D01*
X389175Y297588D01*
X399412Y295882D02*
X402825D01*
X401118D01*
Y306118D01*
X399412Y304412D01*
X6923Y21597D02*
Y13066D01*
X8630Y11360D01*
X12042D01*
X13748Y13066D01*
Y21597D01*
X23985D02*
X20573Y19891D01*
X17160Y16478D01*
Y13066D01*
X18866Y11360D01*
X22279D01*
X23985Y13066D01*
Y14772D01*
X22279Y16478D01*
X17160D01*
X149176Y340118D02*
Y331588D01*
X150882Y329882D01*
X154294D01*
X156000Y331588D01*
Y340118D01*
X159412Y329882D02*
X162824D01*
X161118D01*
Y340118D01*
X159412Y338412D01*
X10294Y216118D02*
X6882D01*
X8588D01*
Y207588D01*
X6882Y205882D01*
X5175D01*
X3469Y207588D01*
X13706Y214412D02*
X15412Y216118D01*
X18824D01*
X20531Y214412D01*
Y212706D01*
X18824Y211000D01*
X17118D01*
X18824D01*
X20531Y209294D01*
Y207588D01*
X18824Y205882D01*
X15412D01*
X13706Y207588D01*
X8294Y334418D02*
X4882D01*
X6588D01*
Y325888D01*
X4882Y324182D01*
X3176D01*
X1469Y325888D01*
X18531Y324182D02*
X11706D01*
X18531Y331006D01*
Y332712D01*
X16825Y334418D01*
X13412D01*
X11706Y332712D01*
X359588Y318176D02*
X357882Y316469D01*
Y313057D01*
X359588Y311351D01*
X366412D01*
X368118Y313057D01*
Y316469D01*
X366412Y318176D01*
X368118Y328412D02*
Y321588D01*
X361294Y328412D01*
X359588D01*
X357882Y326706D01*
Y323294D01*
X359588Y321588D01*
Y331824D02*
X357882Y333531D01*
Y336943D01*
X359588Y338649D01*
X361294D01*
X363000Y336943D01*
X364706Y338649D01*
X366412D01*
X368118Y336943D01*
Y333531D01*
X366412Y331824D01*
X364706D01*
X363000Y333531D01*
X361294Y331824D01*
X359588D01*
X363000Y333531D02*
Y336943D01*
X110029Y180412D02*
X108322Y182118D01*
X104910D01*
X103204Y180412D01*
Y173588D01*
X104910Y171882D01*
X108322D01*
X110029Y173588D01*
X113441Y171882D02*
X116853D01*
X115147D01*
Y182118D01*
X113441Y180412D01*
X121971Y182118D02*
X128796D01*
Y180412D01*
X121971Y173588D01*
Y171882D01*
X359029Y300412D02*
X357323Y302118D01*
X353910D01*
X352204Y300412D01*
Y293588D01*
X353910Y291882D01*
X357323D01*
X359029Y293588D01*
X362441Y291882D02*
X365853D01*
X364147D01*
Y302118D01*
X362441Y300412D01*
X376090Y291882D02*
Y302118D01*
X370971Y297000D01*
X377796D01*
X233029Y134412D02*
X231322Y136118D01*
X227910D01*
X226204Y134412D01*
Y127588D01*
X227910Y125882D01*
X231322D01*
X233029Y127588D01*
X236441Y125882D02*
X239853D01*
X238147D01*
Y136118D01*
X236441Y134412D01*
X244971D02*
X246677Y136118D01*
X250090D01*
X251796Y134412D01*
Y132706D01*
X250090Y131000D01*
X248384D01*
X250090D01*
X251796Y129294D01*
Y127588D01*
X250090Y125882D01*
X246677D01*
X244971Y127588D01*
X108735Y317412D02*
X107029Y319118D01*
X103616D01*
X101910Y317412D01*
Y310588D01*
X103616Y308882D01*
X107029D01*
X108735Y310588D01*
X112147Y308882D02*
X115559D01*
X113853D01*
Y319118D01*
X112147Y317412D01*
X120677Y308882D02*
X124090D01*
X122384D01*
Y319118D01*
X120677Y317412D01*
X174029Y374412D02*
X172323Y376118D01*
X168910D01*
X167204Y374412D01*
Y367588D01*
X168910Y365882D01*
X172323D01*
X174029Y367588D01*
X177441Y365882D02*
X180853D01*
X179147D01*
Y376118D01*
X177441Y374412D01*
X185971D02*
X187677Y376118D01*
X191090D01*
X192796Y374412D01*
Y367588D01*
X191090Y365882D01*
X187677D01*
X185971Y367588D01*
Y374412D01*
X313294Y331412D02*
X311588Y333118D01*
X308176D01*
X306469Y331412D01*
Y324588D01*
X308176Y322882D01*
X311588D01*
X313294Y324588D01*
X316706D02*
X318412Y322882D01*
X321824D01*
X323531Y324588D01*
Y331412D01*
X321824Y333118D01*
X318412D01*
X316706Y331412D01*
Y329706D01*
X318412Y328000D01*
X323531D01*
X278294Y134412D02*
X276588Y136118D01*
X273176D01*
X271469Y134412D01*
Y127588D01*
X273176Y125882D01*
X276588D01*
X278294Y127588D01*
X281706Y134412D02*
X283412Y136118D01*
X286824D01*
X288531Y134412D01*
Y132706D01*
X286824Y131000D01*
X288531Y129294D01*
Y127588D01*
X286824Y125882D01*
X283412D01*
X281706Y127588D01*
Y129294D01*
X283412Y131000D01*
X281706Y132706D01*
Y134412D01*
X283412Y131000D02*
X286824D01*
X131294Y153412D02*
X129588Y155118D01*
X126175D01*
X124469Y153412D01*
Y146588D01*
X126175Y144882D01*
X129588D01*
X131294Y146588D01*
X134706Y155118D02*
X141531D01*
Y153412D01*
X134706Y146588D01*
Y144882D01*
X199175Y123118D02*
Y112882D01*
X204294D01*
X206000Y114588D01*
Y116294D01*
X204294Y118000D01*
X199175D01*
X204294D01*
X206000Y119706D01*
Y121412D01*
X204294Y123118D01*
X199175D01*
X209412Y112882D02*
X212824D01*
X211118D01*
Y123118D01*
X209412Y121412D01*
D17*
X67001Y375999D02*
X63003D01*
Y373000D01*
X65002D01*
X63003D01*
Y370001D01*
X69001Y375999D02*
Y370001D01*
X72000D01*
X72999Y371001D01*
Y372000D01*
X72000Y373000D01*
X69001D01*
X72000D01*
X72999Y374000D01*
Y374999D01*
X72000Y375999D01*
X69001D01*
X78997Y370001D02*
X74999D01*
X78997Y374000D01*
Y374999D01*
X77998Y375999D01*
X75998D01*
X74999Y374999D01*
X355002Y9999D02*
Y4001D01*
X358001D01*
X359000Y5001D01*
Y8999D01*
X358001Y9999D01*
X355002D01*
X363999Y4001D02*
Y9999D01*
X361000Y7000D01*
X364998D01*
X330002Y10999D02*
Y5001D01*
X333001D01*
X334000Y6001D01*
Y9999D01*
X333001Y10999D01*
X330002D01*
X336000Y9999D02*
X336999Y10999D01*
X338999D01*
X339998Y9999D01*
Y9000D01*
X338999Y8000D01*
X337999D01*
X338999D01*
X339998Y7000D01*
Y6001D01*
X338999Y5001D01*
X336999D01*
X336000Y6001D01*
X300002Y10999D02*
Y5001D01*
X303001D01*
X304000Y6001D01*
Y9999D01*
X303001Y10999D01*
X300002D01*
X309998Y5001D02*
X306000D01*
X309998Y9000D01*
Y9999D01*
X308999Y10999D01*
X306999D01*
X306000Y9999D01*
X271001Y9999D02*
Y4001D01*
X274000D01*
X275000Y5001D01*
Y8999D01*
X274000Y9999D01*
X271001D01*
X276999Y4001D02*
X278999D01*
X277999D01*
Y9999D01*
X276999Y8999D01*
X402001Y415999D02*
X401002Y416999D01*
X399002D01*
X398003Y415999D01*
Y412001D01*
X399002Y411001D01*
X401002D01*
X402001Y412001D01*
X407999Y411001D02*
X404001D01*
X407999Y415000D01*
Y415999D01*
X407000Y416999D01*
X405000D01*
X404001Y415999D01*
X409999Y416999D02*
X413997D01*
Y415999D01*
X409999Y412001D01*
Y411001D01*
X130001Y404999D02*
X129002Y405999D01*
X127002D01*
X126003Y404999D01*
Y401001D01*
X127002Y400001D01*
X129002D01*
X130001Y401001D01*
X135999Y400001D02*
X132001D01*
X135999Y404000D01*
Y404999D01*
X135000Y405999D01*
X133000D01*
X132001Y404999D01*
X141997Y405999D02*
X139998Y404999D01*
X137999Y403000D01*
Y401001D01*
X138998Y400001D01*
X140998D01*
X141997Y401001D01*
Y402000D01*
X140998Y403000D01*
X137999D01*
X73001Y413999D02*
X72002Y414999D01*
X70002D01*
X69003Y413999D01*
Y410001D01*
X70002Y409001D01*
X72002D01*
X73001Y410001D01*
X78999Y409001D02*
X75001D01*
X78999Y413000D01*
Y413999D01*
X78000Y414999D01*
X76000D01*
X75001Y413999D01*
X84997Y414999D02*
X80999D01*
Y412000D01*
X82998Y413000D01*
X83998D01*
X84997Y412000D01*
Y410001D01*
X83998Y409001D01*
X81998D01*
X80999Y410001D01*
X118001Y347999D02*
X117002Y348999D01*
X115002D01*
X114003Y347999D01*
Y344001D01*
X115002Y343001D01*
X117002D01*
X118001Y344001D01*
X123999Y343001D02*
X120001D01*
X123999Y347000D01*
Y347999D01*
X123000Y348999D01*
X121000D01*
X120001Y347999D01*
X128998Y343001D02*
Y348999D01*
X125999Y346000D01*
X129997D01*
X104501Y216999D02*
X103502Y217999D01*
X101502D01*
X100502Y216999D01*
Y213001D01*
X101502Y212001D01*
X103502D01*
X104501Y213001D01*
X106501Y212001D02*
X108500D01*
X107500D01*
Y217999D01*
X106501Y216999D01*
X115498Y212001D02*
X111499D01*
X115498Y216000D01*
Y216999D01*
X114498Y217999D01*
X112499D01*
X111499Y216999D01*
X127000D02*
X126001Y217999D01*
X124001D01*
X123002Y216999D01*
Y213001D01*
X124001Y212001D01*
X126001D01*
X127000Y213001D01*
X132998Y217999D02*
X130999Y216999D01*
X129000Y215000D01*
Y213001D01*
X129999Y212001D01*
X131999D01*
X132998Y213001D01*
Y214000D01*
X131999Y215000D01*
X129000D01*
D18*
X342005Y68481D02*
D03*
X282000Y18530D02*
D03*
X372003Y68481D02*
D03*
X311999Y68479D02*
D03*
M02*
