G04*
G04 #@! TF.GenerationSoftware,Altium Limited,Altium Designer,22.5.1 (42)*
G04*
G04 Layer_Physical_Order=2*
G04 Layer_Color=8242323*
%FSLAX44Y44*%
%MOMM*%
G71*
G04*
G04 #@! TF.SameCoordinates,B7139921-243E-46E6-831D-1EB255EF57CC*
G04*
G04*
G04 #@! TF.FilePolarity,Positive*
G04*
G01*
G75*
%ADD11C,0.2000*%
%ADD14C,0.2540*%
G04:AMPARAMS|DCode=49|XSize=1mm|YSize=2.1mm|CornerRadius=0.5mm|HoleSize=0mm|Usage=FLASHONLY|Rotation=270.000|XOffset=0mm|YOffset=0mm|HoleType=Round|Shape=RoundedRectangle|*
%AMROUNDEDRECTD49*
21,1,1.0000,1.1000,0,0,270.0*
21,1,0.0000,2.1000,0,0,270.0*
1,1,1.0000,-0.5500,0.0000*
1,1,1.0000,-0.5500,0.0000*
1,1,1.0000,0.5500,0.0000*
1,1,1.0000,0.5500,0.0000*
%
%ADD49ROUNDEDRECTD49*%
G04:AMPARAMS|DCode=50|XSize=1mm|YSize=1.8mm|CornerRadius=0.5mm|HoleSize=0mm|Usage=FLASHONLY|Rotation=270.000|XOffset=0mm|YOffset=0mm|HoleType=Round|Shape=RoundedRectangle|*
%AMROUNDEDRECTD50*
21,1,1.0000,0.8000,0,0,270.0*
21,1,0.0000,1.8000,0,0,270.0*
1,1,1.0000,-0.4000,0.0000*
1,1,1.0000,-0.4000,0.0000*
1,1,1.0000,0.4000,0.0000*
1,1,1.0000,0.4000,0.0000*
%
%ADD50ROUNDEDRECTD50*%
%ADD63R,1.2000X2.5000*%
%ADD66C,1.1000*%
%ADD67C,1.2700*%
%ADD69C,0.7500*%
G36*
X418000Y416000D02*
Y3000D01*
X406731D01*
X406391Y4270D01*
X407459Y4886D01*
X409114Y6541D01*
X410284Y8569D01*
X410863Y10730D01*
X393137D01*
X393716Y8569D01*
X394886Y6541D01*
X396541Y4886D01*
X397609Y4270D01*
X397268Y3000D01*
X378368D01*
X377842Y4270D01*
X379114Y5541D01*
X380284Y7569D01*
X380890Y9830D01*
Y12170D01*
X380284Y14431D01*
X379114Y16459D01*
X377459Y18114D01*
X375431Y19284D01*
X373170Y19890D01*
X370830D01*
X368569Y19284D01*
X366541Y18114D01*
X364886Y16459D01*
X363716Y14431D01*
X363110Y12170D01*
Y9830D01*
X363716Y7569D01*
X364886Y5541D01*
X366158Y4270D01*
X365632Y3000D01*
X1000D01*
Y418000D01*
X417000D01*
X418000Y416000D01*
D02*
G37*
%LPC*%
G36*
X51259Y403440D02*
X49142D01*
X47097Y402892D01*
X45263Y401834D01*
X43850Y400420D01*
X42437Y401834D01*
X40603Y402892D01*
X38558Y403440D01*
X36442D01*
X34397Y402892D01*
X32563Y401834D01*
X31066Y400337D01*
X30008Y398503D01*
X29460Y396459D01*
Y394342D01*
X30008Y392297D01*
X31066Y390463D01*
X32480Y389050D01*
X31066Y387637D01*
X30008Y385803D01*
X29460Y383759D01*
Y381642D01*
X30008Y379597D01*
X31066Y377763D01*
X32480Y376350D01*
X31066Y374937D01*
X30008Y373103D01*
X29460Y371059D01*
Y368941D01*
X30008Y366897D01*
X31066Y365063D01*
X32480Y363650D01*
X31066Y362237D01*
X30008Y360403D01*
X29460Y358358D01*
Y356241D01*
X30008Y354197D01*
X31066Y352363D01*
X32480Y350950D01*
X31066Y349537D01*
X30008Y347703D01*
X29460Y345658D01*
Y343541D01*
X30008Y341497D01*
X31066Y339663D01*
X32563Y338166D01*
X34397Y337108D01*
X36442Y336560D01*
X38558D01*
X40603Y337108D01*
X42437Y338166D01*
X43850Y339580D01*
X45263Y338166D01*
X47097Y337108D01*
X49142Y336560D01*
X51259D01*
X53303Y337108D01*
X55137Y338166D01*
X56634Y339663D01*
X57692Y341497D01*
X58240Y343541D01*
Y345658D01*
X57692Y347703D01*
X56634Y349537D01*
X55220Y350950D01*
X56634Y352363D01*
X57692Y354197D01*
X58240Y356241D01*
Y358358D01*
X57692Y360403D01*
X56634Y362237D01*
X55220Y363650D01*
X56634Y365063D01*
X57692Y366897D01*
X58183Y368730D01*
X50200D01*
Y371270D01*
X58183D01*
X57692Y373103D01*
X56634Y374937D01*
X55220Y376350D01*
X56634Y377763D01*
X57692Y379597D01*
X58183Y381430D01*
X50200D01*
Y383970D01*
X58183D01*
X57692Y385803D01*
X56634Y387637D01*
X55220Y389050D01*
X56634Y390463D01*
X57692Y392297D01*
X58240Y394342D01*
Y396459D01*
X57692Y398503D01*
X56634Y400337D01*
X55137Y401834D01*
X53303Y402892D01*
X51259Y403440D01*
D02*
G37*
G36*
X346170Y397890D02*
X343830D01*
X341569Y397284D01*
X339541Y396114D01*
X337886Y394459D01*
X336716Y392431D01*
X336110Y390170D01*
Y387830D01*
X336716Y385569D01*
X337886Y383541D01*
X339541Y381886D01*
X341569Y380716D01*
X343830Y380110D01*
X346170D01*
X348431Y380716D01*
X350459Y381886D01*
X352114Y383541D01*
X353284Y385569D01*
X353890Y387830D01*
Y390170D01*
X353284Y392431D01*
X352114Y394459D01*
X350459Y396114D01*
X348431Y397284D01*
X346170Y397890D01*
D02*
G37*
G36*
X166657Y388290D02*
X164155D01*
X161843Y387332D01*
X160074Y385563D01*
X159116Y383251D01*
Y380749D01*
X160074Y378437D01*
X161843Y376668D01*
X164155Y375710D01*
X166657D01*
X168969Y376668D01*
X170738Y378437D01*
X171696Y380749D01*
Y383251D01*
X170738Y385563D01*
X168969Y387332D01*
X166657Y388290D01*
D02*
G37*
G36*
X135461Y373425D02*
Y365831D01*
X143054D01*
X142475Y367993D01*
X141305Y370020D01*
X139650Y371675D01*
X137622Y372845D01*
X135461Y373425D01*
D02*
G37*
G36*
X132921D02*
X130760Y372845D01*
X128733Y371675D01*
X127077Y370020D01*
X125907Y367993D01*
X125328Y365831D01*
X132921D01*
Y373425D01*
D02*
G37*
G36*
X143054Y363291D02*
X135461D01*
Y355698D01*
X137622Y356277D01*
X139650Y357448D01*
X141305Y359103D01*
X142475Y361130D01*
X143054Y363291D01*
D02*
G37*
G36*
X132921D02*
X125328D01*
X125907Y361130D01*
X127077Y359103D01*
X128733Y357448D01*
X130760Y356277D01*
X132921Y355698D01*
Y363291D01*
D02*
G37*
G36*
X399270Y362863D02*
Y355270D01*
X406863D01*
X406284Y357431D01*
X405114Y359459D01*
X403459Y361114D01*
X401431Y362284D01*
X399270Y362863D01*
D02*
G37*
G36*
X396730D02*
X394569Y362284D01*
X392541Y361114D01*
X390886Y359459D01*
X389716Y357431D01*
X389137Y355270D01*
X396730D01*
Y362863D01*
D02*
G37*
G36*
X185630D02*
Y355270D01*
X193223D01*
X192644Y357431D01*
X191474Y359459D01*
X189819Y361114D01*
X187791Y362284D01*
X185630Y362863D01*
D02*
G37*
G36*
X183090D02*
X180929Y362284D01*
X178901Y361114D01*
X177246Y359459D01*
X176076Y357431D01*
X175497Y355270D01*
X183090D01*
Y362863D01*
D02*
G37*
G36*
X406863Y352730D02*
X399270D01*
Y345137D01*
X401431Y345716D01*
X403459Y346886D01*
X405114Y348541D01*
X406284Y350569D01*
X406863Y352730D01*
D02*
G37*
G36*
X396730D02*
X389137D01*
X389716Y350569D01*
X390886Y348541D01*
X392541Y346886D01*
X394569Y345716D01*
X396730Y345137D01*
Y352730D01*
D02*
G37*
G36*
X193223D02*
X185630D01*
Y345137D01*
X187791Y345716D01*
X189819Y346886D01*
X191474Y348541D01*
X192644Y350569D01*
X193223Y352730D01*
D02*
G37*
G36*
X183090D02*
X175497D01*
X176076Y350569D01*
X177246Y348541D01*
X178901Y346886D01*
X180929Y345716D01*
X183090Y345137D01*
Y352730D01*
D02*
G37*
G36*
X263170Y356890D02*
X260830D01*
X258569Y356284D01*
X256541Y355114D01*
X254886Y353459D01*
X253716Y351431D01*
X253110Y349170D01*
Y346830D01*
X253716Y344569D01*
X254886Y342541D01*
X256541Y340886D01*
X258569Y339716D01*
X260830Y339110D01*
X263170D01*
X265431Y339716D01*
X267459Y340886D01*
X269114Y342541D01*
X270284Y344569D01*
X270890Y346830D01*
Y349170D01*
X270284Y351431D01*
X269114Y353459D01*
X267459Y355114D01*
X265431Y356284D01*
X263170Y356890D01*
D02*
G37*
G36*
X32796Y320184D02*
X30066D01*
Y313849D01*
X40234D01*
X40142Y314547D01*
X39382Y316381D01*
X38173Y317956D01*
X36598Y319165D01*
X34764Y319925D01*
X32796Y320184D01*
D02*
G37*
G36*
X27526D02*
X24796D01*
X22828Y319925D01*
X20993Y319165D01*
X19418Y317956D01*
X18210Y316381D01*
X17450Y314547D01*
X17358Y313849D01*
X27526D01*
Y320184D01*
D02*
G37*
G36*
X69326D02*
X65096D01*
X63127Y319925D01*
X61293Y319165D01*
X59718Y317956D01*
X58510Y316381D01*
X57750Y314547D01*
X57658Y313849D01*
X69326D01*
Y320184D01*
D02*
G37*
G36*
X225138Y329885D02*
X103302D01*
X101815Y329589D01*
X100555Y328747D01*
X84913Y313105D01*
X83572Y313560D01*
X83442Y314547D01*
X82682Y316381D01*
X81474Y317956D01*
X79898Y319165D01*
X78064Y319925D01*
X76096Y320184D01*
X71866D01*
Y312579D01*
X70596D01*
Y311309D01*
X57658D01*
X57750Y310610D01*
X58510Y308776D01*
X59718Y307201D01*
X61293Y305992D01*
X63127Y305233D01*
X63741Y305152D01*
X63912Y303848D01*
X62316Y303187D01*
X60687Y301558D01*
X59806Y299430D01*
Y297127D01*
X60207Y296159D01*
X59501Y295103D01*
X46219D01*
X44732Y294807D01*
X43472Y293965D01*
X30796Y281290D01*
X28749D01*
X26437Y280332D01*
X24668Y278563D01*
X23710Y276251D01*
Y273749D01*
X24668Y271437D01*
X26437Y269668D01*
X27569Y269199D01*
Y267824D01*
X25976Y267164D01*
X24206Y265395D01*
X23249Y263083D01*
Y260581D01*
X24206Y258269D01*
X25976Y256499D01*
X28288Y255542D01*
X30790D01*
X33102Y256499D01*
X34871Y258269D01*
X35829Y260581D01*
Y262628D01*
X56195Y282994D01*
X71219D01*
X72705Y283290D01*
X73965Y284132D01*
X107609Y317775D01*
X220102D01*
X220354Y316508D01*
X220352Y316504D01*
X219198Y316026D01*
X217428Y314257D01*
X216471Y311945D01*
Y309443D01*
X217428Y307131D01*
X219198Y305362D01*
X221510Y304404D01*
X224012D01*
X226324Y305362D01*
X228093Y307131D01*
X228571Y308285D01*
X230070Y308583D01*
X272041Y266612D01*
X273301Y265770D01*
X274622Y265507D01*
X274668Y265397D01*
X276437Y263628D01*
X278749Y262670D01*
X281251D01*
X283563Y263628D01*
X285332Y265397D01*
X286290Y267709D01*
Y270211D01*
X285332Y272523D01*
X283563Y274292D01*
X283559Y274315D01*
X285007Y275763D01*
X285964Y278075D01*
Y280577D01*
X285007Y282889D01*
X283237Y284658D01*
X280925Y285616D01*
X278423D01*
X276111Y284658D01*
X274342Y282889D01*
X273213Y283419D01*
X227885Y328747D01*
X226624Y329589D01*
X225138Y329885D01*
D02*
G37*
G36*
X40234Y311309D02*
X30066D01*
Y304974D01*
X32796D01*
X34764Y305233D01*
X36598Y305992D01*
X38173Y307201D01*
X39382Y308776D01*
X40142Y310610D01*
X40234Y311309D01*
D02*
G37*
G36*
X27526D02*
X17358D01*
X17450Y310610D01*
X18210Y308776D01*
X19418Y307201D01*
X20993Y305992D01*
X22828Y305233D01*
X24796Y304974D01*
X27526D01*
Y311309D01*
D02*
G37*
G36*
X287251Y316290D02*
X284749D01*
X282437Y315332D01*
X280668Y313563D01*
X279710Y311251D01*
Y308749D01*
X280668Y306437D01*
X282437Y304668D01*
X282516Y304635D01*
Y303365D01*
X282437Y303332D01*
X280988Y301884D01*
X279572Y301984D01*
X279332Y302563D01*
X277563Y304332D01*
X275251Y305290D01*
X272749D01*
X270437Y304332D01*
X268668Y302563D01*
X267710Y300251D01*
Y297749D01*
X268668Y295437D01*
X270437Y293668D01*
X272749Y292710D01*
X275251D01*
X277563Y293668D01*
X279012Y295116D01*
X280428Y295016D01*
X280668Y294437D01*
X282437Y292668D01*
X284749Y291710D01*
X287251D01*
X289563Y292668D01*
X291332Y294437D01*
X292290Y296749D01*
Y299251D01*
X291332Y301563D01*
X289563Y303332D01*
X289484Y303365D01*
Y304635D01*
X289563Y304668D01*
X291332Y306437D01*
X292290Y308749D01*
Y311251D01*
X291332Y313563D01*
X289563Y315332D01*
X287251Y316290D01*
D02*
G37*
G36*
X339480Y307539D02*
Y299946D01*
X347074D01*
X346494Y302107D01*
X345324Y304134D01*
X343669Y305789D01*
X341642Y306960D01*
X339480Y307539D01*
D02*
G37*
G36*
X336940D02*
X334779Y306960D01*
X332752Y305789D01*
X331096Y304134D01*
X329926Y302107D01*
X329347Y299946D01*
X336940D01*
Y307539D01*
D02*
G37*
G36*
X191170Y309694D02*
X188830D01*
X186569Y309088D01*
X184541Y307918D01*
X182886Y306263D01*
X181716Y304235D01*
X181110Y301974D01*
Y299634D01*
X181716Y297373D01*
X182886Y295345D01*
X184541Y293690D01*
X186569Y292520D01*
X188830Y291914D01*
X191170D01*
X193431Y292520D01*
X195459Y293690D01*
X197114Y295345D01*
X198284Y297373D01*
X198890Y299634D01*
Y301974D01*
X198284Y304235D01*
X197114Y306263D01*
X195459Y307918D01*
X193431Y309088D01*
X191170Y309694D01*
D02*
G37*
G36*
X347074Y297406D02*
X339480D01*
Y289812D01*
X341642Y290391D01*
X343669Y291562D01*
X345324Y293217D01*
X346494Y295244D01*
X347074Y297406D01*
D02*
G37*
G36*
X336940D02*
X329347D01*
X329926Y295244D01*
X331096Y293217D01*
X332752Y291562D01*
X334779Y290391D01*
X336940Y289812D01*
Y297406D01*
D02*
G37*
G36*
X97331Y301278D02*
X94828D01*
X92516Y300320D01*
X90747Y298551D01*
X89789Y296239D01*
Y293737D01*
X90747Y291425D01*
X92516Y289655D01*
X94828Y288698D01*
X97331D01*
X99642Y289655D01*
X101412Y291425D01*
X102369Y293737D01*
Y296239D01*
X101412Y298551D01*
X99642Y300320D01*
X97331Y301278D01*
D02*
G37*
G36*
X362270Y286863D02*
Y279270D01*
X369863D01*
X369284Y281431D01*
X368114Y283459D01*
X366459Y285114D01*
X364431Y286284D01*
X362270Y286863D01*
D02*
G37*
G36*
X359730D02*
X357569Y286284D01*
X355541Y285114D01*
X353886Y283459D01*
X352716Y281431D01*
X352137Y279270D01*
X359730D01*
Y286863D01*
D02*
G37*
G36*
X402160Y285863D02*
Y278270D01*
X409753D01*
X409174Y280431D01*
X408004Y282459D01*
X406349Y284114D01*
X404321Y285284D01*
X402160Y285863D01*
D02*
G37*
G36*
X399620D02*
X397459Y285284D01*
X395431Y284114D01*
X393776Y282459D01*
X392606Y280431D01*
X392027Y278270D01*
X399620D01*
Y285863D01*
D02*
G37*
G36*
X139270Y283281D02*
Y278269D01*
X144282D01*
X143333Y280562D01*
X141563Y282331D01*
X139270Y283281D01*
D02*
G37*
G36*
X136730D02*
X134437Y282331D01*
X132668Y280562D01*
X131718Y278269D01*
X136730D01*
Y283281D01*
D02*
G37*
G36*
X144282Y275729D02*
X139270D01*
Y270717D01*
X141563Y271666D01*
X143333Y273436D01*
X144282Y275729D01*
D02*
G37*
G36*
X136730D02*
X131718D01*
X132668Y273436D01*
X134437Y271666D01*
X136730Y270717D01*
Y275729D01*
D02*
G37*
G36*
X369863Y276730D02*
X362270D01*
Y269137D01*
X364431Y269716D01*
X366459Y270886D01*
X368114Y272541D01*
X369284Y274569D01*
X369863Y276730D01*
D02*
G37*
G36*
X359730D02*
X352137D01*
X352716Y274569D01*
X353886Y272541D01*
X355541Y270886D01*
X357569Y269716D01*
X359730Y269137D01*
Y276730D01*
D02*
G37*
G36*
X409753Y275730D02*
X402160D01*
Y268137D01*
X404321Y268716D01*
X406349Y269886D01*
X408004Y271541D01*
X409174Y273569D01*
X409753Y275730D01*
D02*
G37*
G36*
X399620D02*
X392027D01*
X392606Y273569D01*
X393776Y271541D01*
X395431Y269886D01*
X397459Y268716D01*
X399620Y268137D01*
Y275730D01*
D02*
G37*
G36*
X104506Y278287D02*
X102003D01*
X99692Y277330D01*
X97922Y275560D01*
X96965Y273248D01*
Y270746D01*
X97922Y268434D01*
X99692Y266665D01*
X102003Y265707D01*
X104506D01*
X106818Y266665D01*
X108587Y268434D01*
X109545Y270746D01*
Y273248D01*
X108587Y275560D01*
X106818Y277330D01*
X104506Y278287D01*
D02*
G37*
G36*
X192993Y288540D02*
X191007D01*
X189090Y288026D01*
X187370Y287034D01*
X185966Y285630D01*
X184974Y283910D01*
X184460Y281993D01*
Y280007D01*
X184974Y278090D01*
X185966Y276370D01*
X187016Y275321D01*
X187045Y274804D01*
X186913Y274105D01*
X186774Y273844D01*
X185370Y273034D01*
X183967Y271630D01*
X182974Y269910D01*
X182460Y267993D01*
Y266007D01*
X182974Y264090D01*
X183967Y262370D01*
X185370Y260966D01*
X187090Y259974D01*
X189007Y259460D01*
X190993D01*
X192910Y259974D01*
X194630Y260966D01*
X196033Y262370D01*
X197026Y264090D01*
X197540Y266007D01*
Y267993D01*
X197026Y269910D01*
X196033Y271630D01*
X194984Y272679D01*
X194955Y273196D01*
X195087Y273895D01*
X195226Y274156D01*
X196630Y274967D01*
X198034Y276370D01*
X199026Y278090D01*
X199540Y280007D01*
Y281993D01*
X199026Y283910D01*
X198034Y285630D01*
X196630Y287034D01*
X194910Y288026D01*
X192993Y288540D01*
D02*
G37*
G36*
X210425Y263424D02*
X208084D01*
X205823Y262818D01*
X203796Y261648D01*
X202141Y259993D01*
X200970Y257965D01*
X200365Y255704D01*
Y253363D01*
X200970Y251103D01*
X202141Y249075D01*
X203796Y247420D01*
X205823Y246250D01*
X208084Y245644D01*
X210425D01*
X212686Y246250D01*
X214713Y247420D01*
X216369Y249075D01*
X216425Y249174D01*
X217684Y249008D01*
X217716Y248890D01*
X218886Y246863D01*
X220541Y245208D01*
X222569Y244038D01*
X224830Y243432D01*
X227170D01*
X229431Y244038D01*
X231459Y245208D01*
X233114Y246863D01*
X234284Y248890D01*
X234890Y251151D01*
Y253492D01*
X234284Y255753D01*
X233114Y257780D01*
X231459Y259436D01*
X229431Y260606D01*
X227170Y261212D01*
X224830D01*
X222569Y260606D01*
X220541Y259436D01*
X218886Y257780D01*
X218829Y257682D01*
X217570Y257848D01*
X217539Y257965D01*
X216369Y259993D01*
X214713Y261648D01*
X212686Y262818D01*
X210425Y263424D01*
D02*
G37*
G36*
X263170Y259890D02*
X260830D01*
X258569Y259284D01*
X256541Y258114D01*
X254886Y256459D01*
X253716Y254431D01*
X253110Y252170D01*
Y249830D01*
X253716Y247569D01*
X254886Y245541D01*
X256541Y243886D01*
X258569Y242716D01*
X260830Y242110D01*
X263170D01*
X265431Y242716D01*
X267459Y243886D01*
X269114Y245541D01*
X270284Y247569D01*
X270890Y249830D01*
Y252170D01*
X270284Y254431D01*
X269114Y256459D01*
X267459Y258114D01*
X265431Y259284D01*
X263170Y259890D01*
D02*
G37*
G36*
X108270Y236503D02*
Y228910D01*
X115863D01*
X115284Y231071D01*
X114114Y233099D01*
X112459Y234754D01*
X110431Y235924D01*
X108270Y236503D01*
D02*
G37*
G36*
X105730D02*
X103569Y235924D01*
X101541Y234754D01*
X99886Y233099D01*
X98716Y231071D01*
X98137Y228910D01*
X105730D01*
Y236503D01*
D02*
G37*
G36*
X76096Y233784D02*
X71866D01*
Y227449D01*
X83534D01*
X83442Y228147D01*
X82682Y229981D01*
X81474Y231556D01*
X79898Y232765D01*
X78064Y233525D01*
X76096Y233784D01*
D02*
G37*
G36*
X32796D02*
X30066D01*
Y227449D01*
X40234D01*
X40142Y228147D01*
X39382Y229981D01*
X38173Y231556D01*
X36598Y232765D01*
X34764Y233525D01*
X32796Y233784D01*
D02*
G37*
G36*
X27526D02*
X24796D01*
X22828Y233525D01*
X20993Y232765D01*
X19418Y231556D01*
X18210Y229981D01*
X17450Y228147D01*
X17358Y227449D01*
X27526D01*
Y233784D01*
D02*
G37*
G36*
X66748Y246269D02*
X64444D01*
X62316Y245387D01*
X60687Y243758D01*
X59806Y241630D01*
Y239327D01*
X60687Y237199D01*
X62316Y235570D01*
X63912Y234909D01*
X63741Y233605D01*
X63127Y233525D01*
X61293Y232765D01*
X59718Y231556D01*
X58510Y229981D01*
X57750Y228147D01*
X57658Y227449D01*
X69326D01*
Y233784D01*
X67882D01*
X67629Y235054D01*
X68876Y235570D01*
X70504Y237199D01*
X71386Y239327D01*
Y241630D01*
X70504Y243758D01*
X68876Y245387D01*
X66748Y246269D01*
D02*
G37*
G36*
X346170Y242890D02*
X343830D01*
X341569Y242284D01*
X339541Y241114D01*
X337886Y239459D01*
X336716Y237431D01*
X336110Y235170D01*
Y232830D01*
X336716Y230569D01*
X337886Y228541D01*
X339541Y226886D01*
X341569Y225716D01*
X343830Y225110D01*
X346170D01*
X348431Y225716D01*
X350459Y226886D01*
X352114Y228541D01*
X353284Y230569D01*
X353890Y232830D01*
Y235170D01*
X353284Y237431D01*
X352114Y239459D01*
X350459Y241114D01*
X348431Y242284D01*
X346170Y242890D01*
D02*
G37*
G36*
X115863Y226370D02*
X108270D01*
Y218777D01*
X110431Y219356D01*
X112459Y220526D01*
X114114Y222181D01*
X115284Y224209D01*
X115863Y226370D01*
D02*
G37*
G36*
X105730D02*
X98137D01*
X98716Y224209D01*
X99886Y222181D01*
X101541Y220526D01*
X103569Y219356D01*
X105730Y218777D01*
Y226370D01*
D02*
G37*
G36*
X83534Y224909D02*
X71866D01*
Y218574D01*
X76096D01*
X78064Y218833D01*
X79898Y219592D01*
X81474Y220801D01*
X82682Y222376D01*
X83442Y224210D01*
X83534Y224909D01*
D02*
G37*
G36*
X69326D02*
X57658D01*
X57750Y224210D01*
X58510Y222376D01*
X59718Y220801D01*
X61293Y219592D01*
X63127Y218833D01*
X65096Y218574D01*
X69326D01*
Y224909D01*
D02*
G37*
G36*
X40234D02*
X30066D01*
Y218574D01*
X32796D01*
X34764Y218833D01*
X36598Y219592D01*
X38173Y220801D01*
X39382Y222376D01*
X40142Y224210D01*
X40234Y224909D01*
D02*
G37*
G36*
X27526D02*
X17358D01*
X17450Y224210D01*
X18210Y222376D01*
X19418Y220801D01*
X20993Y219592D01*
X22828Y218833D01*
X24796Y218574D01*
X27526D01*
Y224909D01*
D02*
G37*
G36*
X211630Y224863D02*
Y217270D01*
X219223D01*
X218644Y219431D01*
X217474Y221459D01*
X215819Y223114D01*
X213791Y224284D01*
X211630Y224863D01*
D02*
G37*
G36*
X209090D02*
X206929Y224284D01*
X204901Y223114D01*
X203246Y221459D01*
X202076Y219431D01*
X201497Y217270D01*
X209090D01*
Y224863D01*
D02*
G37*
G36*
X265960Y231693D02*
X263620D01*
X261359Y231088D01*
X259331Y229917D01*
X257676Y228262D01*
X256506Y226235D01*
X255900Y223974D01*
Y221633D01*
X256506Y219372D01*
X257676Y217345D01*
X259331Y215690D01*
X261359Y214519D01*
X263620Y213913D01*
X265960D01*
X268221Y214519D01*
X270249Y215690D01*
X271904Y217345D01*
X273074Y219372D01*
X273680Y221633D01*
Y223974D01*
X273074Y226235D01*
X271904Y228262D01*
X270249Y229917D01*
X268221Y231088D01*
X265960Y231693D01*
D02*
G37*
G36*
X240270Y215863D02*
Y208270D01*
X247863D01*
X247284Y210431D01*
X246113Y212458D01*
X244458Y214113D01*
X242431Y215284D01*
X240270Y215863D01*
D02*
G37*
G36*
X237729D02*
X235568Y215284D01*
X233541Y214113D01*
X231886Y212458D01*
X230715Y210431D01*
X230136Y208270D01*
X237729D01*
Y215863D01*
D02*
G37*
G36*
X219223Y214730D02*
X211630D01*
Y207137D01*
X213791Y207716D01*
X215819Y208886D01*
X217474Y210541D01*
X218644Y212569D01*
X219223Y214730D01*
D02*
G37*
G36*
X209090D02*
X201497D01*
X202076Y212569D01*
X203246Y210541D01*
X204901Y208886D01*
X206929Y207716D01*
X209090Y207137D01*
Y214730D01*
D02*
G37*
G36*
X184810Y224890D02*
X182470D01*
X180209Y224284D01*
X178181Y223114D01*
X176526Y221459D01*
X175356Y219431D01*
X174750Y217170D01*
Y214830D01*
X175356Y212569D01*
X176526Y210541D01*
X178181Y208886D01*
X180209Y207716D01*
X182470Y207110D01*
X184810D01*
X187071Y207716D01*
X189099Y208886D01*
X190754Y210541D01*
X191924Y212569D01*
X192530Y214830D01*
Y217170D01*
X191924Y219431D01*
X190754Y221459D01*
X189099Y223114D01*
X187071Y224284D01*
X184810Y224890D01*
D02*
G37*
G36*
X98541Y218290D02*
X96039D01*
X93727Y217332D01*
X91958Y215563D01*
X91000Y213251D01*
Y210749D01*
X91958Y208437D01*
X93727Y206668D01*
X96039Y205710D01*
X98541D01*
X100853Y206668D01*
X102622Y208437D01*
X103580Y210749D01*
Y213251D01*
X102622Y215563D01*
X100853Y217332D01*
X98541Y218290D01*
D02*
G37*
G36*
X292251Y215290D02*
X289749D01*
X287437Y214332D01*
X285668Y212563D01*
X284710Y210251D01*
Y207749D01*
X285668Y205437D01*
X287437Y203668D01*
X289749Y202710D01*
X292251D01*
X294563Y203668D01*
X296332Y205437D01*
X297290Y207749D01*
Y210251D01*
X296332Y212563D01*
X294563Y214332D01*
X292251Y215290D01*
D02*
G37*
G36*
X247863Y205730D02*
X240270D01*
Y198136D01*
X242431Y198715D01*
X244458Y199886D01*
X246113Y201541D01*
X247284Y203568D01*
X247863Y205730D01*
D02*
G37*
G36*
X237729D02*
X230136D01*
X230715Y203568D01*
X231886Y201541D01*
X233541Y199886D01*
X235568Y198715D01*
X237729Y198136D01*
Y205730D01*
D02*
G37*
G36*
X77251Y210580D02*
X74749D01*
X72437Y209622D01*
X70668Y207853D01*
X69710Y205541D01*
Y203039D01*
X70668Y200727D01*
X72437Y198958D01*
X74749Y198000D01*
X77251D01*
X79563Y198958D01*
X81332Y200727D01*
X82290Y203039D01*
Y205541D01*
X81332Y207853D01*
X79563Y209622D01*
X77251Y210580D01*
D02*
G37*
G36*
X337993Y206540D02*
X336007D01*
X334090Y206026D01*
X332370Y205033D01*
X330966Y203630D01*
X329974Y201910D01*
X329460Y199993D01*
Y198007D01*
X329974Y196090D01*
X330966Y194370D01*
X332370Y192966D01*
X334090Y191974D01*
X336007Y191460D01*
X337993D01*
X339910Y191974D01*
X341630Y192966D01*
X343033Y194370D01*
X344026Y196090D01*
X344540Y198007D01*
Y199993D01*
X344026Y201910D01*
X343033Y203630D01*
X341630Y205033D01*
X339910Y206026D01*
X337993Y206540D01*
D02*
G37*
G36*
X354993Y204000D02*
X353007D01*
X351090Y203486D01*
X349370Y202493D01*
X347966Y201090D01*
X346974Y199370D01*
X346460Y197453D01*
Y195467D01*
X346974Y193550D01*
X347966Y191830D01*
X349370Y190427D01*
X351090Y189434D01*
X353007Y188920D01*
X354993D01*
X356910Y189434D01*
X358630Y190427D01*
X360033Y191830D01*
X361026Y193550D01*
X361540Y195467D01*
Y197453D01*
X361026Y199370D01*
X360033Y201090D01*
X358630Y202493D01*
X356910Y203486D01*
X354993Y204000D01*
D02*
G37*
G36*
X267170Y205890D02*
X264830D01*
X262569Y205284D01*
X260541Y204114D01*
X258886Y202459D01*
X257716Y200431D01*
X257110Y198170D01*
Y195830D01*
X257716Y193569D01*
X258886Y191541D01*
X260541Y189886D01*
X262569Y188716D01*
X264830Y188110D01*
X267170D01*
X269431Y188716D01*
X271459Y189886D01*
X273114Y191541D01*
X274284Y193569D01*
X274890Y195830D01*
Y198170D01*
X274284Y200431D01*
X273114Y202459D01*
X271459Y204114D01*
X269431Y205284D01*
X267170Y205890D01*
D02*
G37*
G36*
X200251Y198290D02*
X197749D01*
X195437Y197332D01*
X193668Y195563D01*
X192710Y193251D01*
Y190749D01*
X193668Y188437D01*
X195437Y186668D01*
X197749Y185710D01*
X200186D01*
X210448Y175448D01*
X211619Y174665D01*
X213000Y174391D01*
X307427D01*
X307443Y174352D01*
X309213Y172582D01*
X311524Y171625D01*
X314027D01*
X316339Y172582D01*
X318108Y174352D01*
X319066Y176664D01*
Y179166D01*
X318108Y181478D01*
X316339Y183247D01*
X314027Y184205D01*
X311524D01*
X309213Y183247D01*
X307575Y181609D01*
X214495D01*
X205290Y190814D01*
Y193251D01*
X204332Y195563D01*
X202563Y197332D01*
X200251Y198290D01*
D02*
G37*
G36*
X152910Y158863D02*
Y151270D01*
X160503D01*
X159924Y153431D01*
X158754Y155459D01*
X157099Y157114D01*
X155071Y158284D01*
X152910Y158863D01*
D02*
G37*
G36*
X150370D02*
X148209Y158284D01*
X146181Y157114D01*
X144526Y155459D01*
X143356Y153431D01*
X142777Y151270D01*
X150370D01*
Y158863D01*
D02*
G37*
G36*
X64000Y180114D02*
X61771Y179820D01*
X59693Y178960D01*
X57909Y177591D01*
X56540Y175807D01*
X55680Y173729D01*
X55386Y171500D01*
Y158500D01*
X55680Y156271D01*
X56540Y154193D01*
X57909Y152409D01*
X59693Y151040D01*
X61771Y150180D01*
X64000Y149886D01*
X66229Y150180D01*
X68307Y151040D01*
X70091Y152409D01*
X71460Y154193D01*
X72320Y156271D01*
X72614Y158500D01*
Y171500D01*
X72320Y173729D01*
X71460Y175807D01*
X70091Y177591D01*
X68307Y178960D01*
X66229Y179820D01*
X64000Y180114D01*
D02*
G37*
G36*
X38600D02*
X36371Y179820D01*
X34293Y178960D01*
X32509Y177591D01*
X31140Y175807D01*
X30280Y173729D01*
X29986Y171500D01*
Y158500D01*
X30280Y156271D01*
X31140Y154193D01*
X32509Y152409D01*
X34293Y151040D01*
X36371Y150180D01*
X38600Y149886D01*
X40829Y150180D01*
X42907Y151040D01*
X44691Y152409D01*
X46060Y154193D01*
X46920Y156271D01*
X47214Y158500D01*
Y171500D01*
X46920Y173729D01*
X46060Y175807D01*
X44691Y177591D01*
X42907Y178960D01*
X40829Y179820D01*
X38600Y180114D01*
D02*
G37*
G36*
X13200D02*
X10971Y179820D01*
X8893Y178960D01*
X7109Y177591D01*
X5740Y175807D01*
X4880Y173729D01*
X4586Y171500D01*
Y158500D01*
X4880Y156271D01*
X5740Y154193D01*
X7109Y152409D01*
X8893Y151040D01*
X10971Y150180D01*
X13200Y149886D01*
X15429Y150180D01*
X17507Y151040D01*
X19291Y152409D01*
X20660Y154193D01*
X21520Y156271D01*
X21814Y158500D01*
Y171500D01*
X21520Y173729D01*
X20660Y175807D01*
X19291Y177591D01*
X17507Y178960D01*
X15429Y179820D01*
X13200Y180114D01*
D02*
G37*
G36*
X280921Y156874D02*
Y149281D01*
X288514D01*
X287935Y151442D01*
X286765Y153470D01*
X285110Y155125D01*
X283083Y156295D01*
X280921Y156874D01*
D02*
G37*
G36*
X278381D02*
X276220Y156295D01*
X274193Y155125D01*
X272537Y153470D01*
X271367Y151442D01*
X270788Y149281D01*
X278381D01*
Y156874D01*
D02*
G37*
G36*
X236270Y156863D02*
Y149270D01*
X243863D01*
X243284Y151431D01*
X242114Y153459D01*
X240459Y155114D01*
X238431Y156284D01*
X236270Y156863D01*
D02*
G37*
G36*
X233730D02*
X231569Y156284D01*
X229541Y155114D01*
X227886Y153459D01*
X226716Y151431D01*
X226137Y149270D01*
X233730D01*
Y156863D01*
D02*
G37*
G36*
X323170Y167890D02*
X320830D01*
X318569Y167284D01*
X316541Y166114D01*
X314886Y164459D01*
X313716Y162431D01*
X313110Y160170D01*
Y157830D01*
X313716Y155569D01*
X314886Y153541D01*
X316541Y151886D01*
X318569Y150716D01*
X320830Y150110D01*
X323170D01*
X325431Y150716D01*
X327459Y151886D01*
X329114Y153541D01*
X330018Y155108D01*
X331381Y154928D01*
X331716Y153679D01*
X332886Y151651D01*
X334541Y149996D01*
X336569Y148826D01*
X338830Y148220D01*
X341170D01*
X343431Y148826D01*
X345459Y149996D01*
X347114Y151651D01*
X348284Y153679D01*
X348890Y155940D01*
Y158280D01*
X348284Y160541D01*
X347114Y162569D01*
X345459Y164224D01*
X343431Y165394D01*
X341170Y166000D01*
X338830D01*
X336569Y165394D01*
X334541Y164224D01*
X332886Y162569D01*
X331982Y161002D01*
X330619Y161182D01*
X330284Y162431D01*
X329114Y164459D01*
X327459Y166114D01*
X325431Y167284D01*
X323170Y167890D01*
D02*
G37*
G36*
X89400Y180114D02*
X87171Y179820D01*
X85093Y178960D01*
X83309Y177591D01*
X81940Y175807D01*
X81080Y173729D01*
X80786Y171500D01*
Y158500D01*
X81080Y156271D01*
X81940Y154193D01*
X83309Y152409D01*
X85093Y151040D01*
X87171Y150180D01*
X89400Y149886D01*
X91629Y150180D01*
X93707Y151040D01*
X95491Y152409D01*
X96195Y153327D01*
X97305Y152687D01*
X96710Y151251D01*
Y148749D01*
X97668Y146437D01*
X99437Y144668D01*
X101749Y143710D01*
X104251D01*
X106563Y144668D01*
X108332Y146437D01*
X109290Y148749D01*
Y151251D01*
X108332Y153563D01*
X106563Y155332D01*
X104251Y156290D01*
X101749D01*
X99437Y155332D01*
X98189Y154085D01*
X97113Y154804D01*
X97720Y156271D01*
X98014Y158500D01*
Y171500D01*
X97720Y173729D01*
X96860Y175807D01*
X95491Y177591D01*
X93707Y178960D01*
X91629Y179820D01*
X89400Y180114D01*
D02*
G37*
G36*
X390170Y160890D02*
X387830D01*
X385569Y160284D01*
X383541Y159114D01*
X381886Y157459D01*
X380716Y155431D01*
X380110Y153170D01*
Y150830D01*
X380716Y148569D01*
X381886Y146541D01*
X383541Y144886D01*
X385569Y143716D01*
X387830Y143110D01*
X390170D01*
X392431Y143716D01*
X394459Y144886D01*
X396114Y146541D01*
X397284Y148569D01*
X397890Y150830D01*
Y153170D01*
X397284Y155431D01*
X396114Y157459D01*
X394459Y159114D01*
X392431Y160284D01*
X390170Y160890D01*
D02*
G37*
G36*
X179544Y155134D02*
X177042D01*
X174730Y154176D01*
X172961Y152407D01*
X172003Y150095D01*
Y147593D01*
X172961Y145281D01*
X174730Y143512D01*
X177042Y142554D01*
X179544D01*
X181856Y143512D01*
X183626Y145281D01*
X184583Y147593D01*
Y150095D01*
X183626Y152407D01*
X181856Y154176D01*
X179544Y155134D01*
D02*
G37*
G36*
X307207Y154356D02*
X304705D01*
X302393Y153399D01*
X300624Y151629D01*
X299666Y149317D01*
Y146815D01*
X300624Y144503D01*
X302393Y142734D01*
X304705Y141776D01*
X307207D01*
X309519Y142734D01*
X311289Y144503D01*
X312246Y146815D01*
Y149317D01*
X311289Y151629D01*
X309519Y153399D01*
X307207Y154356D01*
D02*
G37*
G36*
X160503Y148730D02*
X152910D01*
Y141137D01*
X155071Y141716D01*
X157099Y142886D01*
X158754Y144541D01*
X159924Y146569D01*
X160503Y148730D01*
D02*
G37*
G36*
X150370D02*
X142777D01*
X143356Y146569D01*
X144526Y144541D01*
X146181Y142886D01*
X148209Y141716D01*
X150370Y141137D01*
Y148730D01*
D02*
G37*
G36*
X208170Y157890D02*
X205830D01*
X203569Y157284D01*
X201541Y156114D01*
X199886Y154459D01*
X198716Y152431D01*
X198110Y150170D01*
Y147830D01*
X198716Y145569D01*
X199886Y143541D01*
X201541Y141886D01*
X203569Y140716D01*
X205830Y140110D01*
X208170D01*
X210431Y140716D01*
X212459Y141886D01*
X214114Y143541D01*
X215284Y145569D01*
X215890Y147830D01*
Y150170D01*
X215284Y152431D01*
X214114Y154459D01*
X212459Y156114D01*
X210431Y157284D01*
X208170Y157890D01*
D02*
G37*
G36*
X288514Y146741D02*
X280921D01*
Y139148D01*
X283083Y139727D01*
X285110Y140897D01*
X286765Y142552D01*
X287935Y144580D01*
X288514Y146741D01*
D02*
G37*
G36*
X278381D02*
X270788D01*
X271367Y144580D01*
X272537Y142552D01*
X274193Y140897D01*
X276220Y139727D01*
X278381Y139148D01*
Y146741D01*
D02*
G37*
G36*
X243863Y146730D02*
X236270D01*
Y139137D01*
X238431Y139716D01*
X240459Y140886D01*
X242114Y142541D01*
X243284Y144569D01*
X243863Y146730D01*
D02*
G37*
G36*
X233730D02*
X226137D01*
X226716Y144569D01*
X227886Y142541D01*
X229541Y140886D01*
X231569Y139716D01*
X233730Y139137D01*
Y146730D01*
D02*
G37*
G36*
X118251Y149000D02*
X115749D01*
X113437Y148042D01*
X111668Y146273D01*
X110710Y143961D01*
Y141459D01*
X111668Y139147D01*
X113437Y137378D01*
X115749Y136420D01*
X118251D01*
X120563Y137378D01*
X122332Y139147D01*
X123290Y141459D01*
Y143961D01*
X122332Y146273D01*
X120563Y148042D01*
X118251Y149000D01*
D02*
G37*
G36*
X390270Y136863D02*
Y129270D01*
X397863D01*
X397284Y131431D01*
X396114Y133459D01*
X394459Y135114D01*
X392431Y136284D01*
X390270Y136863D01*
D02*
G37*
G36*
X387730D02*
X385569Y136284D01*
X383541Y135114D01*
X381886Y133459D01*
X380716Y131431D01*
X380137Y129270D01*
X387730D01*
Y136863D01*
D02*
G37*
G36*
X42170Y146890D02*
X39830D01*
X37569Y146284D01*
X35541Y145114D01*
X33886Y143459D01*
X32716Y141431D01*
X32110Y139170D01*
Y136830D01*
X32716Y134569D01*
X33886Y132541D01*
X35541Y130886D01*
X37569Y129716D01*
X39830Y129110D01*
X42170D01*
X44431Y129716D01*
X46459Y130886D01*
X48114Y132541D01*
X49284Y134569D01*
X49890Y136830D01*
Y139170D01*
X49284Y141431D01*
X48114Y143459D01*
X46459Y145114D01*
X44431Y146284D01*
X42170Y146890D01*
D02*
G37*
G36*
X346170Y141890D02*
X343830D01*
X341569Y141284D01*
X339541Y140114D01*
X337886Y138459D01*
X336716Y136431D01*
X336110Y134170D01*
Y131830D01*
X336716Y129569D01*
X337886Y127541D01*
X339541Y125886D01*
X341569Y124716D01*
X343830Y124110D01*
X346170D01*
X348431Y124716D01*
X350459Y125886D01*
X352114Y127541D01*
X353284Y129569D01*
X353890Y131830D01*
Y134170D01*
X353284Y136431D01*
X352114Y138459D01*
X350459Y140114D01*
X348431Y141284D01*
X346170Y141890D01*
D02*
G37*
G36*
X260270Y130973D02*
Y123380D01*
X267863D01*
X267284Y125541D01*
X266114Y127569D01*
X264459Y129224D01*
X262431Y130394D01*
X260270Y130973D01*
D02*
G37*
G36*
X257730D02*
X255569Y130394D01*
X253541Y129224D01*
X251886Y127569D01*
X250716Y125541D01*
X250137Y123380D01*
X257730D01*
Y130973D01*
D02*
G37*
G36*
X397863Y126730D02*
X390270D01*
Y119137D01*
X392431Y119716D01*
X394459Y120886D01*
X396114Y122541D01*
X397284Y124569D01*
X397863Y126730D01*
D02*
G37*
G36*
X387730D02*
X380137D01*
X380716Y124569D01*
X381886Y122541D01*
X383541Y120886D01*
X385569Y119716D01*
X387730Y119137D01*
Y126730D01*
D02*
G37*
G36*
X267863Y120840D02*
X260270D01*
Y113247D01*
X262431Y113826D01*
X264459Y114996D01*
X266114Y116651D01*
X267284Y118679D01*
X267863Y120840D01*
D02*
G37*
G36*
X257730D02*
X250137D01*
X250716Y118679D01*
X251886Y116651D01*
X253541Y114996D01*
X255569Y113826D01*
X257730Y113247D01*
Y120840D01*
D02*
G37*
G36*
X335270Y113753D02*
Y106160D01*
X342863D01*
X342284Y108321D01*
X341114Y110349D01*
X339459Y112004D01*
X337431Y113174D01*
X335270Y113753D01*
D02*
G37*
G36*
X332730D02*
X330569Y113174D01*
X328541Y112004D01*
X326886Y110349D01*
X325716Y108321D01*
X325137Y106160D01*
X332730D01*
Y113753D01*
D02*
G37*
G36*
X188711Y110254D02*
Y102660D01*
X196304D01*
X195725Y104822D01*
X194555Y106849D01*
X192900Y108504D01*
X190872Y109675D01*
X188711Y110254D01*
D02*
G37*
G36*
X186171D02*
X184010Y109675D01*
X181982Y108504D01*
X180327Y106849D01*
X179157Y104822D01*
X178578Y102660D01*
X186171D01*
Y110254D01*
D02*
G37*
G36*
X342863Y103620D02*
X335270D01*
Y96027D01*
X337431Y96606D01*
X339459Y97776D01*
X341114Y99431D01*
X342284Y101459D01*
X342863Y103620D01*
D02*
G37*
G36*
X332730D02*
X325137D01*
X325716Y101459D01*
X326886Y99431D01*
X328541Y97776D01*
X330569Y96606D01*
X332730Y96027D01*
Y103620D01*
D02*
G37*
G36*
X156631Y110421D02*
X154290D01*
X152029Y109815D01*
X150002Y108644D01*
X148347Y106989D01*
X147176Y104962D01*
X146571Y102701D01*
Y100360D01*
X147176Y98099D01*
X148347Y96072D01*
X150002Y94417D01*
X152029Y93246D01*
X154290Y92640D01*
X156631D01*
X158892Y93246D01*
X160919Y94417D01*
X162574Y96072D01*
X163745Y98099D01*
X164350Y100360D01*
Y102701D01*
X163745Y104962D01*
X162574Y106989D01*
X160919Y108644D01*
X158892Y109815D01*
X156631Y110421D01*
D02*
G37*
G36*
X196304Y100120D02*
X188711D01*
Y92527D01*
X190872Y93106D01*
X192900Y94277D01*
X194555Y95932D01*
X195725Y97959D01*
X196304Y100120D01*
D02*
G37*
G36*
X186171D02*
X178578D01*
X179157Y97959D01*
X180327Y95932D01*
X181982Y94277D01*
X184010Y93106D01*
X186171Y92527D01*
Y100120D01*
D02*
G37*
G36*
X277270Y96863D02*
Y89270D01*
X284863D01*
X284284Y91431D01*
X283114Y93459D01*
X281459Y95114D01*
X279431Y96284D01*
X277270Y96863D01*
D02*
G37*
G36*
X274730D02*
X272569Y96284D01*
X270541Y95114D01*
X268886Y93459D01*
X267716Y91431D01*
X267137Y89270D01*
X274730D01*
Y96863D01*
D02*
G37*
G36*
X284863Y86730D02*
X277270D01*
Y79137D01*
X279431Y79716D01*
X281459Y80886D01*
X283114Y82541D01*
X284284Y84569D01*
X284863Y86730D01*
D02*
G37*
G36*
X274730D02*
X267137D01*
X267716Y84569D01*
X268886Y82541D01*
X270541Y80886D01*
X272569Y79716D01*
X274730Y79137D01*
Y86730D01*
D02*
G37*
G36*
X349170Y77890D02*
X346830D01*
X344569Y77284D01*
X342541Y76114D01*
X340886Y74459D01*
X339716Y72431D01*
X339110Y70170D01*
Y67830D01*
X339716Y65569D01*
X340886Y63541D01*
X342541Y61886D01*
X344569Y60716D01*
X346830Y60110D01*
X349170D01*
X351431Y60716D01*
X353459Y61886D01*
X355114Y63541D01*
X356284Y65569D01*
X356890Y67830D01*
Y70170D01*
X356284Y72431D01*
X355114Y74459D01*
X353459Y76114D01*
X351431Y77284D01*
X349170Y77890D01*
D02*
G37*
G36*
X21740Y53040D02*
X14470D01*
Y39270D01*
X21740D01*
Y53040D01*
D02*
G37*
G36*
X11930D02*
X4660D01*
Y39270D01*
X11930D01*
Y53040D01*
D02*
G37*
G36*
X386030Y46608D02*
X383690D01*
X381429Y46002D01*
X379402Y44832D01*
X377746Y43176D01*
X376576Y41149D01*
X375970Y38888D01*
Y36547D01*
X376576Y34286D01*
X377746Y32259D01*
X379402Y30604D01*
X381429Y29434D01*
X383690Y28828D01*
X386030D01*
X388292Y29434D01*
X390319Y30604D01*
X391974Y32259D01*
X393144Y34286D01*
X393750Y36547D01*
Y38888D01*
X393144Y41149D01*
X391974Y43176D01*
X390319Y44832D01*
X388292Y46002D01*
X386030Y46608D01*
D02*
G37*
G36*
X21740Y36730D02*
X14470D01*
Y22960D01*
X21740D01*
Y36730D01*
D02*
G37*
G36*
X11930D02*
X4660D01*
Y22960D01*
X11930D01*
Y36730D01*
D02*
G37*
G36*
X89400Y53114D02*
X87171Y52820D01*
X85093Y51960D01*
X83309Y50591D01*
X81940Y48807D01*
X81080Y46729D01*
X80786Y44500D01*
Y31500D01*
X81080Y29271D01*
X81940Y27193D01*
X83309Y25409D01*
X85093Y24040D01*
X87171Y23180D01*
X89400Y22886D01*
X91629Y23180D01*
X93707Y24040D01*
X95491Y25409D01*
X96860Y27193D01*
X97720Y29271D01*
X98014Y31500D01*
Y44500D01*
X97720Y46729D01*
X96860Y48807D01*
X95491Y50591D01*
X93707Y51960D01*
X91629Y52820D01*
X89400Y53114D01*
D02*
G37*
G36*
X64000D02*
X61771Y52820D01*
X59693Y51960D01*
X57909Y50591D01*
X56540Y48807D01*
X55680Y46729D01*
X55386Y44500D01*
Y31500D01*
X55680Y29271D01*
X56540Y27193D01*
X57909Y25409D01*
X59693Y24040D01*
X61771Y23180D01*
X64000Y22886D01*
X66229Y23180D01*
X68307Y24040D01*
X70091Y25409D01*
X71460Y27193D01*
X72320Y29271D01*
X72614Y31500D01*
Y44500D01*
X72320Y46729D01*
X71460Y48807D01*
X70091Y50591D01*
X68307Y51960D01*
X66229Y52820D01*
X64000Y53114D01*
D02*
G37*
G36*
X38600D02*
X36371Y52820D01*
X34293Y51960D01*
X32509Y50591D01*
X31140Y48807D01*
X30280Y46729D01*
X29986Y44500D01*
Y31500D01*
X30280Y29271D01*
X31140Y27193D01*
X32509Y25409D01*
X34293Y24040D01*
X36371Y23180D01*
X38600Y22886D01*
X40829Y23180D01*
X42907Y24040D01*
X44691Y25409D01*
X46060Y27193D01*
X46920Y29271D01*
X47214Y31500D01*
Y44500D01*
X46920Y46729D01*
X46060Y48807D01*
X44691Y50591D01*
X42907Y51960D01*
X40829Y52820D01*
X38600Y53114D01*
D02*
G37*
G36*
X403270Y20863D02*
Y13270D01*
X410863D01*
X410284Y15431D01*
X409114Y17459D01*
X407459Y19114D01*
X405431Y20284D01*
X403270Y20863D01*
D02*
G37*
G36*
X400730D02*
X398569Y20284D01*
X396541Y19114D01*
X394886Y17459D01*
X393716Y15431D01*
X393137Y13270D01*
X400730D01*
Y20863D01*
D02*
G37*
%LPD*%
D11*
X312690Y178000D02*
X312776Y177915D01*
X213000Y178000D02*
X312690D01*
X199000Y192000D02*
X213000Y178000D01*
D14*
X272138Y279000D02*
X279349D01*
X279674Y279326D01*
X279601Y269359D02*
X280000Y268960D01*
X222486Y321660D02*
X274788Y269359D01*
X279601D01*
X225138Y326000D02*
X272138Y279000D01*
X106000Y321660D02*
X222486D01*
X103302Y326000D02*
X225138D01*
X68520Y291219D02*
X103302Y326000D01*
X71219Y286879D02*
X106000Y321660D01*
X46219Y291219D02*
X68520D01*
X30000Y275000D02*
X46219Y291219D01*
X54586Y286879D02*
X71219D01*
X29539Y261832D02*
X54586Y286879D01*
D49*
X70596Y226179D02*
D03*
Y312579D02*
D03*
D50*
X28796Y226179D02*
D03*
Y312579D02*
D03*
D63*
X13200Y38000D02*
D03*
D66*
X50200Y382700D02*
D03*
Y370000D02*
D03*
D67*
X259000Y122110D02*
D03*
X235000Y148000D02*
D03*
X400890Y277000D02*
D03*
X398000Y354000D02*
D03*
X338210Y298676D02*
D03*
X210360Y216000D02*
D03*
X239000Y207000D02*
D03*
X334000Y104890D02*
D03*
X151640Y150000D02*
D03*
X107000Y227640D02*
D03*
X402000Y12000D02*
D03*
X276000Y88000D02*
D03*
X361000Y278000D02*
D03*
X187441Y101390D02*
D03*
X184360Y354000D02*
D03*
X134191Y364561D02*
D03*
X279651Y148011D02*
D03*
X389000Y128000D02*
D03*
D69*
X312776Y177915D02*
D03*
X199000Y192000D02*
D03*
X279674Y279326D02*
D03*
X280000Y268960D02*
D03*
X29539Y261832D02*
D03*
X138000Y276999D02*
D03*
X30000Y275000D02*
D03*
M02*
