G04*
G04 #@! TF.GenerationSoftware,Altium Limited,Altium Designer,22.5.1 (42)*
G04*
G04 Layer_Physical_Order=1*
G04 Layer_Color=255*
%FSLAX44Y44*%
%MOMM*%
G71*
G04*
G04 #@! TF.SameCoordinates,B7139921-243E-46E6-831D-1EB255EF57CC*
G04*
G04*
G04 #@! TF.FilePolarity,Positive*
G04*
G01*
G75*
%ADD10C,0.2500*%
%ADD11C,0.2000*%
%ADD14C,0.2540*%
%ADD18O,0.6500X1.2500*%
%ADD19R,0.6500X1.2500*%
%ADD20R,1.6500X0.9000*%
%ADD21R,1.1500X0.6000*%
%ADD22R,1.1500X0.3000*%
%ADD23R,1.8200X1.4400*%
%ADD24R,0.9000X1.6500*%
%ADD25R,1.4000X1.0000*%
%ADD26R,1.1000X0.3000*%
%ADD27R,3.1000X2.3000*%
G04:AMPARAMS|DCode=28|XSize=3.25mm|YSize=2.05mm|CornerRadius=0.0513mm|HoleSize=0mm|Usage=FLASHONLY|Rotation=270.000|XOffset=0mm|YOffset=0mm|HoleType=Round|Shape=RoundedRectangle|*
%AMROUNDEDRECTD28*
21,1,3.2500,1.9475,0,0,270.0*
21,1,3.1475,2.0500,0,0,270.0*
1,1,0.1025,-0.9738,-1.5738*
1,1,0.1025,-0.9738,1.5738*
1,1,0.1025,0.9738,1.5738*
1,1,0.1025,0.9738,-1.5738*
%
%ADD28ROUNDEDRECTD28*%
G04:AMPARAMS|DCode=29|XSize=1mm|YSize=2.05mm|CornerRadius=0.05mm|HoleSize=0mm|Usage=FLASHONLY|Rotation=270.000|XOffset=0mm|YOffset=0mm|HoleType=Round|Shape=RoundedRectangle|*
%AMROUNDEDRECTD29*
21,1,1.0000,1.9500,0,0,270.0*
21,1,0.9000,2.0500,0,0,270.0*
1,1,0.1000,-0.9750,-0.4500*
1,1,0.1000,-0.9750,0.4500*
1,1,0.1000,0.9750,0.4500*
1,1,0.1000,0.9750,-0.4500*
%
%ADD29ROUNDEDRECTD29*%
%ADD30R,1.3500X1.9000*%
%ADD31R,1.4400X1.8200*%
%ADD32R,1.0000X0.9700*%
%ADD48C,0.6500*%
G04:AMPARAMS|DCode=49|XSize=1mm|YSize=2.1mm|CornerRadius=0.5mm|HoleSize=0mm|Usage=FLASHONLY|Rotation=270.000|XOffset=0mm|YOffset=0mm|HoleType=Round|Shape=RoundedRectangle|*
%AMROUNDEDRECTD49*
21,1,1.0000,1.1000,0,0,270.0*
21,1,0.0000,2.1000,0,0,270.0*
1,1,1.0000,-0.5500,0.0000*
1,1,1.0000,-0.5500,0.0000*
1,1,1.0000,0.5500,0.0000*
1,1,1.0000,0.5500,0.0000*
%
%ADD49ROUNDEDRECTD49*%
G04:AMPARAMS|DCode=50|XSize=1mm|YSize=1.8mm|CornerRadius=0.5mm|HoleSize=0mm|Usage=FLASHONLY|Rotation=270.000|XOffset=0mm|YOffset=0mm|HoleType=Round|Shape=RoundedRectangle|*
%AMROUNDEDRECTD50*
21,1,1.0000,0.8000,0,0,270.0*
21,1,0.0000,1.8000,0,0,270.0*
1,1,1.0000,-0.4000,0.0000*
1,1,1.0000,-0.4000,0.0000*
1,1,1.0000,0.4000,0.0000*
1,1,1.0000,0.4000,0.0000*
%
%ADD50ROUNDEDRECTD50*%
%ADD58R,1.4732X0.2794*%
%ADD59R,0.2794X1.4732*%
%ADD60C,0.4000*%
%ADD61C,0.6000*%
%ADD62C,0.2607*%
%ADD63R,1.2000X2.5000*%
%ADD64O,1.2000X2.5000*%
%ADD65R,1.1000X1.1000*%
%ADD66C,1.1000*%
%ADD67C,1.2700*%
%ADD68C,1.0000*%
%ADD69C,0.7500*%
G36*
X131706Y231230D02*
X129838Y230859D01*
X128006Y229634D01*
X126781Y227802D01*
X126351Y225640D01*
X126781Y223478D01*
X128006Y221646D01*
X128882Y220770D01*
X128356Y219500D01*
X101000D01*
Y232500D01*
X131581D01*
X131706Y231230D01*
D02*
G37*
G36*
X128022Y258486D02*
X126448Y256912D01*
X125665Y255741D01*
X125391Y254360D01*
X125665Y252979D01*
X126448Y251808D01*
X127619Y251025D01*
X129000Y250751D01*
X130381Y251025D01*
X131552Y251808D01*
X134695Y254951D01*
X137000D01*
Y247969D01*
X110260D01*
X110062Y248215D01*
X110321Y249916D01*
X110994Y250366D01*
X114249Y253620D01*
X114249Y253620D01*
X115473Y255453D01*
X115903Y257615D01*
X115903Y257615D01*
Y259659D01*
X127535D01*
X128022Y258486D01*
D02*
G37*
D10*
X366473Y150126D02*
X366508Y150091D01*
X373630D02*
X373721Y150000D01*
X366508Y150091D02*
X373630D01*
D11*
X342715Y166620D02*
G03*
X335486Y165910I-2715J-9510D01*
G01*
X190586Y150003D02*
G03*
X190586Y150002I1414J-1415D01*
G01*
X215683Y237932D02*
X215698Y237948D01*
Y242020D02*
X226000Y252322D01*
X215698Y237948D02*
Y242020D01*
X182304Y268531D02*
X188469D01*
X180551Y270284D02*
X182304Y268531D01*
X188469D02*
X190000Y267000D01*
X155284Y270284D02*
X180551D01*
X184173Y279469D02*
X190469D01*
X192000Y281000D01*
X179988Y275284D02*
X184173Y279469D01*
X117000Y142710D02*
X124090D01*
X322716Y195284D02*
X333000Y185000D01*
X358000D02*
X363000Y190000D01*
X333000Y185000D02*
X358000D01*
X363000Y190000D02*
X373721D01*
X309716Y195284D02*
X322716D01*
X291000Y209000D02*
X299716Y200284D01*
X309716D01*
X343000Y205000D02*
X358000D01*
X337000Y199000D02*
X343000Y205000D01*
X324996Y170849D02*
X361475D01*
X324772Y170625D02*
X324996Y170849D01*
X322200Y178800D02*
X358678D01*
X314007Y177915D02*
X316922Y175000D01*
X307666Y170625D02*
X324772D01*
X301571Y185429D02*
X315571D01*
X322200Y178800D01*
X312776Y177915D02*
X314007D01*
X278689Y199601D02*
X307666Y170625D01*
X283075Y203925D02*
X301571Y185429D01*
X316922Y175000D02*
X360252D01*
X358678Y178800D02*
X364178Y184300D01*
X368049D02*
X368249Y184500D01*
X373221D01*
X364178Y184300D02*
X368049D01*
X373221Y184500D02*
X373721Y185000D01*
X361475Y170849D02*
X364926Y174300D01*
X322000Y159000D02*
X335486Y165910D01*
X342715Y166620D02*
X362620D01*
X368049Y179300D02*
X368249Y179500D01*
X373221D01*
X373721Y180000D01*
X360252Y175000D02*
X364552Y179300D01*
X368049D01*
X362620Y166620D02*
X365500Y169500D01*
X364926Y174300D02*
X368049D01*
X368249Y174500D01*
X373221D01*
X373721Y175000D01*
X365500Y169500D02*
X373221D01*
X340000Y157110D02*
X342895D01*
X345785Y160000D01*
X373221Y169500D02*
X373721Y170000D01*
X345785Y160000D02*
X373721D01*
X363000Y155050D02*
X363050Y155000D01*
X373721D01*
X354960Y195500D02*
X373221D01*
X354000Y196460D02*
X354960Y195500D01*
X373221D02*
X373721Y195000D01*
X363000Y200000D02*
X373721D01*
X358000Y205000D02*
X363000Y200000D01*
X309716Y210284D02*
X331968D01*
X361386Y212600D02*
X363987Y210000D01*
X359813Y208800D02*
X362912Y205700D01*
X336600Y216400D02*
X362961D01*
X332716Y220284D02*
X336600Y216400D01*
X335026Y212600D02*
X361386D01*
X333452Y208800D02*
X359813D01*
X332342Y215284D02*
X335026Y212600D01*
X331968Y210284D02*
X333452Y208800D01*
X362961Y216400D02*
X364361Y215000D01*
X350736Y224110D02*
X351626Y225000D01*
X345000Y234000D02*
X347047Y231953D01*
X351626Y225000D02*
X373721D01*
X334716Y230284D02*
X340890Y224110D01*
X350736D01*
X373411Y220310D02*
X373721Y220000D01*
X338690Y220310D02*
X373411D01*
X362912Y205700D02*
X368049D01*
X368249Y205500D02*
X373221D01*
X373721Y205000D01*
X368049Y205700D02*
X368249Y205500D01*
X309716Y215284D02*
X332342D01*
X309716Y225284D02*
X333716D01*
X309716Y220284D02*
X332716D01*
X333716Y225284D02*
X338690Y220310D01*
X347047Y231953D02*
X352943D01*
X309716Y230284D02*
X334716D01*
X352943Y231953D02*
X354895Y230000D01*
X363987Y210000D02*
X373721D01*
X364361Y215000D02*
X373721D01*
X365452Y235000D02*
X373721D01*
X355852Y244600D02*
X365452Y235000D01*
X330000Y244600D02*
X355852D01*
X309716Y235284D02*
X320684D01*
X330000Y244600D01*
X354895Y230000D02*
X373721D01*
X365826Y240000D02*
X373721D01*
X357426Y248400D02*
X365826Y240000D01*
X320284Y240284D02*
X328400Y248400D01*
X357426D01*
X309716Y240284D02*
X320284D01*
X366200Y245000D02*
X373721D01*
X359000Y252200D02*
X366200Y245000D01*
X326574Y252200D02*
X359000D01*
X320055Y245681D02*
X326574Y252200D01*
X309716Y245284D02*
X310113Y245681D01*
X320055D01*
X373221Y250500D02*
X373721Y250000D01*
X366326Y250500D02*
X373221D01*
X360826Y256000D02*
X366326Y250500D01*
X325000Y256000D02*
X360826D01*
X319284Y250284D02*
X325000Y256000D01*
X309716Y250284D02*
X319284D01*
X322000Y264000D02*
X365721D01*
X319055Y255681D02*
X323574Y260200D01*
X318681Y260681D02*
X322000Y264000D01*
X310113Y255681D02*
X319055D01*
X323574Y260200D02*
X362000D01*
X310113Y260681D02*
X318681D01*
X362000Y260200D02*
X366700Y255500D01*
X373221D02*
X373721Y255000D01*
X366700Y255500D02*
X373221D01*
X309716Y255284D02*
X310113Y255681D01*
X365721Y264000D02*
X369721Y260000D01*
X373721D01*
X309716Y260284D02*
X310113Y260681D01*
X266000Y209000D02*
X274890Y217889D01*
X266000Y197000D02*
Y209000D01*
X192500Y185500D02*
X199000Y192000D01*
X192500Y173068D02*
Y185500D01*
X278689Y199601D02*
Y246750D01*
X282489Y204510D02*
Y244790D01*
Y204510D02*
X283075Y203925D01*
X292897Y170000D02*
X296000D01*
X299000Y167000D01*
X292500Y170397D02*
Y173068D01*
Y170397D02*
X292897Y170000D01*
X274890Y217889D02*
Y248324D01*
X275613Y249652D02*
X298448Y272487D01*
X274890Y248324D02*
X275613Y249652D01*
X283213Y246504D02*
X301596Y264887D01*
X300022Y268687D02*
X301222Y269887D01*
X300022Y268687D02*
X300022D01*
X301222Y269887D02*
X309319D01*
X301596Y264887D02*
X309319D01*
X279413Y248078D02*
X300022Y268687D01*
X282489Y244790D02*
X283213Y246504D01*
X300848Y274887D02*
X309319D01*
X279013Y247486D02*
X279413Y248078D01*
X278689Y246750D02*
X279013Y247486D01*
X298448Y272487D02*
X300848Y274887D01*
X263029Y231971D02*
X264790Y222803D01*
X237312Y257688D02*
X263029Y231971D01*
X144918Y259887D02*
X154887D01*
X129000Y254360D02*
X133200Y258560D01*
X143591D01*
X144918Y259887D01*
X207500Y282328D02*
Y327500D01*
X142928Y269917D02*
X145118Y267727D01*
X129000Y271640D02*
X130723Y269917D01*
X142928D01*
X212500Y299500D02*
Y327500D01*
X143284Y215284D02*
X155284D01*
X142000Y214000D02*
X143284Y215284D01*
X146900Y161900D02*
X169250Y184250D01*
X124090Y142710D02*
X143280Y161900D01*
X146900D01*
X145000Y247723D02*
X147164Y249887D01*
X96740Y237640D02*
X143828D01*
X145000Y238812D02*
Y247723D01*
X143828Y237640D02*
X145000Y238812D01*
X316129Y304840D02*
X332046D01*
X338210Y298676D01*
X96740Y244360D02*
X139260D01*
X126006Y150000D02*
X142006Y166000D01*
X103000Y150000D02*
X126006D01*
X160000Y328000D02*
X172103D01*
X177500Y327500D02*
Y339500D01*
X155284Y275284D02*
X179988D01*
X155284Y245284D02*
X175716D01*
X155284Y210284D02*
X178133D01*
X183640Y215791D01*
Y216000D01*
X286000Y298000D02*
X293000D01*
X177500Y160500D02*
Y173068D01*
X282103Y164948D02*
Y172671D01*
X282500Y173068D01*
X287500Y312988D02*
Y327500D01*
X242897Y327897D02*
Y335620D01*
X247277Y340000D01*
X251000D01*
X135047Y220284D02*
X155284D01*
X129000Y227640D02*
X135047Y221593D01*
Y220284D02*
Y221593D01*
X212103Y172671D02*
X212500Y173068D01*
X212103Y167949D02*
Y172671D01*
X287103Y160897D02*
Y172671D01*
X287500Y173068D01*
X280000Y290000D02*
X290374D01*
X275052Y294948D02*
X280000Y290000D01*
X275052Y294948D02*
Y297948D01*
X274000Y299000D02*
X275052Y297948D01*
X166000Y174000D02*
X172103D01*
X319113Y299887D02*
X324000Y295000D01*
X309716Y305284D02*
X315685D01*
X316129Y304840D01*
X169250Y184250D02*
Y199415D01*
X163778Y204887D02*
X169250Y199415D01*
X155681Y204887D02*
X163778D01*
X155284Y205284D02*
X155681Y204887D01*
X154887Y259887D02*
X155284Y260284D01*
X145118Y267727D02*
Y267727D01*
Y267727D02*
X147164Y265681D01*
X154887D01*
X155284Y265284D01*
X309319Y269887D02*
X309716Y270284D01*
X142006Y166000D02*
X145000D01*
X165450Y186450D01*
Y197841D01*
X163404Y199887D02*
X165450Y197841D01*
X155681Y199887D02*
X163404D01*
X155284Y200284D02*
X155681Y199887D01*
X147164Y249887D02*
X154887D01*
X155284Y250284D01*
X172103Y328000D02*
X172500Y327603D01*
Y327500D02*
Y327603D01*
X309319Y274887D02*
X309716Y275284D01*
X309319Y264887D02*
X309716Y265284D01*
X145689Y255284D02*
X155284D01*
X141200Y250795D02*
X145689Y255284D01*
X141200Y246300D02*
Y250795D01*
X139260Y244360D02*
X141200Y246300D01*
X293000Y298000D02*
X294290Y299290D01*
Y313162D01*
X292500Y314952D02*
X294290Y313162D01*
X292500Y314952D02*
Y327500D01*
X242500D02*
X242897Y327897D01*
X290374Y290000D02*
X295658Y295284D01*
X309716D01*
X202500Y327500D02*
Y339500D01*
X204000Y341000D01*
X172103Y174000D02*
X172500Y173603D01*
Y173068D02*
Y173603D01*
X309716Y300284D02*
X310113Y299887D01*
X319113D01*
X309716Y310284D02*
X310000Y310568D01*
X137716Y285284D02*
X155284D01*
X165186Y287463D02*
X172000Y293606D01*
X163810Y286087D02*
X165186Y287463D01*
X163659Y286087D02*
X163810D01*
X162769Y285284D02*
X163659Y286087D01*
X155284Y285284D02*
X162769D01*
X210824Y231778D02*
X215683Y237932D01*
X210181Y231135D02*
X210824Y231778D01*
X210146Y231110D02*
X210181Y231135D01*
X188890Y231110D02*
X210146D01*
X188305Y231695D02*
X188890Y231110D01*
X179716Y240284D02*
X188305Y231695D01*
X155284Y240284D02*
X179716D01*
X95965Y294873D02*
X96079Y294988D01*
X95965Y265852D02*
Y294873D01*
X95100Y264988D02*
X95965Y265852D01*
X95100Y246000D02*
Y264988D01*
Y246000D02*
X96740Y244360D01*
X211697Y167500D02*
X212103Y167949D01*
X211697Y164542D02*
Y167500D01*
X210057Y162902D02*
X211697Y164542D01*
X206108Y162902D02*
X210057D01*
X190651Y150068D02*
X206108Y162902D01*
X190586Y150003D02*
X190651Y150068D01*
X190000Y149417D02*
X190586Y150002D01*
X190000Y122000D02*
Y149417D01*
X180000Y112000D02*
X190000Y122000D01*
X147000Y112000D02*
X180000D01*
X141000Y106000D02*
X147000Y112000D01*
X141000Y96100D02*
Y106000D01*
X89400Y44500D02*
X141000Y96100D01*
X89400Y38000D02*
Y44500D01*
X286000Y311488D02*
X287500Y312988D01*
X286000Y310000D02*
Y311488D01*
X278155Y161000D02*
X282103Y164948D01*
X222631Y310825D02*
X222761Y310694D01*
X222631Y310825D02*
Y327369D01*
X222500Y327500D02*
X222631Y327369D01*
X177000Y340000D02*
X177500Y339500D01*
X94000Y234900D02*
X96740Y237640D01*
X94000Y220380D02*
Y234900D01*
Y220380D02*
X96238Y218143D01*
Y213052D02*
Y218143D01*
Y213052D02*
X97290Y212000D01*
X212500Y299500D02*
X261000Y251000D01*
X262000D01*
X207500Y282328D02*
X208672Y281157D01*
X236726Y258274D01*
X237312Y257688D01*
X76346Y271879D02*
X76846Y271379D01*
X391021Y277000D02*
X400890D01*
X390721Y276700D02*
X391021Y277000D01*
X374221Y164500D02*
X392500D01*
X134359Y276999D02*
X138000D01*
X338000Y298640D02*
X338175D01*
X338210Y298676D01*
X129000Y271640D02*
X134359Y276999D01*
X76346Y301379D02*
X78346Y299379D01*
X74386Y237379D02*
X76386Y239379D01*
X74386Y301379D02*
X75007Y302000D01*
X349596Y90254D02*
Y91500D01*
X246412Y39852D02*
X264304Y57744D01*
X227400Y21960D02*
X245292Y39852D01*
X246412D01*
X264304Y58694D02*
X300610Y95000D01*
X75681Y31727D02*
Y146819D01*
X64000Y158500D02*
X75681Y146819D01*
Y31727D02*
X85448Y21960D01*
X264304Y57744D02*
Y58694D01*
X64000Y158500D02*
Y165000D01*
X85448Y21960D02*
X227400D01*
X300610Y95000D02*
X346096D01*
X349596Y91500D01*
X373721Y165000D02*
X374221Y164500D01*
X392500D02*
X400000Y157000D01*
Y138800D02*
Y157000D01*
X389200Y128000D02*
X400000Y138800D01*
X389000Y128000D02*
X389200D01*
X360360Y278000D02*
X361000D01*
X261720Y149900D02*
X266000Y154180D01*
X261720Y148000D02*
Y149900D01*
D14*
X298187Y290284D02*
X309716D01*
X279674Y279326D02*
X280006Y279657D01*
X287560D01*
X298187Y290284D01*
X309589Y285157D02*
X309716Y285284D01*
X299197Y285157D02*
X309589D01*
X283949Y269909D02*
X299197Y285157D01*
X280949Y269909D02*
X283949D01*
X280000Y268960D02*
X280949Y269909D01*
D18*
X228340Y58172D02*
D03*
X206840Y99672D02*
D03*
X228340D02*
D03*
D19*
X206840Y58172D02*
D03*
D20*
X253254Y63404D02*
D03*
Y31104D02*
D03*
X170746Y121896D02*
D03*
Y89596D02*
D03*
X402000Y30700D02*
D03*
Y63000D02*
D03*
X323000Y120000D02*
D03*
Y87700D02*
D03*
D21*
X76346Y237379D02*
D03*
Y301379D02*
D03*
Y245379D02*
D03*
Y293379D02*
D03*
D22*
Y251879D02*
D03*
Y256879D02*
D03*
Y261879D02*
D03*
Y266879D02*
D03*
Y271879D02*
D03*
Y276879D02*
D03*
Y281879D02*
D03*
Y286879D02*
D03*
D23*
X107000Y227640D02*
D03*
Y254360D02*
D03*
X338000Y298640D02*
D03*
Y325360D02*
D03*
X134000Y391360D02*
D03*
Y364640D02*
D03*
X129000Y271640D02*
D03*
Y298360D02*
D03*
X405000Y402360D02*
D03*
Y375640D02*
D03*
X129000Y254360D02*
D03*
Y227640D02*
D03*
D24*
X381896Y90254D02*
D03*
X349596D02*
D03*
X209104Y354746D02*
D03*
X241404D02*
D03*
D25*
X342000Y49430D02*
D03*
Y26570D02*
D03*
X282000Y37570D02*
D03*
Y60430D02*
D03*
X372000Y49430D02*
D03*
Y26570D02*
D03*
X312000Y49430D02*
D03*
Y26570D02*
D03*
D26*
X373721Y260000D02*
D03*
Y255000D02*
D03*
Y250000D02*
D03*
Y245000D02*
D03*
Y240000D02*
D03*
Y235000D02*
D03*
Y230000D02*
D03*
Y225000D02*
D03*
Y220000D02*
D03*
Y215000D02*
D03*
Y210000D02*
D03*
Y205000D02*
D03*
Y200000D02*
D03*
Y195000D02*
D03*
Y190000D02*
D03*
Y185000D02*
D03*
Y180000D02*
D03*
Y175000D02*
D03*
Y170000D02*
D03*
Y165000D02*
D03*
Y160000D02*
D03*
Y155000D02*
D03*
Y150000D02*
D03*
Y145000D02*
D03*
D27*
X390721Y128300D02*
D03*
Y276700D02*
D03*
D28*
X315250Y377000D02*
D03*
D29*
X378750Y400000D02*
D03*
Y377000D02*
D03*
Y354000D02*
D03*
D30*
X137000Y196000D02*
D03*
X105000D02*
D03*
X104000Y352000D02*
D03*
X72000D02*
D03*
D31*
X360360Y278000D02*
D03*
X333640D02*
D03*
X102360Y398000D02*
D03*
X75640D02*
D03*
X188360Y354000D02*
D03*
X161640D02*
D03*
X379640Y326000D02*
D03*
X406360D02*
D03*
X261720Y148000D02*
D03*
X235000D02*
D03*
X306011Y148011D02*
D03*
X279291D02*
D03*
X178360Y150000D02*
D03*
X151640D02*
D03*
D32*
X87650Y373000D02*
D03*
X102350D02*
D03*
D48*
X65596Y240479D02*
D03*
Y298279D02*
D03*
D49*
X70596Y226179D02*
D03*
Y312579D02*
D03*
D50*
X28796Y226179D02*
D03*
Y312579D02*
D03*
D58*
X155284Y310284D02*
D03*
Y305284D02*
D03*
Y300284D02*
D03*
Y295284D02*
D03*
Y290284D02*
D03*
Y285284D02*
D03*
Y280284D02*
D03*
Y275284D02*
D03*
Y270284D02*
D03*
Y265284D02*
D03*
Y260284D02*
D03*
Y255284D02*
D03*
Y250284D02*
D03*
Y245284D02*
D03*
Y240284D02*
D03*
Y235284D02*
D03*
Y230284D02*
D03*
Y225284D02*
D03*
Y220284D02*
D03*
Y215284D02*
D03*
Y210284D02*
D03*
Y205284D02*
D03*
Y200284D02*
D03*
Y195284D02*
D03*
Y190284D02*
D03*
X309716D02*
D03*
Y195284D02*
D03*
Y200284D02*
D03*
Y205284D02*
D03*
Y210284D02*
D03*
Y215284D02*
D03*
Y220284D02*
D03*
Y225284D02*
D03*
Y230284D02*
D03*
Y235284D02*
D03*
Y240284D02*
D03*
Y245284D02*
D03*
Y250284D02*
D03*
Y255284D02*
D03*
Y260284D02*
D03*
Y265284D02*
D03*
Y270284D02*
D03*
Y275284D02*
D03*
Y280284D02*
D03*
Y285284D02*
D03*
Y290284D02*
D03*
Y295284D02*
D03*
Y300284D02*
D03*
Y305284D02*
D03*
Y310284D02*
D03*
D59*
X172500Y173068D02*
D03*
X177500D02*
D03*
X182500D02*
D03*
X187500D02*
D03*
X192500D02*
D03*
X197500D02*
D03*
X202500D02*
D03*
X207500D02*
D03*
X212500D02*
D03*
X217500D02*
D03*
X222500D02*
D03*
X227500D02*
D03*
X232500D02*
D03*
X237500D02*
D03*
X242500D02*
D03*
X247500D02*
D03*
X252500D02*
D03*
X257500D02*
D03*
X262500D02*
D03*
X267500D02*
D03*
X272500D02*
D03*
X277500D02*
D03*
X282500D02*
D03*
X287500D02*
D03*
X292500D02*
D03*
Y327500D02*
D03*
X287500D02*
D03*
X282500D02*
D03*
X277500D02*
D03*
X272500D02*
D03*
X267500D02*
D03*
X262500D02*
D03*
X257500D02*
D03*
X252500D02*
D03*
X247500D02*
D03*
X242500D02*
D03*
X237500D02*
D03*
X232500D02*
D03*
X227500D02*
D03*
X222500D02*
D03*
X217500D02*
D03*
X212500D02*
D03*
X207500D02*
D03*
X202500D02*
D03*
X197500D02*
D03*
X192500D02*
D03*
X187500D02*
D03*
X182500D02*
D03*
X177500D02*
D03*
X172500D02*
D03*
D60*
X209255Y253255D02*
Y254534D01*
X201284Y245284D02*
X209255Y253255D01*
X356060Y148110D02*
X363000Y155050D01*
X357736Y141390D02*
X366473Y150126D01*
X349110Y148110D02*
X356060D01*
X299000Y167000D02*
X305000Y161000D01*
X310000Y311000D02*
Y320000D01*
X313000Y323000D01*
X260534Y348000D02*
X262000D01*
X204000Y341000D02*
X219000D01*
X252535Y340000D02*
X260534Y348000D01*
X251000Y340000D02*
X252535D01*
X324000Y287832D02*
X326732Y285100D01*
X324000Y287832D02*
Y295000D01*
X326732Y285100D02*
X328440D01*
X333640Y279900D01*
X90303Y266979D02*
Y286959D01*
X90000Y266676D02*
X90303Y266979D01*
X83884Y293379D02*
X90303Y286959D01*
X90000Y251495D02*
Y266676D01*
X83884Y245379D02*
X90000Y251495D01*
X159201Y167201D02*
X166000Y174000D01*
X159201Y165999D02*
Y167201D01*
X175000Y154000D02*
X178360Y150640D01*
X175716Y245284D02*
X201284D01*
X334000Y104890D02*
Y105354D01*
X267172Y161000D02*
X278155D01*
X266000Y159828D02*
X267172Y161000D01*
X266000Y154180D02*
Y159828D01*
X402000Y12000D02*
Y30700D01*
X384860Y37430D02*
Y37718D01*
X374000Y26570D02*
X384860Y37430D01*
X339124Y122000D02*
X355393D01*
X329562Y131562D02*
X339124Y122000D01*
X355393D02*
X357736Y124343D01*
Y141390D01*
X342815Y66169D02*
X345646Y69000D01*
X348000D01*
X368000Y138000D02*
X374700Y144700D01*
X380795D01*
X368000Y136000D02*
Y138000D01*
X317944Y38000D02*
X329000Y49056D01*
Y53804D01*
X341365Y66169D01*
X342815D01*
X297686Y46370D02*
X306056Y38000D01*
X317944D01*
X285060Y46370D02*
X297686D01*
X282000Y49430D02*
X285060Y46370D01*
X282000Y49430D02*
Y60430D01*
X372000Y26570D02*
X374000D01*
X329250Y110104D02*
Y117500D01*
Y110104D02*
X334000Y105354D01*
X323000Y120000D02*
X326750D01*
X329250Y117500D01*
X274335Y80735D02*
Y86335D01*
X276000Y88000D01*
X253254Y63404D02*
X257004D01*
X274335Y80735D01*
X389000Y128000D02*
X389300Y128300D01*
X390721D01*
X388095Y152000D02*
X389000D01*
X380795Y144700D02*
X388095Y152000D01*
X177000Y340000D02*
Y344000D01*
X333640Y278000D02*
Y279900D01*
X287103Y157723D02*
Y160897D01*
X283491Y154111D02*
X287103Y157723D01*
X283491Y151851D02*
Y154111D01*
X150000Y328000D02*
X160000D01*
X133000Y285284D02*
X137716D01*
X175000Y154000D02*
X177500Y156500D01*
Y160500D01*
D61*
X80462Y215639D02*
X86896Y222073D01*
X85139Y244124D02*
Y244124D01*
X86896Y222073D02*
Y242367D01*
X83884Y245379D02*
X85139Y244124D01*
Y244124D02*
X86896Y242367D01*
X76000Y155580D02*
X98160Y133420D01*
X76000Y155580D02*
Y204290D01*
X52460Y149460D02*
Y200097D01*
X65662Y215639D02*
X80462D01*
X63706Y213682D02*
X65662Y215639D01*
X52460Y200097D02*
X63706Y213682D01*
X252980Y122718D02*
X258392D01*
X259000Y122110D01*
X285267Y131562D02*
X329562D01*
X240000Y86295D02*
X285267Y131562D01*
X240000Y51000D02*
Y86295D01*
X252449Y122187D02*
X252980Y122718D01*
X234187Y122187D02*
X252449D01*
X228340Y58172D02*
Y116340D01*
X174553Y144293D02*
X178360Y148100D01*
X174160Y143900D02*
X174553Y144293D01*
X306011Y148011D02*
X306912Y147110D01*
X305000Y149022D02*
X306011Y148011D01*
X305956Y148066D02*
X306011Y148011D01*
Y148011D02*
Y148011D01*
X206920Y148920D02*
X207000Y149000D01*
X206920Y99752D02*
Y148920D01*
X306912Y147110D02*
X333185D01*
X333927Y144073D02*
X345000Y133000D01*
X346220Y145220D02*
X349110Y148110D01*
X333185Y147110D02*
X335075Y145220D01*
X346220D01*
X219000Y341000D02*
X231419Y353419D01*
X406360Y326000D02*
Y344100D01*
X315250Y341210D02*
Y377000D01*
X174000Y375000D02*
X313250D01*
X315250Y377000D02*
X363000D01*
Y344540D02*
X379640Y327900D01*
X378750Y354000D02*
X398000D01*
X398900Y354900D01*
X398000Y352460D02*
Y354000D01*
X363000Y344540D02*
Y377000D01*
X345000Y389000D02*
Y400000D01*
X110000Y292000D02*
X116360Y298360D01*
X110000Y271378D02*
Y292000D01*
X86896Y296390D02*
Y332146D01*
X188928Y301876D02*
X190000Y300804D01*
X398000Y352460D02*
X406360Y344100D01*
X313250Y375000D02*
X315250Y377000D01*
X240077Y353419D02*
X241404Y354746D01*
X231419Y353419D02*
X240077D01*
X315360Y325360D02*
X331100D01*
X313000Y323000D02*
X315360Y325360D01*
X180271Y301876D02*
X188928D01*
X82379Y293379D02*
X82579Y293579D01*
X82379Y293379D02*
X83884D01*
X82579Y293579D02*
X84084D01*
X86896Y296390D01*
X70596Y312579D02*
X71298Y313281D01*
X72538Y312579D02*
X74386Y310731D01*
X70596Y312579D02*
X72538D01*
X74386Y228026D02*
Y237379D01*
X70596Y226179D02*
X72538D01*
X74386Y228026D01*
Y301379D02*
X76346D01*
Y293379D02*
X82379D01*
X76346Y245379D02*
X83884D01*
X74386Y301379D02*
Y310731D01*
X71298Y351298D02*
X72000Y352000D01*
X71298Y313281D02*
Y351298D01*
X158148Y133420D02*
X164652Y139924D01*
X98160Y133420D02*
X158148D01*
X174553Y123396D02*
Y144293D01*
X155840Y162638D02*
X159201Y165999D01*
X155840Y156100D02*
Y162638D01*
X151640Y151900D02*
X155840Y156100D01*
X151640Y150000D02*
Y151900D01*
X164652Y139924D02*
Y140076D01*
X168476Y143900D01*
X174160D01*
X173053Y121896D02*
X174553Y123396D01*
X170746Y121896D02*
X173053D01*
X206840Y61172D02*
Y99672D01*
X206920Y99752D01*
X132000Y301360D02*
Y324360D01*
X116360Y298360D02*
X129000D01*
X50200Y382700D02*
X51157Y383657D01*
X63197D01*
X75640Y396100D01*
Y398000D01*
X165406Y382000D02*
X172406Y375000D01*
X165834Y366834D02*
X174000Y375000D01*
X172406D02*
X174000D01*
X89650Y374850D02*
Y383390D01*
X87800Y373000D02*
X89650Y374850D01*
Y383390D02*
X102360Y396100D01*
Y398000D01*
X165834Y358194D02*
Y366834D01*
X161640Y354000D02*
X165834Y358194D01*
X106580Y197580D02*
Y227220D01*
X107000Y227640D01*
X105000Y196000D02*
X106580Y197580D01*
X110255Y257615D02*
Y270997D01*
X107000Y254360D02*
X110255Y257615D01*
X110000Y271378D02*
X110255Y271124D01*
Y270997D02*
Y271124D01*
X342000Y26570D02*
X344000D01*
X312000D02*
X342000D01*
X129000Y298360D02*
X130000Y297360D01*
X133000D01*
Y285284D02*
Y297360D01*
X129000Y298360D02*
X132000Y301360D01*
Y324360D02*
X142820Y335180D01*
X109542Y271710D02*
X110255Y270997D01*
X103255Y271997D02*
X103542Y271710D01*
X109542D01*
X86896Y332146D02*
X103175Y348425D01*
X41000Y138000D02*
X52460Y149460D01*
X184360Y354000D02*
X188360D01*
X189106Y354746D02*
X209104D01*
X188360Y354000D02*
X189106Y354746D01*
X180515Y350000D02*
X184160D01*
X184360Y350200D01*
Y354000D01*
X177000Y346485D02*
X180515Y350000D01*
X177000Y344000D02*
Y346485D01*
X172000Y293606D02*
X180271Y301876D01*
X400500Y61500D02*
X402000Y63000D01*
X386070Y61500D02*
X400500D01*
X374000Y49430D02*
X386070Y61500D01*
X372000Y49430D02*
X374000D01*
X253254Y31104D02*
X254754Y32604D01*
X258504D01*
X263237Y37337D01*
X281767D01*
X282000Y37570D01*
X370718Y12282D02*
X372000Y11000D01*
X344000Y26570D02*
X358288Y12282D01*
X370718D01*
X342000Y49430D02*
X344000D01*
X380396Y88754D02*
X381896Y90254D01*
X380396Y84581D02*
Y88754D01*
X352925Y57110D02*
X380396Y84581D01*
X351680Y57110D02*
X352925D01*
X344000Y49430D02*
X351680Y57110D01*
X348000Y69000D02*
X368000Y89000D01*
Y136000D01*
X312000Y80450D02*
X319250Y87700D01*
X323000D01*
X312000Y49430D02*
Y80450D01*
X230000Y41000D02*
X240000Y51000D01*
X228340Y116340D02*
X234187Y122187D01*
X175814Y81186D02*
X195578Y61422D01*
X206590D01*
X174314Y89596D02*
X175814Y88096D01*
X170746Y89596D02*
X174314D01*
X175814Y81186D02*
Y88096D01*
X206840Y58172D02*
Y61172D01*
X206590Y61422D02*
X206840Y61172D01*
X155461Y101531D02*
X155500Y101491D01*
Y79500D02*
Y101491D01*
Y79500D02*
X194000Y41000D01*
X379640Y326000D02*
Y327900D01*
X363000Y377000D02*
X378750D01*
X345000Y400000D02*
X377750D01*
X386360Y402360D02*
X405000D01*
X377750Y400000D02*
X378250Y400500D01*
X384500D02*
X386360Y402360D01*
X378250Y400500D02*
X384500D01*
X315250Y341210D02*
X331100Y325360D01*
X261095Y400000D02*
X345000D01*
X398900Y354900D02*
Y371440D01*
X403100Y375640D02*
X405000D01*
X398900Y371440D02*
X403100Y375640D01*
X194000Y41000D02*
X230000D01*
X136560Y196440D02*
Y208485D01*
Y196440D02*
X137000Y196000D01*
X140075Y212000D02*
X141000D01*
X136560Y208485D02*
X140075Y212000D01*
X103175Y348425D02*
Y372175D01*
X252455Y391360D02*
X261095Y400000D01*
X134000Y391360D02*
X252455D01*
X134079Y364561D02*
X134191D01*
X134000Y364640D02*
X134079Y364561D01*
X102350Y373000D02*
X103175Y372175D01*
X87650Y373000D02*
X87800D01*
X132100Y391360D02*
X134000D01*
X102360Y398000D02*
X125460D01*
X132100Y391360D01*
X331100Y325360D02*
X338000D01*
X279651Y148011D02*
X283491Y151851D01*
X142820Y335180D02*
X150000Y328000D01*
X142820Y335180D02*
X155540Y347900D01*
X157440D02*
X161640Y352100D01*
Y354000D01*
X155540Y347900D02*
X157440D01*
X305000Y149022D02*
Y161000D01*
D62*
X76285Y276939D02*
X80535D01*
X80992Y276482D02*
X83381D01*
X80535Y276939D02*
X80992Y276482D01*
X85199Y269093D02*
Y274664D01*
X83381Y276482D02*
X85199Y274664D01*
X83181Y267075D02*
X85199Y269093D01*
X76346Y266879D02*
X76542Y267075D01*
X83181D01*
X39340Y285000D02*
X47461Y276879D01*
X76346D01*
X21000Y279000D02*
X27000Y285000D01*
X39340D01*
X21000Y270371D02*
X29539Y261832D01*
X21000Y270371D02*
Y279000D01*
X76150Y271682D02*
X76346Y271879D01*
X69510Y271682D02*
X76150D01*
X69314Y262075D02*
X76150D01*
X76346Y261879D01*
X30000Y275000D02*
X40000D01*
X67492Y269664D02*
X69510Y271682D01*
X67492Y264093D02*
Y269664D01*
X67394Y263995D02*
X69314Y262075D01*
X40000Y275000D02*
X51005Y263995D01*
X67394D01*
D63*
X13200Y38000D02*
D03*
D64*
X38600D02*
D03*
X64000D02*
D03*
X89400D02*
D03*
X13200Y165000D02*
D03*
X38600D02*
D03*
X64000D02*
D03*
X89400D02*
D03*
D65*
X37500Y395400D02*
D03*
D66*
X50200D02*
D03*
X37500Y382700D02*
D03*
X50200D02*
D03*
X37500Y370000D02*
D03*
X50200D02*
D03*
X37500Y357300D02*
D03*
X50200D02*
D03*
X37500Y344600D02*
D03*
X50200D02*
D03*
D67*
X226000Y252322D02*
D03*
X209255Y254534D02*
D03*
X259000Y122110D02*
D03*
X235000Y148000D02*
D03*
X207000Y149000D02*
D03*
X340000Y157110D02*
D03*
X322000Y159000D02*
D03*
X345000Y234000D02*
D03*
X266000Y197000D02*
D03*
X264790Y222803D02*
D03*
X262000Y348000D02*
D03*
X389000Y152000D02*
D03*
X400890Y277000D02*
D03*
X262000Y251000D02*
D03*
X398000Y354000D02*
D03*
X345000Y389000D02*
D03*
X190000Y300804D02*
D03*
X338210Y298676D02*
D03*
X183640Y216000D02*
D03*
X210360D02*
D03*
X239000Y207000D02*
D03*
X334000Y104890D02*
D03*
X151640Y150000D02*
D03*
X107000Y227640D02*
D03*
X402000Y12000D02*
D03*
X384860Y37718D02*
D03*
X372000Y11000D02*
D03*
X345000Y133000D02*
D03*
X348000Y69000D02*
D03*
X276000Y88000D02*
D03*
X155461Y101531D02*
D03*
X361000Y278000D02*
D03*
X187441Y101390D02*
D03*
X184360Y354000D02*
D03*
X41000Y138000D02*
D03*
X134191Y364561D02*
D03*
X279651Y148011D02*
D03*
X389000Y128000D02*
D03*
D68*
X190000Y267000D02*
D03*
X192000Y281000D02*
D03*
X337000Y199000D02*
D03*
X354000Y196460D02*
D03*
D69*
X76000Y204290D02*
D03*
X178293Y148844D02*
D03*
X305956Y148066D02*
D03*
X117000Y142710D02*
D03*
X312776Y177915D02*
D03*
X199000Y192000D02*
D03*
X279674Y279326D02*
D03*
X280000Y268960D02*
D03*
X222761Y310694D02*
D03*
X29539Y261832D02*
D03*
X286000Y298000D02*
D03*
Y310000D02*
D03*
X291000Y209000D02*
D03*
X138000Y276999D02*
D03*
X96079Y294988D02*
D03*
X274000Y299000D02*
D03*
X30000Y275000D02*
D03*
X103000Y150000D02*
D03*
X165406Y382000D02*
D03*
X97290Y212000D02*
D03*
X103255Y271997D02*
D03*
M02*
