G04*
G04 #@! TF.GenerationSoftware,Altium Limited,Altium Designer,22.5.1 (42)*
G04*
G04 Layer_Color=65535*
%FSLAX44Y44*%
%MOMM*%
G71*
G04*
G04 #@! TF.SameCoordinates,B7139921-243E-46E6-831D-1EB255EF57CC*
G04*
G04*
G04 #@! TF.FilePolarity,Positive*
G04*
G01*
G75*
%ADD10C,0.2500*%
%ADD11C,0.2000*%
%ADD12C,0.1524*%
%ADD13C,0.1270*%
%ADD14C,0.2540*%
%ADD15C,0.0762*%
%ADD16C,0.1500*%
%ADD17R,2.7432X1.3208*%
G36*
X194405Y163162D02*
X190595D01*
Y160622D01*
X194405D01*
Y163162D01*
D02*
G37*
G36*
X145378Y217189D02*
X142838D01*
Y213379D01*
X145378D01*
Y217189D01*
D02*
G37*
G36*
Y267189D02*
X142838D01*
Y263379D01*
X145378D01*
Y267189D01*
D02*
G37*
G36*
X174405Y337406D02*
X170595D01*
Y339946D01*
X174405D01*
Y337406D01*
D02*
G37*
G36*
X224405D02*
X220595D01*
Y339946D01*
X224405D01*
Y337406D01*
D02*
G37*
G36*
X244405Y163162D02*
X240595D01*
Y160622D01*
X244405D01*
Y163162D01*
D02*
G37*
G36*
X294405D02*
X290595D01*
Y160622D01*
X294405D01*
Y163162D01*
D02*
G37*
G36*
X319622Y237189D02*
X322162D01*
Y233379D01*
X319622D01*
Y237189D01*
D02*
G37*
G36*
Y287189D02*
X322162D01*
Y283379D01*
X319622D01*
Y287189D01*
D02*
G37*
G36*
X274405Y337406D02*
X270595D01*
Y339946D01*
X274405D01*
Y337406D01*
D02*
G37*
D10*
X88846Y302029D02*
G03*
X88846Y302029I-1250J0D01*
G01*
X380000Y343500D02*
G03*
X380000Y343500I-1250J0D01*
G01*
D11*
X362721Y143500D02*
G03*
X362721Y143500I-1000J0D01*
G01*
X500Y95150D02*
G03*
X500Y107850I0J6350D01*
G01*
X38500Y410000D02*
G03*
X38500Y410000I-1000J0D01*
G01*
X235433Y48012D02*
X236050Y47915D01*
Y76532D02*
Y109226D01*
Y47915D02*
Y76532D01*
X208872Y48012D02*
X235433D01*
X198966Y51314D02*
Y81204D01*
Y109226D01*
X236050D01*
X198966Y51314D02*
X202014Y48266D01*
X202268Y48012D01*
X208872D01*
X240554Y20330D02*
X265700D01*
X240554D02*
Y73416D01*
X265700Y20330D02*
Y73416D01*
X240554D02*
X265700D01*
X158300Y79584D02*
X183446D01*
X158300D02*
Y132670D01*
X183446Y79584D02*
Y132670D01*
X158300D02*
X183446D01*
X41546Y318029D02*
X56346D01*
X2046D02*
X16046D01*
X2046Y220729D02*
Y318029D01*
X41546Y220729D02*
X56346D01*
X2046D02*
X16046D01*
X389554Y73774D02*
X414700D01*
Y20688D02*
Y73774D01*
X389554Y20688D02*
Y73774D01*
Y20688D02*
X414700D01*
X339584Y77554D02*
Y102700D01*
X392670D01*
X339584Y77554D02*
X392670D01*
Y102700D01*
X310300Y76926D02*
X335446D01*
X310300D02*
Y130012D01*
X335446Y76926D02*
Y130012D01*
X310300D02*
X335446D01*
X329300Y61622D02*
X349378D01*
X329300Y13350D02*
Y61622D01*
X349378D02*
X354700D01*
Y13350D02*
Y61622D01*
X329300Y13350D02*
X342000D01*
X354700D01*
X274622Y25378D02*
X294700D01*
Y73650D01*
X269300Y25378D02*
X274622D01*
X269300D02*
Y73650D01*
X282000D02*
X294700D01*
X269300D02*
X282000D01*
X328500Y410500D02*
X365500D01*
X328500Y343500D02*
X365500D01*
X328500D02*
Y410500D01*
X365500Y343500D02*
Y410500D01*
X251416Y342300D02*
Y367446D01*
X198330Y342300D02*
X251416D01*
X198330Y367446D02*
X251416D01*
X198330Y342300D02*
Y367446D01*
X500Y58850D02*
X79770D01*
X102100Y81180D01*
Y121820D01*
X500Y144150D02*
X79770D01*
X102100Y121820D01*
X500Y58850D02*
Y95150D01*
Y107850D02*
Y144150D01*
X115500Y187500D02*
X126500D01*
X115500Y204500D02*
X126500D01*
X82500Y343500D02*
X93500D01*
X82500Y360500D02*
X93500D01*
X359300Y61622D02*
X379378D01*
X359300Y13350D02*
Y61622D01*
X379378D02*
X384700D01*
Y13350D02*
Y61622D01*
X359300Y13350D02*
X372000D01*
X384700D01*
X299300Y61622D02*
X319378D01*
X299300Y13350D02*
Y61622D01*
X319378D02*
X324700D01*
Y13350D02*
Y61622D01*
X299300Y13350D02*
X312000D01*
X324700D01*
D12*
X165769Y312839D02*
X169945Y317015D01*
X161507Y179291D02*
X167776D01*
X303493D02*
Y185560D01*
X297224Y321277D02*
X303493D01*
X161507Y315008D02*
Y321277D01*
Y179291D02*
Y185560D01*
X297224Y179291D02*
X303493D01*
Y315008D02*
Y321277D01*
X161507D02*
X167776D01*
D13*
X98000Y238100D02*
Y243900D01*
X116000Y238100D02*
Y243900D01*
X409721Y115350D02*
X419221D01*
X409721Y289650D02*
X419221D01*
Y115350D02*
Y289650D01*
X329000Y309100D02*
Y314900D01*
X347000Y309100D02*
Y314900D01*
X344100Y269000D02*
X349900D01*
X344100Y287000D02*
X349900D01*
X143000Y375100D02*
Y380900D01*
X125000Y375100D02*
Y380900D01*
X86100Y389000D02*
X91900D01*
X86100Y407000D02*
X91900D01*
X172100Y345000D02*
X177900D01*
X172100Y363000D02*
X177900D01*
X120000Y282100D02*
Y287900D01*
X138000Y282100D02*
Y287900D01*
X390100Y335000D02*
X395900D01*
X390100Y317000D02*
X395900D01*
X414000Y386100D02*
Y391900D01*
X396000Y386100D02*
Y391900D01*
X138000Y238100D02*
Y243900D01*
X120000Y238100D02*
Y243900D01*
X245460Y139000D02*
X251260D01*
X245460Y157000D02*
X251260D01*
X289751Y139011D02*
X295551D01*
X289751Y157011D02*
X295551D01*
X162100Y141000D02*
X167900D01*
X162100Y159000D02*
X167900D01*
X500Y338250D02*
X25500D01*
X500D02*
Y401750D01*
X25500D01*
Y338250D02*
Y401750D01*
D14*
X199175Y123118D02*
Y112882D01*
X204294D01*
X206000Y114588D01*
Y116294D01*
X204294Y118000D01*
X199175D01*
X204294D01*
X206000Y119706D01*
Y121412D01*
X204294Y123118D01*
X199175D01*
X209412Y112882D02*
X212824D01*
X211118D01*
Y123118D01*
X209412Y121412D01*
X241469Y76882D02*
Y87118D01*
X246588D01*
X248294Y85412D01*
Y82000D01*
X246588Y80294D01*
X241469D01*
X244882D02*
X248294Y76882D01*
X251706Y85412D02*
X253412Y87118D01*
X256824D01*
X258531Y85412D01*
Y83706D01*
X256824Y82000D01*
X255118D01*
X256824D01*
X258531Y80294D01*
Y78588D01*
X256824Y76882D01*
X253412D01*
X251706Y78588D01*
X137469Y122882D02*
Y133118D01*
X142588D01*
X144294Y131412D01*
Y128000D01*
X142588Y126294D01*
X137469D01*
X140882D02*
X144294Y122882D01*
X154531D02*
X147706D01*
X154531Y129706D01*
Y131412D01*
X152824Y133118D01*
X149412D01*
X147706Y131412D01*
X302469Y410118D02*
Y401588D01*
X304175Y399882D01*
X307588D01*
X309294Y401588D01*
Y410118D01*
X319531D02*
X312706D01*
Y405000D01*
X316118Y406706D01*
X317824D01*
X319531Y405000D01*
Y401588D01*
X317824Y399882D01*
X314412D01*
X312706Y401588D01*
X395723Y76986D02*
Y87222D01*
X400842D01*
X402548Y85516D01*
Y82104D01*
X400842Y80398D01*
X395723D01*
X399136D02*
X402548Y76986D01*
X412785Y87222D02*
X409372Y85516D01*
X405960Y82104D01*
Y78692D01*
X407666Y76986D01*
X411078D01*
X412785Y78692D01*
Y80398D01*
X411078Y82104D01*
X405960D01*
X342469Y105882D02*
Y116118D01*
X347588D01*
X349294Y114412D01*
Y111000D01*
X347588Y109294D01*
X342469D01*
X345882D02*
X349294Y105882D01*
X359531Y116118D02*
X352706D01*
Y111000D01*
X356118Y112706D01*
X357825D01*
X359531Y111000D01*
Y107588D01*
X357825Y105882D01*
X354412D01*
X352706Y107588D01*
X318469Y132882D02*
Y143118D01*
X323588D01*
X325294Y141412D01*
Y138000D01*
X323588Y136294D01*
X318469D01*
X321882D02*
X325294Y132882D01*
X333825D02*
Y143118D01*
X328706Y138000D01*
X335531D01*
X199914Y376190D02*
Y386427D01*
X205032D01*
X206738Y384721D01*
Y381308D01*
X205032Y379602D01*
X199914D01*
X203326D02*
X206738Y376190D01*
X210151D02*
X213563D01*
X211857D01*
Y386427D01*
X210151Y384721D01*
X396000Y306118D02*
X392588D01*
X394294D01*
Y297588D01*
X392588Y295882D01*
X390882D01*
X389175Y297588D01*
X399412Y295882D02*
X402825D01*
X401118D01*
Y306118D01*
X399412Y304412D01*
X6923Y21597D02*
Y13066D01*
X8630Y11360D01*
X12042D01*
X13748Y13066D01*
Y21597D01*
X23985D02*
X20573Y19891D01*
X17160Y16478D01*
Y13066D01*
X18866Y11360D01*
X22279D01*
X23985Y13066D01*
Y14772D01*
X22279Y16478D01*
X17160D01*
X149176Y340118D02*
Y331588D01*
X150882Y329882D01*
X154294D01*
X156000Y331588D01*
Y340118D01*
X159412Y329882D02*
X162824D01*
X161118D01*
Y340118D01*
X159412Y338412D01*
X10294Y216118D02*
X6882D01*
X8588D01*
Y207588D01*
X6882Y205882D01*
X5175D01*
X3469Y207588D01*
X13706Y214412D02*
X15412Y216118D01*
X18824D01*
X20531Y214412D01*
Y212706D01*
X18824Y211000D01*
X17118D01*
X18824D01*
X20531Y209294D01*
Y207588D01*
X18824Y205882D01*
X15412D01*
X13706Y207588D01*
X8294Y334418D02*
X4882D01*
X6588D01*
Y325888D01*
X4882Y324182D01*
X3176D01*
X1469Y325888D01*
X18531Y324182D02*
X11706D01*
X18531Y331006D01*
Y332712D01*
X16825Y334418D01*
X13412D01*
X11706Y332712D01*
X359588Y318176D02*
X357882Y316469D01*
Y313057D01*
X359588Y311351D01*
X366412D01*
X368118Y313057D01*
Y316469D01*
X366412Y318176D01*
X368118Y328412D02*
Y321588D01*
X361294Y328412D01*
X359588D01*
X357882Y326706D01*
Y323294D01*
X359588Y321588D01*
Y331824D02*
X357882Y333531D01*
Y336943D01*
X359588Y338649D01*
X361294D01*
X363000Y336943D01*
X364706Y338649D01*
X366412D01*
X368118Y336943D01*
Y333531D01*
X366412Y331824D01*
X364706D01*
X363000Y333531D01*
X361294Y331824D01*
X359588D01*
X363000Y333531D02*
Y336943D01*
X110029Y180412D02*
X108322Y182118D01*
X104910D01*
X103204Y180412D01*
Y173588D01*
X104910Y171882D01*
X108322D01*
X110029Y173588D01*
X113441Y171882D02*
X116853D01*
X115147D01*
Y182118D01*
X113441Y180412D01*
X121971Y182118D02*
X128796D01*
Y180412D01*
X121971Y173588D01*
Y171882D01*
X359029Y300412D02*
X357323Y302118D01*
X353910D01*
X352204Y300412D01*
Y293588D01*
X353910Y291882D01*
X357323D01*
X359029Y293588D01*
X362441Y291882D02*
X365853D01*
X364147D01*
Y302118D01*
X362441Y300412D01*
X376090Y291882D02*
Y302118D01*
X370971Y297000D01*
X377796D01*
X233029Y134412D02*
X231322Y136118D01*
X227910D01*
X226204Y134412D01*
Y127588D01*
X227910Y125882D01*
X231322D01*
X233029Y127588D01*
X236441Y125882D02*
X239853D01*
X238147D01*
Y136118D01*
X236441Y134412D01*
X244971D02*
X246677Y136118D01*
X250090D01*
X251796Y134412D01*
Y132706D01*
X250090Y131000D01*
X248384D01*
X250090D01*
X251796Y129294D01*
Y127588D01*
X250090Y125882D01*
X246677D01*
X244971Y127588D01*
X108735Y317412D02*
X107029Y319118D01*
X103616D01*
X101910Y317412D01*
Y310588D01*
X103616Y308882D01*
X107029D01*
X108735Y310588D01*
X112147Y308882D02*
X115559D01*
X113853D01*
Y319118D01*
X112147Y317412D01*
X120677Y308882D02*
X124090D01*
X122384D01*
Y319118D01*
X120677Y317412D01*
X174029Y374412D02*
X172323Y376118D01*
X168910D01*
X167204Y374412D01*
Y367588D01*
X168910Y365882D01*
X172323D01*
X174029Y367588D01*
X177441Y365882D02*
X180853D01*
X179147D01*
Y376118D01*
X177441Y374412D01*
X185971D02*
X187677Y376118D01*
X191090D01*
X192796Y374412D01*
Y367588D01*
X191090Y365882D01*
X187677D01*
X185971Y367588D01*
Y374412D01*
X313294Y331412D02*
X311588Y333118D01*
X308176D01*
X306469Y331412D01*
Y324588D01*
X308176Y322882D01*
X311588D01*
X313294Y324588D01*
X316706D02*
X318412Y322882D01*
X321824D01*
X323531Y324588D01*
Y331412D01*
X321824Y333118D01*
X318412D01*
X316706Y331412D01*
Y329706D01*
X318412Y328000D01*
X323531D01*
X278294Y134412D02*
X276588Y136118D01*
X273176D01*
X271469Y134412D01*
Y127588D01*
X273176Y125882D01*
X276588D01*
X278294Y127588D01*
X281706Y134412D02*
X283412Y136118D01*
X286824D01*
X288531Y134412D01*
Y132706D01*
X286824Y131000D01*
X288531Y129294D01*
Y127588D01*
X286824Y125882D01*
X283412D01*
X281706Y127588D01*
Y129294D01*
X283412Y131000D01*
X281706Y132706D01*
Y134412D01*
X283412Y131000D02*
X286824D01*
X131294Y153412D02*
X129588Y155118D01*
X126175D01*
X124469Y153412D01*
Y146588D01*
X126175Y144882D01*
X129588D01*
X131294Y146588D01*
X134706Y155118D02*
X141531D01*
Y153412D01*
X134706Y146588D01*
Y144882D01*
D15*
X138393Y320824D02*
X146857Y312360D01*
X138393D02*
X146857Y320824D01*
X138393Y316592D02*
X146857D01*
X142625Y312360D02*
Y320824D01*
D16*
X67001Y375999D02*
X63003D01*
Y373000D01*
X65002D01*
X63003D01*
Y370001D01*
X69001Y375999D02*
Y370001D01*
X72000D01*
X72999Y371001D01*
Y372000D01*
X72000Y373000D01*
X69001D01*
X72000D01*
X72999Y374000D01*
Y374999D01*
X72000Y375999D01*
X69001D01*
X78997Y370001D02*
X74999D01*
X78997Y374000D01*
Y374999D01*
X77998Y375999D01*
X75998D01*
X74999Y374999D01*
X355002Y9999D02*
Y4001D01*
X358001D01*
X359000Y5001D01*
Y8999D01*
X358001Y9999D01*
X355002D01*
X363999Y4001D02*
Y9999D01*
X361000Y7000D01*
X364998D01*
X330002Y10999D02*
Y5001D01*
X333001D01*
X334000Y6001D01*
Y9999D01*
X333001Y10999D01*
X330002D01*
X336000Y9999D02*
X336999Y10999D01*
X338999D01*
X339998Y9999D01*
Y9000D01*
X338999Y8000D01*
X337999D01*
X338999D01*
X339998Y7000D01*
Y6001D01*
X338999Y5001D01*
X336999D01*
X336000Y6001D01*
X300002Y10999D02*
Y5001D01*
X303001D01*
X304000Y6001D01*
Y9999D01*
X303001Y10999D01*
X300002D01*
X309998Y5001D02*
X306000D01*
X309998Y9000D01*
Y9999D01*
X308999Y10999D01*
X306999D01*
X306000Y9999D01*
X271001Y9999D02*
Y4001D01*
X274000D01*
X275000Y5001D01*
Y8999D01*
X274000Y9999D01*
X271001D01*
X276999Y4001D02*
X278999D01*
X277999D01*
Y9999D01*
X276999Y8999D01*
X402001Y415999D02*
X401002Y416999D01*
X399002D01*
X398003Y415999D01*
Y412001D01*
X399002Y411001D01*
X401002D01*
X402001Y412001D01*
X407999Y411001D02*
X404001D01*
X407999Y415000D01*
Y415999D01*
X407000Y416999D01*
X405000D01*
X404001Y415999D01*
X409999Y416999D02*
X413997D01*
Y415999D01*
X409999Y412001D01*
Y411001D01*
X130001Y404999D02*
X129002Y405999D01*
X127002D01*
X126003Y404999D01*
Y401001D01*
X127002Y400001D01*
X129002D01*
X130001Y401001D01*
X135999Y400001D02*
X132001D01*
X135999Y404000D01*
Y404999D01*
X135000Y405999D01*
X133000D01*
X132001Y404999D01*
X141997Y405999D02*
X139998Y404999D01*
X137999Y403000D01*
Y401001D01*
X138998Y400001D01*
X140998D01*
X141997Y401001D01*
Y402000D01*
X140998Y403000D01*
X137999D01*
X73001Y413999D02*
X72002Y414999D01*
X70002D01*
X69003Y413999D01*
Y410001D01*
X70002Y409001D01*
X72002D01*
X73001Y410001D01*
X78999Y409001D02*
X75001D01*
X78999Y413000D01*
Y413999D01*
X78000Y414999D01*
X76000D01*
X75001Y413999D01*
X84997Y414999D02*
X80999D01*
Y412000D01*
X82998Y413000D01*
X83998D01*
X84997Y412000D01*
Y410001D01*
X83998Y409001D01*
X81998D01*
X80999Y410001D01*
X118001Y347999D02*
X117002Y348999D01*
X115002D01*
X114003Y347999D01*
Y344001D01*
X115002Y343001D01*
X117002D01*
X118001Y344001D01*
X123999Y343001D02*
X120001D01*
X123999Y347000D01*
Y347999D01*
X123000Y348999D01*
X121000D01*
X120001Y347999D01*
X128998Y343001D02*
Y348999D01*
X125999Y346000D01*
X129997D01*
X104501Y216999D02*
X103502Y217999D01*
X101502D01*
X100502Y216999D01*
Y213001D01*
X101502Y212001D01*
X103502D01*
X104501Y213001D01*
X106501Y212001D02*
X108500D01*
X107500D01*
Y217999D01*
X106501Y216999D01*
X115498Y212001D02*
X111499D01*
X115498Y216000D01*
Y216999D01*
X114498Y217999D01*
X112499D01*
X111499Y216999D01*
X127000D02*
X126001Y217999D01*
X124001D01*
X123002Y216999D01*
Y213001D01*
X124001Y212001D01*
X126001D01*
X127000Y213001D01*
X132998Y217999D02*
X130999Y216999D01*
X129000Y215000D01*
Y213001D01*
X129999Y212001D01*
X131999D01*
X132998Y213001D01*
Y214000D01*
X131999Y215000D01*
X129000D01*
D17*
X342004Y68481D02*
D03*
X282000Y18530D02*
D03*
X372003Y68481D02*
D03*
X311999Y68479D02*
D03*
M02*
