G04*
G04 #@! TF.GenerationSoftware,Altium Limited,Altium Designer,22.5.1 (42)*
G04*
G04 Layer_Color=16711935*
%FSLAX44Y44*%
%MOMM*%
G71*
G04*
G04 #@! TF.SameCoordinates,B7139921-243E-46E6-831D-1EB255EF57CC*
G04*
G04*
G04 #@! TF.FilePolarity,Negative*
G04*
G01*
G75*
%ADD38R,2.0232X1.6432*%
%ADD45R,1.5532X2.1032*%
%ADD46R,1.6432X2.0232*%
%ADD48C,0.6500*%
G04:AMPARAMS|DCode=49|XSize=1mm|YSize=2.1mm|CornerRadius=0.5mm|HoleSize=0mm|Usage=FLASHONLY|Rotation=270.000|XOffset=0mm|YOffset=0mm|HoleType=Round|Shape=RoundedRectangle|*
%AMROUNDEDRECTD49*
21,1,1.0000,1.1000,0,0,270.0*
21,1,0.0000,2.1000,0,0,270.0*
1,1,1.0000,-0.5500,0.0000*
1,1,1.0000,-0.5500,0.0000*
1,1,1.0000,0.5500,0.0000*
1,1,1.0000,0.5500,0.0000*
%
%ADD49ROUNDEDRECTD49*%
G04:AMPARAMS|DCode=50|XSize=1mm|YSize=1.8mm|CornerRadius=0.5mm|HoleSize=0mm|Usage=FLASHONLY|Rotation=270.000|XOffset=0mm|YOffset=0mm|HoleType=Round|Shape=RoundedRectangle|*
%AMROUNDEDRECTD50*
21,1,1.0000,0.8000,0,0,270.0*
21,1,0.0000,1.8000,0,0,270.0*
1,1,1.0000,-0.4000,0.0000*
1,1,1.0000,-0.4000,0.0000*
1,1,1.0000,0.4000,0.0000*
1,1,1.0000,0.4000,0.0000*
%
%ADD50ROUNDEDRECTD50*%
%ADD51R,1.4032X2.7032*%
%ADD52O,1.4032X2.7032*%
%ADD53R,1.3032X1.3032*%
%ADD54C,1.3032*%
%ADD55C,1.4732*%
%ADD56C,1.2032*%
%ADD57C,0.9532*%
%ADD77R,1.2032X0.7532*%
%ADD78R,1.1732X1.2032*%
%ADD79R,2.3032X5.8032*%
%ADD80R,1.0032X2.2032*%
%ADD81R,1.5532X3.0032*%
G04:AMPARAMS|DCode=82|XSize=0.8532mm|YSize=1.4032mm|CornerRadius=0.1504mm|HoleSize=0mm|Usage=FLASHONLY|Rotation=270.000|XOffset=0mm|YOffset=0mm|HoleType=Round|Shape=RoundedRectangle|*
%AMROUNDEDRECTD82*
21,1,0.8532,1.1025,0,0,270.0*
21,1,0.5525,1.4032,0,0,270.0*
1,1,0.3007,-0.5513,-0.2763*
1,1,0.3007,-0.5513,0.2763*
1,1,0.3007,0.5513,0.2763*
1,1,0.3007,0.5513,-0.2763*
%
%ADD82ROUNDEDRECTD82*%
D38*
X158000Y320360D02*
D03*
Y293640D02*
D03*
X157000Y227640D02*
D03*
Y254360D02*
D03*
X243000Y212640D02*
D03*
Y239360D02*
D03*
D45*
X183000Y193000D02*
D03*
X215000D02*
D03*
D46*
X71360Y283000D02*
D03*
X44640D02*
D03*
Y257000D02*
D03*
X71360D02*
D03*
X183640Y216000D02*
D03*
X210360D02*
D03*
D48*
X65596Y240479D02*
D03*
Y298279D02*
D03*
D49*
X70596Y226179D02*
D03*
Y312579D02*
D03*
D50*
X28796Y226179D02*
D03*
Y312579D02*
D03*
D51*
X13200Y38000D02*
D03*
D52*
X38600D02*
D03*
X64000D02*
D03*
X89400D02*
D03*
X13200Y165000D02*
D03*
X38600D02*
D03*
X64000D02*
D03*
X89400D02*
D03*
D53*
X37500Y395400D02*
D03*
D54*
X50200D02*
D03*
X37500Y382700D02*
D03*
X50200D02*
D03*
X37500Y370000D02*
D03*
X50200D02*
D03*
X37500Y357300D02*
D03*
X50200D02*
D03*
X37500Y344600D02*
D03*
X50200D02*
D03*
D55*
X226000Y252322D02*
D03*
X209255Y254534D02*
D03*
X259000Y122110D02*
D03*
X235000Y148000D02*
D03*
X207000Y149000D02*
D03*
X340000Y157110D02*
D03*
X322000Y159000D02*
D03*
X345000Y234000D02*
D03*
X266000Y197000D02*
D03*
X264790Y222803D02*
D03*
X262000Y348000D02*
D03*
X389000Y152000D02*
D03*
X400890Y277000D02*
D03*
X262000Y251000D02*
D03*
X398000Y354000D02*
D03*
X345000Y389000D02*
D03*
X190000Y300804D02*
D03*
X338210Y298676D02*
D03*
X183640Y216000D02*
D03*
X210360D02*
D03*
X239000Y207000D02*
D03*
X334000Y104890D02*
D03*
X151640Y150000D02*
D03*
X107000Y227640D02*
D03*
X402000Y12000D02*
D03*
X384860Y37718D02*
D03*
X372000Y11000D02*
D03*
X345000Y133000D02*
D03*
X348000Y69000D02*
D03*
X276000Y88000D02*
D03*
X155461Y101531D02*
D03*
X361000Y278000D02*
D03*
X187441Y101390D02*
D03*
X184360Y354000D02*
D03*
X41000Y138000D02*
D03*
X134191Y364561D02*
D03*
X279651Y148011D02*
D03*
X389000Y128000D02*
D03*
D56*
X190000Y267000D02*
D03*
X192000Y281000D02*
D03*
X337000Y199000D02*
D03*
X354000Y196460D02*
D03*
D57*
X76000Y204290D02*
D03*
X178293Y148844D02*
D03*
X305956Y148066D02*
D03*
X117000Y142710D02*
D03*
X312776Y177915D02*
D03*
X199000Y192000D02*
D03*
X279674Y279326D02*
D03*
X280000Y268960D02*
D03*
X222761Y310694D02*
D03*
X29539Y261832D02*
D03*
X286000Y298000D02*
D03*
Y310000D02*
D03*
X291000Y209000D02*
D03*
X138000Y276999D02*
D03*
X96079Y294988D02*
D03*
X274000Y299000D02*
D03*
X30000Y275000D02*
D03*
X103000Y150000D02*
D03*
X165406Y382000D02*
D03*
X97290Y212000D02*
D03*
X103255Y271997D02*
D03*
D77*
X174000Y267666D02*
D03*
Y278334D02*
D03*
D78*
X194000Y238650D02*
D03*
Y253350D02*
D03*
D79*
X121000Y187500D02*
D03*
Y282500D02*
D03*
D80*
X41014Y116028D02*
D03*
X31500Y85972D02*
D03*
X50500D02*
D03*
D81*
X155500Y101500D02*
D03*
X187500D02*
D03*
X228000D02*
D03*
X260000D02*
D03*
X258500Y31500D02*
D03*
X226500D02*
D03*
X302000Y102000D02*
D03*
X334000D02*
D03*
X332000Y31000D02*
D03*
X300000D02*
D03*
X187500Y31500D02*
D03*
X155500D02*
D03*
D82*
X302750Y57000D02*
D03*
Y66500D02*
D03*
Y76000D02*
D03*
X332250D02*
D03*
Y66500D02*
D03*
Y57000D02*
D03*
X157750D02*
D03*
Y66500D02*
D03*
Y76000D02*
D03*
X187250D02*
D03*
Y66500D02*
D03*
Y57000D02*
D03*
X230250D02*
D03*
Y66500D02*
D03*
Y76000D02*
D03*
X259750D02*
D03*
Y66500D02*
D03*
Y57000D02*
D03*
M02*
