G04*
G04 #@! TF.GenerationSoftware,Altium Limited,Altium Designer,22.5.1 (42)*
G04*
G04 Layer_Color=8421504*
%FSLAX44Y44*%
%MOMM*%
G71*
G04*
G04 #@! TF.SameCoordinates,B7139921-243E-46E6-831D-1EB255EF57CC*
G04*
G04*
G04 #@! TF.FilePolarity,Positive*
G04*
G01*
G75*
%ADD18O,0.6500X1.2500*%
%ADD19R,0.6500X1.2500*%
%ADD20R,1.6500X0.9000*%
%ADD21R,1.1500X0.6000*%
%ADD22R,1.1500X0.3000*%
%ADD23R,1.8200X1.4400*%
%ADD24R,0.9000X1.6500*%
%ADD25R,1.4000X1.0000*%
%ADD26R,1.1000X0.3000*%
%ADD27R,3.1000X2.3000*%
G04:AMPARAMS|DCode=28|XSize=3.25mm|YSize=2.05mm|CornerRadius=0.0513mm|HoleSize=0mm|Usage=FLASHONLY|Rotation=270.000|XOffset=0mm|YOffset=0mm|HoleType=Round|Shape=RoundedRectangle|*
%AMROUNDEDRECTD28*
21,1,3.2500,1.9475,0,0,270.0*
21,1,3.1475,2.0500,0,0,270.0*
1,1,0.1025,-0.9738,-1.5738*
1,1,0.1025,-0.9738,1.5738*
1,1,0.1025,0.9738,1.5738*
1,1,0.1025,0.9738,-1.5738*
%
%ADD28ROUNDEDRECTD28*%
G04:AMPARAMS|DCode=29|XSize=1mm|YSize=2.05mm|CornerRadius=0.05mm|HoleSize=0mm|Usage=FLASHONLY|Rotation=270.000|XOffset=0mm|YOffset=0mm|HoleType=Round|Shape=RoundedRectangle|*
%AMROUNDEDRECTD29*
21,1,1.0000,1.9500,0,0,270.0*
21,1,0.9000,2.0500,0,0,270.0*
1,1,0.1000,-0.9750,-0.4500*
1,1,0.1000,-0.9750,0.4500*
1,1,0.1000,0.9750,0.4500*
1,1,0.1000,0.9750,-0.4500*
%
%ADD29ROUNDEDRECTD29*%
%ADD30R,1.3500X1.9000*%
%ADD31R,1.4400X1.8200*%
%ADD32R,1.0000X0.9700*%
D18*
X228340Y58172D02*
D03*
X206840Y99672D02*
D03*
X228340D02*
D03*
D19*
X206840Y58172D02*
D03*
D20*
X253254Y63404D02*
D03*
Y31104D02*
D03*
X170746Y121896D02*
D03*
Y89596D02*
D03*
X402000Y30700D02*
D03*
Y63000D02*
D03*
X323000Y120000D02*
D03*
Y87700D02*
D03*
D21*
X76346Y237379D02*
D03*
Y301379D02*
D03*
Y245379D02*
D03*
Y293379D02*
D03*
D22*
Y251879D02*
D03*
Y256879D02*
D03*
Y261879D02*
D03*
Y266879D02*
D03*
Y271879D02*
D03*
Y276879D02*
D03*
Y281879D02*
D03*
Y286879D02*
D03*
D23*
X107000Y227640D02*
D03*
Y254360D02*
D03*
X338000Y298640D02*
D03*
Y325360D02*
D03*
X134000Y391360D02*
D03*
Y364640D02*
D03*
X129000Y271640D02*
D03*
Y298360D02*
D03*
X405000Y402360D02*
D03*
Y375640D02*
D03*
X129000Y254360D02*
D03*
Y227640D02*
D03*
D24*
X381896Y90254D02*
D03*
X349596D02*
D03*
X209104Y354746D02*
D03*
X241404D02*
D03*
D25*
X342000Y49430D02*
D03*
Y26570D02*
D03*
X282000Y37570D02*
D03*
Y60430D02*
D03*
X372000Y49430D02*
D03*
Y26570D02*
D03*
X312000Y49430D02*
D03*
Y26570D02*
D03*
D26*
X373721Y260000D02*
D03*
Y255000D02*
D03*
Y250000D02*
D03*
Y245000D02*
D03*
Y240000D02*
D03*
Y235000D02*
D03*
Y230000D02*
D03*
Y225000D02*
D03*
Y220000D02*
D03*
Y215000D02*
D03*
Y210000D02*
D03*
Y205000D02*
D03*
Y200000D02*
D03*
Y195000D02*
D03*
Y190000D02*
D03*
Y185000D02*
D03*
Y180000D02*
D03*
Y175000D02*
D03*
Y170000D02*
D03*
Y165000D02*
D03*
Y160000D02*
D03*
Y155000D02*
D03*
Y150000D02*
D03*
Y145000D02*
D03*
D27*
X390721Y128300D02*
D03*
Y276700D02*
D03*
D28*
X315250Y377000D02*
D03*
D29*
X378750Y400000D02*
D03*
Y377000D02*
D03*
Y354000D02*
D03*
D30*
X137000Y196000D02*
D03*
X105000D02*
D03*
X104000Y352000D02*
D03*
X72000D02*
D03*
D31*
X360360Y278000D02*
D03*
X333640D02*
D03*
X102360Y398000D02*
D03*
X75640D02*
D03*
X188360Y354000D02*
D03*
X161640D02*
D03*
X379640Y326000D02*
D03*
X406360D02*
D03*
X261720Y148000D02*
D03*
X235000D02*
D03*
X306011Y148011D02*
D03*
X279291D02*
D03*
X178360Y150000D02*
D03*
X151640D02*
D03*
D32*
X87650Y373000D02*
D03*
X102350D02*
D03*
M02*
