G04*
G04 #@! TF.GenerationSoftware,Altium Limited,Altium Designer,22.5.1 (42)*
G04*
G04 Layer_Color=128*
%FSLAX44Y44*%
%MOMM*%
G71*
G04*
G04 #@! TF.SameCoordinates,B7139921-243E-46E6-831D-1EB255EF57CC*
G04*
G04*
G04 #@! TF.FilePolarity,Positive*
G04*
G01*
G75*
%ADD23R,1.8200X1.4400*%
%ADD30R,1.3500X1.9000*%
%ADD31R,1.4400X1.8200*%
%ADD71R,1.0000X0.5500*%
%ADD72R,0.9700X1.0000*%
%ADD73R,2.1000X5.6000*%
%ADD74R,0.8000X2.0000*%
%ADD75R,1.3500X2.8000*%
G04:AMPARAMS|DCode=76|XSize=0.65mm|YSize=1.2mm|CornerRadius=0.0488mm|HoleSize=0mm|Usage=FLASHONLY|Rotation=270.000|XOffset=0mm|YOffset=0mm|HoleType=Round|Shape=RoundedRectangle|*
%AMROUNDEDRECTD76*
21,1,0.6500,1.1025,0,0,270.0*
21,1,0.5525,1.2000,0,0,270.0*
1,1,0.0975,-0.5513,-0.2763*
1,1,0.0975,-0.5513,0.2763*
1,1,0.0975,0.5513,0.2763*
1,1,0.0975,0.5513,-0.2763*
%
%ADD76ROUNDEDRECTD76*%
D23*
X158000Y320360D02*
D03*
Y293640D02*
D03*
X157000Y227640D02*
D03*
Y254360D02*
D03*
X243000Y212640D02*
D03*
Y239360D02*
D03*
D30*
X183000Y193000D02*
D03*
X215000D02*
D03*
D31*
X71360Y283000D02*
D03*
X44640D02*
D03*
Y257000D02*
D03*
X71360D02*
D03*
X183640Y216000D02*
D03*
X210360D02*
D03*
D71*
X174000Y267666D02*
D03*
Y278334D02*
D03*
D72*
X194000Y238650D02*
D03*
Y253350D02*
D03*
D73*
X121000Y187500D02*
D03*
Y282500D02*
D03*
D74*
X41014Y116028D02*
D03*
X31500Y85972D02*
D03*
X50500D02*
D03*
D75*
X155500Y101500D02*
D03*
X187500D02*
D03*
X228000D02*
D03*
X260000D02*
D03*
X258500Y31500D02*
D03*
X226500D02*
D03*
X302000Y102000D02*
D03*
X334000D02*
D03*
X332000Y31000D02*
D03*
X300000D02*
D03*
X187500Y31500D02*
D03*
X155500D02*
D03*
D76*
X302750Y57000D02*
D03*
Y66500D02*
D03*
Y76000D02*
D03*
X332250D02*
D03*
Y66500D02*
D03*
Y57000D02*
D03*
X157750D02*
D03*
Y66500D02*
D03*
Y76000D02*
D03*
X187250D02*
D03*
Y66500D02*
D03*
Y57000D02*
D03*
X230250D02*
D03*
Y66500D02*
D03*
Y76000D02*
D03*
X259750D02*
D03*
Y66500D02*
D03*
Y57000D02*
D03*
M02*
